<?xml version="1.0" encoding="UTF-8"?>
<svg id="Capa_2" data-name="Capa 2" xmlns="http://www.w3.org/2000/svg" viewBox="0 0 609.35 174.74">
  <defs>
    <style>
      .cls-1 {
        fill: none;
        stroke: #fdfdfd;
        stroke-miterlimit: 10;
      }

      .cls-2 {
        fill: #fcfcfc;
      }
    </style>
  </defs>
  <g id="Capa_1-2" data-name="Capa 1">
    <g>
      <g>
        <path class="cls-2" d="m69.96,152.4l-3.75-9.68h-23.66l-3.83,9.68h-14.68l23.51-54.75h14.68l22.96,54.75h-15.23Zm-23.12-20.62h15.15l-7.5-19.52-7.65,19.52Z"/>
        <path class="cls-2" d="m128.38,113.38c3.07,3.04,4.45,7.12,4.13,12.26-.34,5.45-2.23,9.57-5.67,12.37-3.44,2.81-8.1,4.02-13.98,3.66l-8.23-.51-.8,12.78-12.05-.75,2.88-46.17,20.29,1.27c5.88.37,10.36,2.07,13.43,5.1Zm-9.7,17.15c1.42-1.15,2.2-2.88,2.34-5.21.14-2.24-.42-4-1.69-5.3-1.26-1.29-3.13-2.01-5.58-2.17l-7.64-.48-.88,14.16,7.64.48c2.46.15,4.4-.34,5.81-1.49Z"/>
        <path class="cls-2" d="m176.72,151.76l-10.25-13.71-.31.05-10.18,1.62,2.38,14.96-14.11,2.25-8.61-54.06,24.29-3.87c7.15-1.14,12.95-.36,17.41,2.33,4.46,2.69,7.17,7.04,8.13,13.06.65,4.06.38,7.7-.79,10.92-1.18,3.22-3.2,5.9-6.07,8.05l14.07,15.87-15.96,2.54Zm-22.53-23.3l10.26-1.63c2.88-.46,4.99-1.53,6.33-3.22,1.34-1.69,1.79-3.9,1.36-6.62s-1.52-4.51-3.32-5.68c-1.79-1.16-4.13-1.52-7.01-1.06l-10.26,1.63,2.64,16.58Z"/>
        <path class="cls-2" d="m202.95,105.62l35.84,2.54-.67,9.46-23.98-1.7-.6,8.49,21.64,1.53-.67,9.4-21.65-1.47-.61,8.55,24.63,1.74-.67,9.46-36.49-2.58,3.22-45.43Z"/>
        <path class="cls-2" d="m289.88,97.65h13.28v54.75h-12.5l-24.83-32.72v32.72h-13.36v-54.75h12.57l24.91,32.96-.08-32.96Z"/>
        <path class="cls-2" d="m344.73,109.8c3.93,1.6,7.1,4.06,9.51,7.38,2.41,3.32,3.84,7.27,4.27,11.83.43,4.56-.24,8.71-2.01,12.45-1.77,3.74-4.48,6.77-8.12,9.08-3.65,2.31-7.95,3.7-12.91,4.17l-19.6,1.85-4.4-46.57,20.06-1.89c4.87-.46,9.27.11,13.2,1.7Zm-3.31,32.75c1.71-1.28,2.98-2.98,3.81-5.12.83-2.13,1.12-4.51.87-7.12-.25-2.66-1.02-4.95-2.29-6.89-1.28-1.93-2.92-3.38-4.93-4.33-2.01-.95-4.24-1.31-6.67-1.08l-7.64.72,2.53,26.84,8.24-.78c2.35-.22,4.38-.97,6.09-2.25Zm44.05-43.57l-13.57-1.72c-.97-.12-1.85.56-1.97,1.53v.04c-.12.93.51,1.77,1.41,1.95l-.34,2.68h0s-6.06,47.82-6.06,47.82c-.48,3.77,2.19,7.21,5.96,7.69l.14.02c3.77.48,7.21-2.19,7.69-5.96l6.06-47.82.34-2.68c.92.06,1.74-.6,1.86-1.53v-.04c.13-.97-.56-1.85-1.52-1.97Zm-6.8,25.97c-.07.56-.59.96-1.15.89-.56-.07-.96-.59-.89-1.15.07-.56.59-.96,1.15-.89.56.07.96.59.89,1.15Zm-.56-8.02c.56.07.96.58.88,1.14-.07.56-.58.96-1.14.88-.56-.07-.96-.58-.88-1.14.07-.56.58-.96,1.14-.88Zm-2.23-12.69c.56.07.96.58.88,1.14-.07.56-.58.96-1.14.88-.56-.07-.96-.58-.88-1.14.07-.56.58-.96,1.14-.88Zm-.17,5.16c1.07.14,1.83,1.11,1.69,2.19-.14,1.07-1.11,1.83-2.19,1.69-1.07-.14-1.83-1.11-1.69-2.19.14-1.07,1.11-1.83,2.19-1.69Zm-1.57,13.08c-.9-.11-1.54-.94-1.42-1.84.11-.9.94-1.54,1.84-1.42s1.54.94,1.42,1.84c-.11.9-.94,1.54-1.84,1.42Zm.85,4.55c-.09.69-.72,1.18-1.41,1.09-.69-.09-1.18-.72-1.09-1.41s.72-1.18,1.41-1.09c.69.09,1.18.72,1.09,1.41Zm-1.02-12.11c.56.07.96.58.88,1.14-.07.56-.58.96-1.14.88-.56-.07-.96-.58-.88-1.14.07-.56.58-.96,1.14-.88Zm-1.76,19.78c.69.09,1.18.72,1.09,1.41-.09.69-.72,1.18-1.41,1.09-.69-.09-1.18-.72-1.09-1.41s.72-1.18,1.41-1.09Zm-4.71,14.84s0,0,0,0c0,.04,0,.09,0,.13,0-.04,0-.09,0-.13Zm.04.59s0,0,0,0c.01.09.03.18.05.27-.02-.09-.04-.18-.05-.28Zm.68,1.68s.05.06.08.09c0,0,0,0,0,0-.03-.03-.06-.06-.08-.09Zm2.56-2.75c-.9-.11-1.54-.94-1.42-1.84s.94-1.54,1.84-1.42c.9.11,1.54.94,1.42,1.84-.11.9-.94,1.54-1.84,1.42Zm1.2-6.03c.1-.77.81-1.32,1.58-1.22.77.1,1.32.81,1.22,1.58-.1.77-.81,1.32-1.58,1.22-.77-.1-1.32-.81-1.22-1.58Zm1.82,8.14c-.56-.07-.96-.59-.89-1.15.07-.56.59-.96,1.15-.89.56.07.96.59.89,1.15-.07.56-.59.96-1.15.89Zm1.33-10.47c-.56-.07-.96-.58-.88-1.14.07-.56.58-.96,1.14-.88.56.07.96.58.88,1.14-.07.56-.58.96-1.14.88Zm.74-5.83c-1.07-.14-1.83-1.11-1.69-2.19.14-1.07,1.11-1.83,2.19-1.69,1.07.14,1.83,1.11,1.69,2.19-.14,1.07-1.11,1.83-2.19,1.69Z"/>
        <path class="cls-2" d="m399,104.25l39.09,4.72-.94,7.79-27.43,25.28,24.42,2.95-1.15,9.55-40.33-4.87.93-7.73,27.44-25.35-23.18-2.8,1.15-9.55Z"/>
        <path class="cls-2" d="m488.88,153.42l-3.75-9.68h-23.66l-3.83,9.68h-14.68l23.51-54.75h14.68l22.96,54.75h-15.23Zm-23.12-20.62h15.15l-7.5-19.52-7.65,19.52Z"/>
        <path class="cls-2" d="m537.43,149.4c-3.03,2.87-7.16,4.31-12.4,4.31-6.81,0-12.46-2.62-16.95-7.85l5.83-8.68c1.71,1.76,3.47,3.11,5.28,4.06,1.81.95,3.45,1.42,4.93,1.42,1.57,0,2.81-.49,3.72-1.46.9-.97,1.35-2.36,1.35-4.17v-22.08h-16.67v-10.49h29.45v32.85c0,5.19-1.52,9.21-4.55,12.08Z"/>
        <path class="cls-2" d="m553.84,97.65h43.19v11.4h-28.9v10.23h26.08v11.32l-26.08.08v10.31h29.68v11.4h-43.97v-54.75Z"/>
        <path class="cls-1" d="m78.75,174.24l-6.37-16.45h-40.19l-6.5,16.45H.76l39.92-92.98h24.94l38.99,92.98h-25.86Zm-39.26-35.02h25.73l-12.73-33.16-13,33.16Z"/>
        <path class="cls-1" d="m547.06,86.8h60.69v16.02h-40.61v14.38h36.66v15.91l-36.66.11v14.49h41.71v16.02h-61.79v-76.94Z"/>
      </g>
      <circle class="cls-1" cx="367.86" cy="87.99" r="4.94"/>
      <ellipse class="cls-1" cx="384.11" cy="92.67" rx="2.84" ry="2.98"/>
      <circle class="cls-1" cx="381.98" cy="77.61" r="4.77"/>
      <circle class="cls-1" cx="392.79" cy="22.29" r="4.94"/>
      <ellipse class="cls-1" cx="386.41" cy="3.48" rx="2.84" ry="2.98"/>
      <circle class="cls-1" cx="374.58" cy="14.71" r="4.68"/>
      <g>
        <path class="cls-2" d="m61.07,39.49c2.08,1.77,3.12,4.49,3.12,8.16s-1.07,6.35-3.21,8.05c-2.14,1.7-5.4,2.55-9.8,2.55h-3.95v8.29h-6.63v-29.7h10.5c4.56,0,7.88.89,9.97,2.66Zm-4.87,11.69c.79-.89,1.19-2.2,1.19-3.91s-.52-2.93-1.55-3.65c-1.03-.72-2.64-1.08-4.82-1.08h-3.78v9.99h4.46c2.21,0,3.71-.45,4.5-1.34Z"/>
        <path class="cls-2" d="m93.47,46.69c0,4.76-1.88,7.83-5.65,9.22l7.52,10.62h-8.16l-6.59-9.48h-4.59v9.48h-6.63v-29.7h11.26c4.62,0,7.91.78,9.88,2.34,1.97,1.56,2.95,4.07,2.95,7.52Zm-7.99,3.53c.82-.74,1.23-1.91,1.23-3.51s-.42-2.7-1.27-3.29-2.34-.89-4.46-.89h-4.97v8.8h4.84c2.27,0,3.81-.37,4.63-1.1Z"/>
        <path class="cls-2" d="m121.69,36.83v5.91h-14.79v6.12h13.3v5.65h-13.3v6.16h15.25v5.86h-21.88v-29.7h21.42Z"/>
        <path class="cls-2" d="m148.52,39.49c2.08,1.77,3.12,4.49,3.12,8.16s-1.07,6.35-3.21,8.05c-2.14,1.7-5.4,2.55-9.8,2.55h-3.95v8.29h-6.63v-29.7h10.5c4.56,0,7.88.89,9.97,2.66Zm-4.87,11.69c.79-.89,1.19-2.2,1.19-3.91s-.52-2.93-1.55-3.65c-1.03-.72-2.64-1.08-4.82-1.08h-3.78v9.99h4.46c2.21,0,3.71-.45,4.5-1.34Z"/>
        <path class="cls-2" d="m177.99,66.54l-2.76-6.42h-12.45l-2.76,6.42h-7.05l12.83-29.7h6.42l12.83,29.7h-7.05Zm-8.97-20.86l-3.74,8.63h7.44l-3.7-8.63Zm2.8-11.9h-6.08l5.4-7.52,6.59,2.76-5.91,4.76Z"/>
        <path class="cls-2" d="m212.58,46.69c0,4.76-1.88,7.83-5.65,9.22l7.52,10.62h-8.16l-6.59-9.48h-4.59v9.48h-6.63v-29.7h11.26c4.62,0,7.91.78,9.88,2.34,1.97,1.56,2.95,4.07,2.95,7.52Zm-7.99,3.53c.82-.74,1.23-1.91,1.23-3.51s-.42-2.7-1.27-3.29-2.34-.89-4.46-.89h-4.97v8.8h4.84c2.27,0,3.81-.37,4.63-1.1Z"/>
        <path class="cls-2" d="m240.54,66.54l-2.76-6.42h-12.45l-2.76,6.42h-7.05l12.83-29.7h6.42l12.83,29.7h-7.05Zm-8.97-20.86l-3.74,8.63h7.44l-3.7-8.63Z"/>
        <path class="cls-2" d="m261.45,42.57v23.97h-6.63v-23.97h-8.41v-5.74h23.46v5.74h-8.41Z"/>
        <path class="cls-2" d="m296.13,36.83v5.91h-14.79v6.12h13.3v5.65h-13.3v6.16h15.25v5.86h-21.88v-29.7h21.42Z"/>
        <path class="cls-2" d="m334.18,39.49c2.08,1.77,3.12,4.49,3.12,8.16s-1.07,6.35-3.21,8.05c-2.14,1.7-5.4,2.55-9.8,2.55h-3.95v8.29h-6.63v-29.7h10.5c4.56,0,7.88.89,9.97,2.66Zm-4.87,11.69c.79-.89,1.19-2.2,1.19-3.91s-.52-2.93-1.55-3.65c-1.03-.72-2.64-1.08-4.82-1.08h-3.78v9.99h4.46c2.21,0,3.71-.45,4.5-1.34Z"/>
        <path class="cls-2" d="m361.91,66.54l-2.76-6.42h-12.45l-2.76,6.42h-7.05l12.83-29.7h6.42l12.83,29.7h-7.05Zm-8.97-20.86l-3.74,8.63h7.44l-3.7-8.63Z"/>
        <path class="cls-2" d="m396.5,46.69c0,4.76-1.88,7.83-5.65,9.22l7.52,10.62h-8.16l-6.59-9.48h-4.59v9.48h-6.63v-29.7h11.26c4.62,0,7.91.78,9.88,2.34,1.97,1.56,2.95,4.07,2.95,7.52Zm-7.99,3.53c.82-.74,1.23-1.91,1.23-3.51s-.42-2.7-1.27-3.29-2.34-.89-4.46-.89h-4.97v8.8h4.84c2.27,0,3.81-.37,4.63-1.1Z"/>
        <path class="cls-2" d="m424.46,66.54l-2.76-6.42h-12.45l-2.76,6.42h-7.05l12.83-29.7h6.42l12.83,29.7h-7.05Zm-8.97-20.86l-3.74,8.63h7.44l-3.7-8.63Z"/>
        <path class="cls-2" d="m478.81,36.83v5.91h-14.79v6.12h13.3v5.65h-13.3v6.16h15.25v5.86h-21.88v-29.7h21.42Z"/>
        <path class="cls-2" d="m485.18,66.54v-29.7h6.63v23.8h12.66v5.91h-19.29Z"/>
      </g>
    </g>
  </g>
</svg>