<?xml version="1.0" encoding="UTF-8"?>
<svg id="Capa_2" data-name="Capa 2" xmlns="http://www.w3.org/2000/svg" viewBox="0 0 50.22 40.68">
  <defs>
    <style>
      .cls-1 {
        fill: #fff;
      }
    </style>
  </defs>
  <g id="Capa_1-2" data-name="Capa 1">
    <path class="cls-1" d="m36.09,40.68c-3.04,0-5.68-1.01-7.83-3.01-2.18-2.03-3.29-4.75-3.29-8.07,0-1.46.31-2.99.92-4.56.57-1.45,1.17-2.85,1.79-4.15L37.98,0h12.23l-7.62,20.66c1.42.88,2.54,2.01,3.34,3.38h0c.98,1.69,1.47,3.55,1.47,5.55,0,3.2-1.1,5.88-3.28,7.97-2.16,2.07-4.86,3.12-8.03,3.12Zm3.63-37.89l-9.53,19.31c-.58,1.22-1.15,2.56-1.7,3.95-.48,1.24-.72,2.43-.72,3.54,0,2.56.78,4.53,2.4,6.03,1.64,1.52,3.58,2.27,5.93,2.27,2.46,0,4.46-.77,6.1-2.34,1.63-1.56,2.42-3.51,2.42-5.95,0-1.52-.36-2.88-1.09-4.14-.72-1.23-1.79-2.18-3.26-2.88l-1.15-.55,7.09-19.23h-6.49ZM11.12,40.68c-3.05,0-5.68-1.01-7.83-3.01-2.18-2.03-3.29-4.75-3.29-8.07,0-1.47.31-3.01.93-4.56.54-1.4,1.14-2.8,1.78-4.14L13.01,0h12.23l-7.62,20.67c1.42.88,2.53,2.01,3.33,3.37h0c.98,1.69,1.47,3.56,1.47,5.55,0,3.2-1.1,5.88-3.27,7.97-2.16,2.07-4.87,3.12-8.04,3.12ZM14.75,2.79L5.22,22.1c-.6,1.26-1.17,2.6-1.69,3.94-.49,1.24-.73,2.43-.73,3.55,0,2.56.78,4.53,2.4,6.03,1.64,1.52,3.58,2.27,5.93,2.27s4.46-.77,6.11-2.34c1.62-1.56,2.41-3.51,2.41-5.95,0-1.52-.36-2.87-1.09-4.14-.72-1.23-1.79-2.18-3.25-2.88l-1.14-.55L21.24,2.79h-6.49Z"/>
  </g>
</svg>