<?xml version="1.0" encoding="UTF-8"?>
<svg id="Capa_2" data-name="Capa 2" xmlns="http://www.w3.org/2000/svg" viewBox="0 0 302.37 129.64">
  <defs>
    <style>
      .cls-1 {
        fill: none;
        stroke: #fdfdfd;
        stroke-miterlimit: 10;
      }

      .cls-2 {
        fill: #fcfcfc;
      }
    </style>
  </defs>
  <g id="Capa_1-2" data-name="Capa 1">
    <g>
      <path class="cls-2" d="m241.23,51.27v11.46h-41.62l-.08-9.43,19.88-20.42c1.56-1.61,2.83-3.22,3.82-4.83.99-1.61,1.48-2.99,1.48-4.13,0-1.51-.54-2.66-1.64-3.47-1.09-.81-2.62-1.21-4.6-1.21-2.18,0-4.61.61-7.29,1.83-2.68,1.22-5.26,2.92-7.76,5.11l-5.46-10.52c7.53-5.46,15.09-8.18,22.68-8.18,3.64,0,6.9.6,9.78,1.79,2.88,1.2,5.14,2.88,6.78,5.07,1.64,2.18,2.46,4.68,2.46,7.48s-.92,5.7-2.77,8.69c-1.84,2.99-4.46,6.17-7.83,9.55l-11.15,11.22h23.3Z"/>
      <path class="cls-2" d="m285.47,33.05c3.19,1.4,5.66,3.35,7.4,5.85s2.61,5.35,2.61,8.57c0,3.79-.91,7.12-2.73,9.98-1.82,2.86-4.42,5.07-7.79,6.63-3.38,1.56-7.3,2.34-11.77,2.34-3.64,0-7.39-.62-11.26-1.87-3.87-1.25-7.31-2.88-10.33-4.91l5.3-10.29c5.04,4.05,9.95,6.08,14.73,6.08,2.7,0,4.8-.61,6.31-1.83,1.51-1.22,2.26-2.9,2.26-5.03s-.74-3.75-2.22-4.87c-1.48-1.12-3.7-1.68-6.66-1.68-6.91,0-11.9.1-14.96.31V11.15h36.71v11.46h-23.62v8.34h4.91c4.21,0,7.91.7,11.11,2.1Z"/>
      <path class="cls-1" d="m248.26,58.02v15.05h-55.28l-.1-12.38,26.4-26.82c2.07-2.11,3.76-4.23,5.07-6.35,1.31-2.11,1.97-3.92,1.97-5.42,0-1.98-.72-3.5-2.17-4.56-1.45-1.06-3.49-1.59-6.11-1.59-2.9,0-6.13.8-9.68,2.41-3.56,1.6-6.99,3.84-10.3,6.7l-7.25-13.82c10-7.17,20.05-10.75,30.12-10.75,4.83,0,9.16.78,12.99,2.35,3.83,1.57,6.83,3.79,9.01,6.65,2.17,2.87,3.26,6.14,3.26,9.83s-1.23,7.49-3.67,11.41c-2.45,3.92-5.92,8.1-10.4,12.54l-14.8,14.74h30.95Z"/>
      <path class="cls-1" d="m288.57,32.38c4.24,1.84,7.52,4.4,9.83,7.68,2.31,3.28,3.47,7.03,3.47,11.26,0,4.98-1.21,9.35-3.62,13.1-2.42,3.75-5.87,6.65-10.35,8.7-4.49,2.05-9.7,3.07-15.63,3.07-4.83,0-9.82-.82-14.96-2.46-5.14-1.64-9.71-3.79-13.72-6.45l7.04-13.51c6.69,5.32,13.21,7.98,19.56,7.98,3.59,0,6.38-.8,8.38-2.41,2-1.6,3-3.8,3-6.6s-.98-4.93-2.95-6.4c-1.97-1.47-4.92-2.2-8.85-2.2-9.18,0-15.8.14-19.87.41V3.62h48.75v15.05h-31.36v10.95h6.52c5.59,0,10.51.92,14.75,2.76Z"/>
      <g>
        <path class="cls-2" d="m129.21,95.53c2.8,2.56,4.2,6.13,4.2,10.69s-1.37,8.18-4.1,10.84c-2.73,2.66-6.89,3.99-12.49,3.99h-10.04v-29.36h10.37c5.24,0,9.25,1.28,12.05,3.84Zm-4.81,17.45c1.61-1.51,2.42-3.71,2.42-6.59s-.81-5.1-2.42-6.66c-1.61-1.55-4.08-2.33-7.41-2.33h-3.65v17.85h4.16c3,0,5.3-.76,6.91-2.27Z"/>
        <path class="cls-2" d="m160.25,91.69v5.84h-14.62v6.05h13.15v5.59h-13.15v6.09h15.08v5.8h-21.63v-29.36h21.17Z"/>
        <path class="cls-2" d="m198.55,121.05l-2.73-6.34h-12.31l-2.73,6.34h-6.97l12.68-29.36h6.34l12.68,29.36h-6.97Zm-8.86-20.62l-3.7,8.53h7.35l-3.65-8.53Z"/>
        <path class="cls-2" d="m221.78,121.05h-12.85v-29.36h11.42c1.99,0,3.7.24,5.14.71,1.44.48,2.53,1.12,3.25,1.93,1.32,1.51,1.97,3.22,1.97,5.12,0,2.3-.74,4-2.23,5.12-.5.39-.85.64-1.05.73-.2.1-.55.26-1.05.48,1.82.39,3.27,1.21,4.35,2.46,1.08,1.25,1.62,2.79,1.62,4.64,0,2.04-.7,3.85-2.1,5.42-1.62,1.82-4.45,2.73-8.48,2.73Zm-6.3-17.47h3.11c1.82,0,3.17-.2,4.05-.59.88-.39,1.32-1.24,1.32-2.54s-.41-2.16-1.22-2.58-2.18-.63-4.12-.63h-3.15v6.34Zm0,11.93h4.49c1.88,0,3.28-.23,4.22-.69.94-.46,1.41-1.37,1.41-2.73s-.5-2.25-1.49-2.69c-.99-.43-2.58-.65-4.77-.65h-3.86v6.76Z"/>
        <path class="cls-2" d="m261.67,101.43c0,4.7-1.86,7.74-5.59,9.11l7.43,10.5h-8.06l-6.51-9.37h-4.54v9.37h-6.55v-29.36h11.13c4.56,0,7.82.77,9.76,2.31,1.95,1.54,2.92,4.02,2.92,7.43Zm-7.9,3.49c.81-.73,1.22-1.88,1.22-3.46s-.42-2.67-1.26-3.26c-.84-.59-2.31-.88-4.41-.88h-4.91v8.69h4.79c2.24,0,3.77-.36,4.58-1.09Z"/>
        <path class="cls-2" d="m268.39,91.69h6.55v29.36h-6.55v-29.36Z"/>
        <path class="cls-2" d="m282.17,121.05v-29.36h6.55v23.52h12.52v5.84h-19.07Z"/>
      </g>
      <g>
        <path class="cls-2" d="m19.11,50.81c-1.98,1.87-4.67,2.8-8.07,2.8-4.43,0-8.11-1.7-11.04-5.11l3.8-5.65c1.11,1.15,2.26,2.03,3.44,2.65,1.18.62,2.25.93,3.21.93,1.02,0,1.83-.32,2.42-.95s.88-1.54.88-2.71v-14.38H2.89v-6.83h19.18v21.4c0,3.38-.99,6-2.96,7.87Z"/>
        <path class="cls-2" d="m40.37,50.09c1.33,1.04,2.89,1.44,4.68,1.2,1.76-.24,3.11-1.02,4.04-2.35.93-1.33,1.26-2.99.99-4.99l-2.48-18.47,8.2-1.1,2.48,18.47c.37,2.72.11,5.18-.76,7.38-.88,2.2-2.31,4-4.3,5.39-1.99,1.39-4.42,2.28-7.29,2.67-2.87.39-5.46.17-7.78-.64-2.32-.81-4.2-2.17-5.66-4.05-1.46-1.89-2.37-4.19-2.73-6.91l-2.48-18.47,8.2-1.1,2.48,18.47c.27,1.97,1.06,3.48,2.39,4.52Z"/>
        <path class="cls-2" d="m63.74,26.15h25.01v6.6h-16.74v5.93h15.11v6.56l-15.11.05v5.97h17.19v6.6h-25.47v-31.71Z"/>
        <path class="cls-2" d="m91.65,19.24h8.91l7.92,22.93,7.96-22.93h8.5l-12.39,31.71h-8.59l-12.3-31.71Z"/>
        <path class="cls-2" d="m127.38,26.15h25.01v6.6h-16.74v5.93h15.11v6.56l-15.11.05v5.97h17.19v6.6h-25.47v-31.71Z"/>
        <path class="cls-2" d="m175.77,27.7c-1.96-.47-3.59-.65-4.88-.54-1.02.09-1.81.34-2.36.77-.55.43-.8,1-.74,1.72s.36,1.25.91,1.67c.55.42,1.21.74,1.99.97s1.92.49,3.43.82c2.25.44,4.11.92,5.59,1.43,1.48.51,2.79,1.37,3.92,2.59,1.13,1.22,1.79,2.88,1.97,4.98s-.22,3.95-1.21,5.53c-.98,1.58-2.41,2.83-4.29,3.75-1.87.92-4,1.48-6.37,1.68-2.61.22-5.26-.01-7.94-.71-2.68-.69-5.03-1.76-7.06-3.19l2.65-6.72c1.71,1.28,3.7,2.27,5.95,2.99,2.26.72,4.22,1,5.91.86,1.23-.11,2.18-.41,2.85-.92.67-.51.96-1.2.89-2.07-.06-.72-.38-1.3-.94-1.74-.57-.43-1.26-.76-2.08-.98s-1.97-.46-3.44-.73c-2.21-.42-4.05-.87-5.52-1.37-1.47-.49-2.75-1.32-3.87-2.48-1.11-1.16-1.76-2.78-1.94-4.85-.17-1.95.21-3.71,1.12-5.27.91-1.56,2.29-2.82,4.13-3.78,1.84-.96,4.02-1.55,6.55-1.76,2.28-.2,4.56-.07,6.84.39,2.28.46,4.31,1.15,6.08,2.09l-2.55,6.85c-1.77-.85-3.63-1.5-5.59-1.97Z"/>
      </g>
      <path class="cls-1" d="m124.36,83.95c4.14,2.02,7.36,4.85,9.66,8.49,2.3,3.65,3.45,7.83,3.45,12.55s-1.16,8.92-3.49,12.59c-2.33,3.67-5.61,6.51-9.84,8.53-4.24,2.02-9.1,3.03-14.58,3.03h-21.67v-48.21h22.18c5.39,0,10.15,1.01,14.29,3.03Zm-7.01,33.29c2.01-1.14,3.57-2.77,4.7-4.88,1.13-2.11,1.69-4.52,1.69-7.22s-.6-5.18-1.8-7.29c-1.2-2.11-2.85-3.75-4.96-4.92-2.11-1.17-4.51-1.75-7.2-1.75h-8.45v27.79h9.11c2.59,0,4.9-.57,6.9-1.72Z"/>
    </g>
  </g>
</svg>