<?xml version="1.0" encoding="UTF-8"?>
<svg id="Capa_2" data-name="Capa 2" xmlns="http://www.w3.org/2000/svg" viewBox="0 0 338.12 124.17">
  <defs>
    <style>
      .cls-1 {
        fill: none;
        stroke: #fdfdfd;
        stroke-miterlimit: 10;
      }

      .cls-2 {
        fill: #fcfcfc;
      }
    </style>
  </defs>
  <g id="Capa_1-2" data-name="Capa 1">
    <g>
      <g>
        <path class="cls-2" d="m33.79,88.34c2.8,2.56,4.2,6.13,4.2,10.69s-1.37,8.18-4.1,10.84c-2.73,2.66-6.89,3.99-12.49,3.99h-10.04v-29.36h10.37c5.24,0,9.25,1.28,12.05,3.84Zm-4.81,17.45c1.61-1.51,2.42-3.71,2.42-6.59s-.81-5.1-2.42-6.66c-1.61-1.55-4.08-2.33-7.41-2.33h-3.65v17.85h4.16c3,0,5.3-.76,6.91-2.27Z"/>
        <path class="cls-2" d="m64.82,84.5v5.84h-14.62v6.05h13.15v5.59h-13.15v6.09h15.08v5.8h-21.63v-29.36h21.17Z"/>
        <path class="cls-2" d="m103.13,113.86l-2.73-6.34h-12.31l-2.73,6.34h-6.97l12.68-29.36h6.34l12.68,29.36h-6.97Zm-8.86-20.62l-3.7,8.53h7.35l-3.65-8.53Z"/>
        <path class="cls-2" d="m126.35,113.86h-12.85v-29.36h11.42c1.99,0,3.7.24,5.14.71,1.44.48,2.53,1.12,3.25,1.93,1.32,1.51,1.97,3.22,1.97,5.12,0,2.3-.74,4-2.23,5.12-.5.39-.85.64-1.05.73-.2.1-.55.26-1.05.48,1.82.39,3.27,1.21,4.35,2.46,1.08,1.25,1.62,2.79,1.62,4.64,0,2.04-.7,3.85-2.1,5.42-1.62,1.82-4.45,2.73-8.48,2.73Zm-6.3-17.47h3.11c1.82,0,3.17-.2,4.05-.59.88-.39,1.32-1.24,1.32-2.54s-.41-2.16-1.22-2.58-2.18-.63-4.12-.63h-3.15v6.34Zm0,11.93h4.49c1.88,0,3.28-.23,4.22-.69.94-.46,1.41-1.37,1.41-2.73s-.5-2.25-1.49-2.69c-.99-.43-2.58-.65-4.77-.65h-3.86v6.76Z"/>
        <path class="cls-2" d="m166.25,94.24c0,4.7-1.86,7.74-5.59,9.11l7.43,10.5h-8.06l-6.51-9.37h-4.54v9.37h-6.55v-29.36h11.13c4.56,0,7.82.77,9.76,2.31,1.95,1.54,2.92,4.02,2.92,7.43Zm-7.9,3.49c.81-.73,1.22-1.88,1.22-3.46s-.42-2.67-1.26-3.26c-.84-.59-2.31-.88-4.41-.88h-4.91v8.69h4.79c2.24,0,3.77-.36,4.58-1.09Z"/>
        <path class="cls-2" d="m172.97,84.5h6.55v29.36h-6.55v-29.36Z"/>
        <path class="cls-2" d="m186.75,113.86v-29.36h6.55v23.52h12.52v5.84h-19.07Z"/>
      </g>
      <path class="cls-1" d="m281.68,52.51v13.6h-52.08l-.1-11.2,24.87-24.25c1.95-1.91,3.54-3.82,4.78-5.74,1.23-1.91,1.85-3.55,1.85-4.9,0-1.79-.68-3.16-2.05-4.12-1.37-.96-3.28-1.43-5.75-1.43-2.73,0-5.77.73-9.12,2.17-3.35,1.45-6.58,3.47-9.7,6.06l-6.83-12.49c9.43-6.48,18.89-9.72,28.38-9.72,4.55,0,8.63.71,12.24,2.13,3.61,1.42,6.44,3.42,8.49,6.02,2.05,2.59,3.07,5.55,3.07,8.88s-1.15,6.77-3.46,10.32c-2.31,3.55-5.58,7.33-9.8,11.34l-13.95,13.33h29.16Z"/>
      <path class="cls-1" d="m332.78,37.06c3.22,3.19,4.84,7.27,4.84,12.25,0,4.23-1.1,7.98-3.29,11.26-2.19,3.28-5.29,5.83-9.3,7.66-4.01,1.83-8.7,2.74-14.09,2.74-4.82,0-9.56-.74-14.23-2.22-4.66-1.48-8.59-3.45-11.78-5.91l6.38-12.2c2.75,2.33,5.7,4.1,8.83,5.3,3.13,1.2,6.26,1.8,9.39,1.8,3.63,0,6.42-.71,8.36-2.13,1.94-1.42,2.91-3.45,2.91-6.1s-.97-4.67-2.91-6.05c-1.94-1.39-4.76-2.08-8.45-2.08h-11.08v-9.46l15.21-14.76h-25.17V3.9h46.02v10.03l-17.94,16.55,3.48.66c5.32.76,9.59,2.73,12.82,5.91Z"/>
      <path class="cls-2" d="m273.37,49.55v11.21h-40.71l-.08-9.22,19.44-19.97c1.52-1.57,2.77-3.15,3.73-4.73.96-1.57,1.45-2.92,1.45-4.04,0-1.47-.53-2.6-1.6-3.39-1.07-.79-2.57-1.18-4.5-1.18-2.13,0-4.51.6-7.13,1.79-2.62,1.19-5.15,2.86-7.59,4.99l-5.34-10.29c7.37-5.34,14.76-8,22.18-8,3.56,0,6.75.58,9.57,1.75,2.82,1.17,5.03,2.82,6.63,4.96,1.6,2.13,2.4,4.57,2.4,7.32s-.9,5.58-2.71,8.5c-1.8,2.92-4.36,6.04-7.66,9.34l-10.9,10.98h22.79Z"/>
      <path class="cls-2" d="m331.51,36.53c2.59,2.6,3.89,5.94,3.89,10.01,0,3.45-.88,6.52-2.64,9.2-1.76,2.68-4.26,4.77-7.48,6.26-3.22,1.5-7,2.24-11.33,2.24-3.88,0-7.69-.61-11.44-1.82-3.75-1.21-6.91-2.82-9.48-4.83l5.14-9.97c2.22,1.91,4.58,3.35,7.1,4.33,2.52.98,5.04,1.47,7.56,1.47,2.92,0,5.16-.58,6.72-1.74,1.56-1.16,2.34-2.82,2.34-4.99s-.78-3.81-2.34-4.95c-1.56-1.13-3.83-1.7-6.8-1.7h-8.91v-7.73l12.24-12.06h-20.25v-10.82h37.02v8.2l-14.43,13.53,2.8.54c4.28.62,7.72,2.23,10.31,4.83Z"/>
      <path class="cls-1" d="m36.97,77.86c4.14,2.05,7.36,4.92,9.66,8.61,2.3,3.69,3.45,7.94,3.45,12.72s-1.16,9.04-3.49,12.76c-2.33,3.72-5.61,6.6-9.84,8.64-4.24,2.05-9.1,3.07-14.58,3.07H.5v-48.87h22.18c5.39,0,10.15,1.02,14.29,3.07Zm-7.01,33.74c2.01-1.16,3.57-2.81,4.7-4.95,1.13-2.14,1.69-4.58,1.69-7.32s-.6-5.25-1.8-7.39c-1.2-2.14-2.85-3.8-4.96-4.98-2.11-1.19-4.51-1.78-7.2-1.78h-8.45v28.16h9.11c2.59,0,4.9-.58,6.9-1.74Z"/>
      <g>
        <path class="cls-2" d="m5.72,26.1h9.55l9.74,19.68,9.7-19.68h9.55v33.65h-7.78l-.05-21.31-8.59,17.95h-5.66l-8.64-17.95v21.31h-7.82V26.1Z"/>
        <path class="cls-2" d="m72.82,58.38l-2.65-4.6-11.96,1.85-1.18,5.19-7.42,1.15,7.59-29.5,7.42-1.15,15.88,25.86-7.69,1.19Zm-13.29-8.61l7.65-1.19-5.32-9.28-2.34,10.46Z"/>
        <path class="cls-2" d="m108.71,59.55l-5.23-9.13h-.19s-6.33.23-6.33.23l.33,9.31-8.78.32-1.21-33.63,15.11-.54c4.44-.16,7.93.75,10.45,2.72,2.52,1.97,3.85,4.83,3.98,8.57.09,2.53-.34,4.73-1.3,6.6-.96,1.88-2.39,3.36-4.31,4.45l7.4,10.73-9.93.36Zm-12-15.9l6.38-.23c1.79-.06,3.16-.56,4.1-1.49.94-.93,1.38-2.24,1.32-3.94s-.59-2.87-1.6-3.71c-1.01-.84-2.41-1.23-4.2-1.17l-6.38.23.37,10.31Z"/>
        <path class="cls-2" d="m122.85,30.47l23.85,2.12-.53,5.99-8.33-.74-1.94,21.82-7.26-.64,1.94-21.82-8.25-.73.53-5.99Z"/>
        <path class="cls-2" d="m152.84,25.54l26.52,1.12-.3,7-17.74-.75-.27,6.28,16.02.68-.29,6.95-16.02-.63-.27,6.33,18.22.77-.3,7-27-1.14,1.42-33.62Z"/>
        <path class="cls-2" d="m202.76,37.41c-1.76-.44-3.22-.61-4.38-.52-.92.07-1.63.29-2.13.67-.5.38-.73.89-.68,1.54s.32,1.12.81,1.51c.49.38,1.08.68,1.78.88.69.21,1.72.46,3.07.76,2.01.42,3.68.86,5.01,1.33,1.32.47,2.49,1.25,3.5,2.36s1.58,2.6,1.73,4.49-.23,3.54-1.13,4.95c-.9,1.41-2.19,2.52-3.88,3.33-1.69.81-3.6,1.29-5.73,1.46-2.35.18-4.72-.05-7.12-.7-2.4-.64-4.5-1.62-6.31-2.92l2.43-6.01c1.53,1.16,3.3,2.07,5.32,2.73,2.02.66,3.78.93,5.29.82,1.11-.08,1.96-.35,2.56-.81s.87-1.07.81-1.85c-.05-.65-.33-1.17-.83-1.56-.51-.4-1.13-.69-1.86-.9-.73-.2-1.76-.43-3.08-.68-1.98-.39-3.63-.81-4.94-1.27-1.31-.46-2.46-1.21-3.45-2.26-.99-1.05-1.56-2.51-1.7-4.37-.13-1.75.21-3.33,1.04-4.72.83-1.39,2.07-2.51,3.73-3.36,1.66-.85,3.62-1.36,5.89-1.53,2.05-.16,4.1-.02,6.14.41,2.04.43,3.86,1.07,5.44,1.93l-2.34,6.12c-1.58-.77-3.25-1.38-5-1.82Z"/>
      </g>
    </g>
  </g>
</svg>