<?xml version="1.0" encoding="UTF-8"?>
<svg id="Capa_2" data-name="Capa 2" xmlns="http://www.w3.org/2000/svg" viewBox="0 0 783.28 258.71">
  <defs>
    <style>
      .cls-1 {
        fill: #fff;
      }

      .cls-2 {
        fill: none;
        stroke: #fff;
        stroke-miterlimit: 10;
      }
    </style>
  </defs>
  <g id="Capa_1-2" data-name="Capa 1">
    <g>
      <g>
        <path class="cls-1" d="m91.52,222.74c2.75,2.4,4.12,5.79,4.12,10.18,0,4.61-1.38,8.19-4.12,10.73-2.75,2.55-6.63,3.82-11.65,3.82l-6.09.06v10.4h-11.51v-38.78h17.59c5.02,0,8.9,1.2,11.65,3.6Zm-8.19,14.5c.94-.92,1.41-2.25,1.41-3.98s-.47-3-1.41-3.9c-.94-.9-2.28-1.36-4.01-1.36h-5.53v10.62h5.53c1.73,0,3.07-.46,4.01-1.38Z"/>
        <path class="cls-1" d="m125.3,257.93l-2.27-6.2h-15.66l-2.32,6.2h-11.84l16.54-38.78h11.84l15.99,38.78h-12.28Zm-14.72-14.61h9.41l-4.65-12.67-4.76,12.67Z"/>
        <path class="cls-1" d="m163.14,257.93l-5.15-10.46h-6.09v10.46h-11.51v-38.78h18.09c5.2,0,9.23,1.2,12.09,3.6,2.86,2.4,4.29,5.79,4.29,10.18,0,2.84-.56,5.3-1.69,7.39-1.13,2.08-2.74,3.73-4.84,4.95l7.86,12.67h-13.06Zm-11.23-19.31h6.58c1.73,0,3.07-.46,4.01-1.38.94-.92,1.41-2.25,1.41-3.98s-.47-3-1.41-3.9c-.94-.9-2.28-1.36-4.01-1.36h-6.58v10.62Z"/>
        <path class="cls-1" d="m208.9,257.93l-2.27-6.2h-15.66l-2.32,6.2h-11.84l16.54-38.78h11.84l15.99,38.78h-12.28Zm-14.72-14.61h9.41l-4.65-12.67-4.76,12.67Z"/>
        <path class="cls-1" d="m235.67,219.15h31.7v8.85h-20.19v6.09h18.31v8.85h-18.31v6.14h20.75v8.85h-32.26v-38.78Z"/>
        <path class="cls-1" d="m294.54,228.55c-2.47-.85-4.5-1.27-6.09-1.27-1,0-1.78.19-2.35.58-.57.39-.86.95-.86,1.69,0,1.03.55,1.83,1.66,2.41s2.86,1.19,5.26,1.85c2.73.77,4.98,1.56,6.75,2.35,1.77.79,3.31,2,4.62,3.62,1.31,1.62,1.96,3.76,1.96,6.42s-.71,4.97-2.13,6.83c-1.42,1.86-3.34,3.26-5.75,4.18-2.42.92-5.12,1.38-8.11,1.38-3.32,0-6.65-.56-9.99-1.69-3.34-1.12-6.22-2.66-8.66-4.62l4.32-8.74c1.95,1.7,4.34,3.13,7.16,4.29,2.82,1.16,5.25,1.74,7.28,1.74,1.25,0,2.23-.24,2.93-.72.7-.48,1.05-1.16,1.05-2.05,0-1.07-.57-1.89-1.71-2.46-1.14-.57-2.92-1.17-5.31-1.8-2.69-.7-4.92-1.43-6.69-2.19s-3.3-1.93-4.59-3.51c-1.29-1.59-1.94-3.67-1.94-6.25s.66-4.69,1.99-6.56c1.33-1.86,3.2-3.29,5.62-4.29,2.41-1,5.23-1.49,8.44-1.49,2.91,0,5.81.41,8.69,1.24,2.88.83,5.39,1.93,7.52,3.29l-4.26,8.85c-2.07-1.22-4.33-2.25-6.81-3.1Z"/>
        <path class="cls-1" d="m306.77,219.15h34.08v9.18h-11.29v29.6h-11.56v-29.6h-11.23v-9.18Z"/>
        <path class="cls-1" d="m344.44,219.15h31.7v8.85h-20.19v6.09h18.31v8.85h-18.31v6.14h20.75v8.85h-32.26v-38.78Z"/>
        <path class="cls-1" d="m393.91,219.15h31.7v8.85h-20.19v6.09h18.31v8.85h-18.31v6.14h20.75v8.85h-32.26v-38.78Z"/>
        <path class="cls-1" d="m457.97,219.15h10.51v38.78h-9.79l-16.43-21.58v21.58h-10.57v-38.78h9.85l16.43,21.63v-21.63Z"/>
        <path class="cls-1" d="m498.72,229.41c-1.68-.94-3.31-1.41-4.9-1.41-1.73,0-3.3.44-4.7,1.33-1.4.88-2.51,2.11-3.32,3.68-.81,1.57-1.22,3.33-1.22,5.28s.41,3.72,1.22,5.28c.81,1.57,1.92,2.8,3.32,3.71,1.4.9,2.97,1.36,4.7,1.36,1.48,0,3.05-.41,4.73-1.22,1.68-.81,3.18-1.92,4.51-3.32l6.64,7.08c-2.1,2.29-4.64,4.11-7.61,5.48-2.97,1.36-5.91,2.05-8.83,2.05-3.87,0-7.37-.88-10.48-2.63s-5.56-4.18-7.33-7.28c-1.77-3.1-2.66-6.56-2.66-10.4s.9-7.16,2.71-10.21c1.81-3.04,4.3-5.43,7.47-7.16,3.17-1.73,6.73-2.6,10.68-2.6,2.91,0,5.83.63,8.74,1.88,2.91,1.25,5.35,2.93,7.3,5.03l-6.64,7.91c-1.22-1.62-2.67-2.9-4.34-3.85Z"/>
        <path class="cls-1" d="m525.97,247.14c1.25,1.33,2.82,1.99,4.7,1.99s3.36-.65,4.54-1.96c1.18-1.31,1.77-3.07,1.77-5.28v-22.74h11.51v22.74c0,3.39-.73,6.35-2.19,8.88-1.46,2.53-3.53,4.48-6.22,5.87-2.69,1.38-5.83,2.07-9.41,2.07s-6.79-.69-9.52-2.07c-2.73-1.38-4.84-3.34-6.33-5.87-1.49-2.53-2.24-5.49-2.24-8.88v-22.74h11.51v22.74c0,2.18.63,3.93,1.88,5.26Z"/>
        <path class="cls-1" d="m554.41,219.15h31.7v8.85h-20.19v6.09h18.31v8.85h-18.31v6.14h20.75v8.85h-32.26v-38.78Z"/>
        <path class="cls-1" d="m618.48,219.15h10.51v38.78h-9.79l-16.43-21.58v21.58h-10.57v-38.78h9.85l16.43,21.63v-21.63Z"/>
        <path class="cls-1" d="m632.58,219.15h34.08v9.18h-11.29v29.6h-11.56v-29.6h-11.23v-9.18Z"/>
        <path class="cls-1" d="m693,257.93l-5.15-10.46h-6.09v10.46h-11.51v-38.78h18.09c5.2,0,9.23,1.2,12.09,3.6,2.86,2.4,4.29,5.79,4.29,10.18,0,2.84-.56,5.3-1.69,7.39-1.13,2.08-2.74,3.73-4.84,4.95l7.86,12.67h-13.06Zm-11.23-19.31h6.58c1.73,0,3.07-.46,4.01-1.38.94-.92,1.41-2.25,1.41-3.98s-.47-3-1.41-3.9c-.94-.9-2.28-1.36-4.01-1.36h-6.58v10.62Z"/>
        <path class="cls-1" d="m740.11,221.03c3.23,1.73,5.75,4.12,7.58,7.16,1.83,3.04,2.74,6.46,2.74,10.26s-.91,7.29-2.74,10.37-4.35,5.5-7.58,7.25c-3.23,1.75-6.83,2.63-10.82,2.63s-7.64-.88-10.84-2.63-5.73-4.17-7.55-7.25-2.74-6.54-2.74-10.37.91-7.22,2.74-10.26c1.83-3.04,4.34-5.43,7.55-7.16,3.21-1.73,6.82-2.6,10.84-2.6s7.59.87,10.82,2.6Zm-15.38,8.35c-1.46.92-2.62,2.19-3.49,3.79-.87,1.61-1.3,3.38-1.3,5.34s.43,3.74,1.3,5.37c.87,1.62,2.03,2.9,3.49,3.85,1.46.94,3.03,1.41,4.73,1.41s3.2-.47,4.62-1.41,2.54-2.21,3.35-3.82c.81-1.6,1.22-3.4,1.22-5.39s-.41-3.73-1.22-5.34c-.81-1.6-1.92-2.87-3.32-3.79-1.4-.92-2.95-1.38-4.65-1.38s-3.27.46-4.73,1.38Z"/>
      </g>
      <g>
        <path class="cls-1" d="m89.79.72h31.58v8.82h-20.12v6.06h18.24v8.82h-18.24v6.12h20.67v8.82h-32.14V.72Z"/>
        <path class="cls-1" d="m125.01.72h13.34l6.39,10.09,6.45-10.09h13.5l-12.62,18.46,13.78,20.17h-13.78l-7.33-11.02-7.22,11.02h-13.39l13.67-19.68L125.01.72Z"/>
        <path class="cls-1" d="m198.24,4.3c2.74,2.39,4.11,5.77,4.11,10.14,0,4.59-1.37,8.16-4.11,10.69-2.74,2.54-6.61,3.8-11.6,3.8l-6.06.05v10.36h-11.47V.72h17.53c5,0,8.87,1.19,11.6,3.58Zm-8.16,14.44c.94-.92,1.4-2.24,1.4-3.97s-.47-2.99-1.4-3.89c-.94-.9-2.27-1.35-4-1.35h-5.51v10.58h5.51c1.73,0,3.06-.46,4-1.38Z"/>
        <path class="cls-1" d="m206.76.72h11.47v29.05h16.21v9.59h-27.67V.72Z"/>
        <path class="cls-1" d="m268.02,2.59c3.22,1.73,5.73,4.11,7.55,7.14,1.82,3.03,2.73,6.44,2.73,10.22s-.91,7.27-2.73,10.34c-1.82,3.07-4.34,5.48-7.55,7.22s-6.81,2.62-10.78,2.62-7.61-.87-10.8-2.62c-3.2-1.75-5.7-4.15-7.52-7.22-1.82-3.07-2.73-6.51-2.73-10.34s.91-7.19,2.73-10.22c1.82-3.03,4.33-5.41,7.52-7.14,3.2-1.73,6.8-2.59,10.8-2.59s7.56.86,10.78,2.59Zm-15.32,8.32c-1.45.92-2.61,2.18-3.47,3.78-.86,1.6-1.3,3.37-1.3,5.32s.43,3.73,1.3,5.35c.86,1.62,2.02,2.89,3.47,3.83,1.45.94,3.02,1.4,4.71,1.4s3.19-.47,4.6-1.4c1.42-.94,2.53-2.21,3.34-3.8.81-1.6,1.21-3.39,1.21-5.37s-.41-3.72-1.21-5.32c-.81-1.6-1.91-2.86-3.31-3.78-1.4-.92-2.94-1.38-4.63-1.38s-3.26.46-4.71,1.38Z"/>
        <path class="cls-1" d="m305.26,39.36l-5.13-10.42h-6.06v10.42h-11.47V.72h18.02c5.18,0,9.2,1.19,12.04,3.58,2.85,2.39,4.27,5.77,4.27,10.14,0,2.83-.56,5.28-1.68,7.36-1.12,2.08-2.73,3.72-4.82,4.93l7.83,12.62h-13.01Zm-11.19-19.24h6.56c1.73,0,3.06-.46,4-1.38.94-.92,1.41-2.24,1.41-3.97s-.47-2.99-1.41-3.89c-.94-.9-2.27-1.35-4-1.35h-6.56v10.58Z"/>
        <path class="cls-1" d="m350.84,39.36l-2.26-6.17h-15.6l-2.32,6.17h-11.8L335.35.72h11.8l15.93,38.64h-12.24Zm-14.66-14.55h9.37l-4.63-12.62-4.74,12.62Z"/>
        <path class="cls-1" d="m413.35.72l-13.89,26.4v12.24h-11.46v-12.02l-14.17-26.62h11.47l8.43,15.76,8.21-15.76h11.41Z"/>
        <path class="cls-1" d="m456.97,4.3c2.74,2.39,4.11,5.77,4.11,10.14,0,4.59-1.37,8.16-4.11,10.69-2.74,2.54-6.61,3.8-11.6,3.8l-6.06.05v10.36h-11.47V.72h17.53c5,0,8.87,1.19,11.6,3.58Zm-8.16,14.44c.94-.92,1.4-2.24,1.4-3.97s-.47-2.99-1.4-3.89c-.94-.9-2.27-1.35-4-1.35h-5.51v10.58h5.51c1.73,0,3.06-.46,4-1.38Z"/>
        <path class="cls-1" d="m488.15,39.36l-5.13-10.42h-6.06v10.42h-11.47V.72h18.02c5.18,0,9.2,1.19,12.04,3.58,2.85,2.39,4.27,5.77,4.27,10.14,0,2.83-.56,5.28-1.68,7.36-1.12,2.08-2.73,3.72-4.82,4.93l7.83,12.62h-13.01Zm-11.19-19.24h6.56c1.73,0,3.06-.46,4-1.38.94-.92,1.41-2.24,1.41-3.97s-.47-2.99-1.41-3.89c-.94-.9-2.27-1.35-4-1.35h-6.56v10.58Z"/>
        <path class="cls-1" d="m505.45.72h31.58v8.82h-20.12v6.06h18.24v8.82h-18.24v6.12h20.67v8.82h-32.14V.72Z"/>
        <path class="cls-1" d="m572.23,4.3c2.74,2.39,4.11,5.77,4.11,10.14,0,4.59-1.37,8.16-4.11,10.69-2.74,2.54-6.61,3.8-11.6,3.8l-6.06.05v10.36h-11.47V.72h17.53c5,0,8.87,1.19,11.6,3.58Zm-8.16,14.44c.94-.92,1.4-2.24,1.4-3.97s-.47-2.99-1.4-3.89c-.94-.9-2.27-1.35-4-1.35h-5.51v10.58h5.51c1.73,0,3.06-.46,4-1.38Z"/>
        <path class="cls-1" d="m605.88,39.36l-2.26-6.17h-15.6l-2.32,6.17h-11.8L590.4.72h11.8l15.93,38.64h-12.24Zm-14.66-14.55h9.37l-4.63-12.62-4.74,12.62Z"/>
        <path class="cls-1" d="m643.59,39.36l-5.13-10.42h-6.06v10.42h-11.47V.72h18.02c5.18,0,9.2,1.19,12.04,3.58,2.85,2.39,4.27,5.77,4.27,10.14,0,2.83-.56,5.28-1.68,7.36-1.12,2.08-2.73,3.72-4.82,4.93l7.83,12.62h-13.01Zm-11.19-19.24h6.56c1.73,0,3.06-.46,4-1.38.94-.92,1.41-2.24,1.41-3.97s-.47-2.99-1.41-3.89c-.94-.9-2.27-1.35-4-1.35h-6.56v10.58Z"/>
        <path class="cls-1" d="m689.17,39.36l-2.26-6.17h-15.6l-2.32,6.17h-11.8L673.68.72h11.8l15.93,38.64h-12.24Zm-14.66-14.55h9.37l-4.63-12.62-4.74,12.62Z"/>
      </g>
      <g>
        <path class="cls-1" d="m30.45,80h84.37v22.74h-27.94v73.27h-28.63v-73.27h-27.8v-22.74Z"/>
        <path class="cls-1" d="m155.45,155.7c3.3,1.94,6.84,2.35,10.62,1.25,3.71-1.08,6.36-3.28,7.97-6.61,1.61-3.32,1.76-7.21.46-11.66l-13.33-45.72,23.14-6.75,13.33,45.72c1.99,6.83,2.26,13.2.81,19.13-1.45,5.93-4.47,11.08-9.08,15.44-4.6,4.36-10.5,7.59-17.69,9.69-7.27,2.12-14.05,2.59-20.35,1.41-6.3-1.18-11.69-3.87-16.17-8.08s-7.72-9.71-9.71-16.54l-13.33-45.72,23.13-6.75,13.33,45.72c1.28,4.38,3.56,7.53,6.86,9.46Z"/>
        <path class="cls-1" d="m254.65,80h30.54l25.75,53.28,25.61-53.28h30.54v96.01h-25.07v-56.97l-21.91,47.53h-18.49l-21.91-47.53v56.97h-25.07v-96.01Z"/>
        <path class="cls-1" d="m395.1,81.58l69.07,17.3-4.83,19.29-44-11.02-3.32,13.26,39.9,9.99-4.83,19.29-39.9-9.99-3.35,13.38,45.2,11.32-4.83,19.29-70.28-17.6,21.17-84.5Z"/>
        <path class="cls-1" d="m541.87,80h26.02v96.01h-24.24l-40.68-53.42v53.42h-26.16v-96.01h24.38l40.68,53.55v-53.55Z"/>
        <path class="cls-1" d="m574.83,92.6l77.55-11.17,3.01,20.9-25.68,3.7,9.7,67.35-26.31,3.79-9.7-67.35-25.56,3.68-3.01-20.9Z"/>
        <path class="cls-1" d="m677.04,74.97l77.74,10.78-3.01,21.71-49.52-6.86-2.07,14.92,44.91,6.22-3.01,21.71-44.91-6.22-2.09,15.06,50.87,7.05-3.01,21.7-79.09-10.96,13.18-95.1Z"/>
        <path class="cls-2" d="m.5,61.8h142.7v32.41h-47.26v104.44h-48.42v-104.44H.5v-32.41Z"/>
        <path class="cls-2" d="m228.32,59.74h44.51l37.52,77.65,37.32-77.65h44.51v139.92h-36.53v-83.03l-31.94,69.26h-26.95l-31.94-69.26v83.03h-36.53V59.74Z"/>
        <path class="cls-2" d="m667.09,50.64l115.63,16.03-4.48,32.29-73.65-10.21-3.08,22.19,66.79,9.26-4.48,32.29-66.79-9.26-3.1,22.4,75.67,10.49-4.47,32.28-117.65-16.31,19.61-141.46Z"/>
        <path class="cls-2" d="m550.62,74.31h31.28v115.41h-29.14l-48.9-64.21v64.21h-31.45v-115.41h29.31l48.9,64.38v-64.38Z"/>
      </g>
    </g>
  </g>
</svg>