<?xml version="1.0" encoding="UTF-8"?>
<svg id="Capa_2" data-name="Capa 2" xmlns="http://www.w3.org/2000/svg" viewBox="0 0 268.24 99.6">
  <defs>
    <style>
      .cls-1 {
        fill: #26aae1;
      }

      .cls-2 {
        fill: #d41367;
      }

      .cls-3 {
        fill: #aace3d;
      }

      .cls-4 {
        fill: #27a9de;
      }

      .cls-5 {
        fill: #24265c;
      }

      .cls-6 {
        fill: #573c92;
      }
    </style>
  </defs>
  <g id="Capa_1-2" data-name="Capa 1">
    <g>
      <g>
        <path class="cls-5" d="m191.47,53.22c-.31,0-.63.21-.84.53-5.32,11.2-9.4,14.9-12.21,14.9-2.09,0-3.86-4.12-5.12-9.41,5.85-5.71,13.89-15.22,15.97-17.86.52-.74.84-1.48.84-2.11,0-1.8-1.78-2.85-3.03-2.85-.63,0-1.04.21-1.15.74-.84,1.37-8.46,11.1-13.57,17.12-.42-3.28-.73-6.55-.73-9.19,0-3.59.52-5.71,1.36-6.66.31-.11.42-.32.42-.53,0-.74-1.88-1.37-3.97-1.37-2.4,0-5.01.74-5.53,2.43-.42,1.06-.84,2.11-.94,4.97-1.46,3.8-2.82,6.98-4.18,9.83-.03.07-.04.15-.04.23-5.26,10.71-8.77,14.67-10.43,14.67-.94,0-1.25-1.16-1.25-2.96,0-6.55,5.64-21.14,8.46-23.99.21-.21.52-.42.52-.85,0-1.48-3.97-3.59-6.68-3.59-1.15,0-1.98.32-2.3,1.27-2.02,3.56-4.06,9.07-5.49,14.49-.27.04-.46.18-.71.51-4.18,8.67-10.54,15.43-14.09,18.28.1-.11.1-.32.21-.53,4.18-13.1,8.87-27.27,10.65-28.96,1.77-1.27-2.82-4.44-5.85-4.44-.94,0-1.77.32-2.09,1.27-.21.32-.42.63-.52,1.06-2.3-2.01-5.74-3.91-8.25-3.91-5.52,0-10.94,8.46-13.92,16.97-.18.07-.33.21-.52.47-5.22,10.89-8.98,14.9-10.65,14.9-.94,0-1.25-1.27-1.25-2.96,0-6.45,5.22-20.71,7.83-23.36,1.77-1.27-2.82-4.44-5.85-4.44-.94,0-1.77.32-2.09,1.27-.21.32-.42.63-.52,1.06-2.3-2.01-5.74-3.91-8.25-3.91-5.5,0-10.91,8.42-13.91,16.92-.04,0-.08,0-.12,0-.42,0-.63.21-.94.53-5.22,10.89-9.19,14.9-10.86,14.9-.73,0-1.15-1.06-1.15-2.54,0-6.34,5.74-21.35,8.66-24.1,1.88-1.37-3.13-5.07-6.68-5.07-.83,0-1.67.21-2.3.85-4.7,4.76-11.9,16.28-16.7,25.15,1.78-7.19,5.32-17.97,7.83-20.92,1.98-1.37-3.03-5.07-6.47-5.07-.84,0-1.67.21-2.3.85-4.8,4.86-12.21,17.44-16.91,26.42,1.36-7.72,5.85-20.08,8.46-22.83.1-.11.21-.32.21-.63,0-1.37-3.65-3.8-6.37-3.8-1.04,0-1.77.42-2.09,1.37-3.76,6.66-7.83,20.71-7.83,27.79,0,1.16.1,2.32.31,2.85.63,2.11,3.65,4.54,5.43,4.54.63,0,1.15-.32,1.25-1.06,2.09-5.6,11.8-21.24,16.39-27.05-3.13,8.35-6.58,18.6-6.58,22.62,0,.32,0,.74.1.95.31,2.11,3.76,4.54,5.74,4.54.83,0,1.46-.42,1.57-1.37,1.98-5.49,11.69-20.5,16.49-26.42-2.71,6.66-5.64,14.58-5.64,19.97,0,.63.1,1.59.21,2.01.52,3.59,5.01,5.81,7.73,5.81s6.39-3.42,10.18-9.57c-.02.35-.03.68-.03,1.01,0,1.37.21,2.75.42,3.59.94,2.54,5.01,4.97,7.52,4.97,3.45,0,6.89-4.65,9.81-10.46v1.06c0,1.59.21,3.28.42,4.23.84,2.75,4.8,5.18,7.41,5.18,2.97,0,6.23-3.11,9.65-8.56,0,0,0,0,0,0,0,1.37.21,2.85.42,3.59.94,2.43,5.01,4.97,7.52,4.97,3.65,0,7.1-4.54,10.02-10.46-.84,3.38-2.3,8.03-4.18,12.58-13.57,3.38-18.9,8.56-18.9,13.1,0,3.49,3.24,6.24,7.62,6.24,7.2,0,13.05-7.5,17.44-17.54,3.43-1.62,10.03-7.36,15.18-14.75-.07.81-.11,1.57-.11,2.28,0,1.27.1,2.64.31,3.38.83,2.96,5.22,5.18,7.73,5.18,3.86,0,8.98-6.55,14.3-17.86.02-.07.02-.14.02-.21l1.47-3.38c.52,3.49,1.36,6.97,2.3,10.04-4.07,4.86-10.23,11.41-11.17,12.47-.84.42-.21,1.37,1.15,1.37.63,0,1.46-.21,2.3-.74,1.88-1.27,6.06-5.71,9.19-9.3.52,1.06.94,1.9,1.46,2.54,1.78,2.54,7,5.07,9.4,5.07,4.7,0,10.65-6.66,15.66-17.86.21-.95-1.15-2.43-2.3-2.43Zm-101.07-4.76c-3.55,7.93-9.6,19.97-12.32,19.97-.83,0-1.25-1.06-1.25-2.54,0-6.76,7.1-24.1,13.15-24.1,1.15,0,1.98.53,2.71,1.06-.84,1.69-1.57,3.59-2.3,5.6Zm16.01,42.7c-1.25,0-1.88-.53-1.88-1.48,0-2.22,4.07-6.66,12.01-9.93-2.92,6.23-6.58,11.41-10.13,11.41Zm6.89-22.72c-.84,0-1.25-1.06-1.25-2.54,0-6.76,7.1-24.1,13.15-24.1,1.15,0,1.98.53,2.71,1.06-.84,1.69-1.57,3.59-2.3,5.6-3.55,7.93-9.6,19.97-12.32,19.97Z"/>
        <path class="cls-5" d="m21.54,0C13.24-.28,11.09,18.65,7.35,34.54c-3.74,15.89-9.84,41.76-6.25,41.15,2.99-.5,4.12-8.14,9.11-21.72,4.9-13.36,6.68-17.02,14.1-34.82C31.72,1.33,27.58.2,21.54,0Z"/>
      </g>
      <path class="cls-1" d="m92.49,94.02c2.91-1.67,11.8-4.22,15.9-4.85,17.03-2.65,34.23,3.73,56.34,8.54,21.13,4.6,34.51.16,39.29-6.84.46-.68-.4-1.46-1.02-.94-4.19,3.56-11.35,5.98-19.73,6.33-12.76.53-22.83-5.03-50.86-11.29-14.87-3.32-38.32,1-42.76,5.46-4.44,4.46-6.29,7.83-6.29,7.83l9.12-4.24Z"/>
      <path class="cls-5" d="m107.15,94.96c-4.38,0-7.62-2.75-7.62-6.24,0-4.54,5.32-9.72,18.9-13.1l-1.88,4.12c-7.93,3.28-12.01,7.72-12.01,9.93,0,.95.63,1.48,1.88,1.48"/>
      <path class="cls-4" d="m162.33,24.24c0,2.63-2.11,4.76-4.7,4.76s-4.7-2.13-4.7-4.76,2.11-4.76,4.7-4.76,4.7,2.13,4.7,4.76"/>
      <path class="cls-6" d="m240.3,49.84l25.02-25.33c-1.05-.5-2.26-.76-3.61-.67l-49.3,5.51c-1.06.07-2.09.36-3.04.8,2.54,1.31,6.15,3.21,10.95,5.97,6.94,3.99,14.73,8.94,19.98,13.72"/>
      <path class="cls-2" d="m267.58,28.09h0l-24.42,24.72c4.62,5.18,9.38,12.87,13.23,19.74,2.66,4.74,4.49,8.3,5.75,10.81.43-.94.58-1.96.78-3.01l5.3-48.71c.09-1.33-.16-2.52-.64-3.56"/>
      <path class="cls-3" d="m218.35,40.29c-6.02-3.46-10.46-5.57-12.14-6.41-.87,1.34-1.42,2.76-1.52,4.38l-1.58,44.92c-.09,1.33.17,2.53.65,3.56l33.27-33.68c-4.66-4.18-12.08-8.99-18.68-12.78"/>
      <path class="cls-4" d="m239.96,56.04l-33.27,33.68c1.03.48,2.2.74,3.51.65l44.38-1.59c1.66-.29,2.69-.77,4.31-1.58-.82-1.7-2.9-6.16-6.32-12.25-3.75-6.69-8.49-14.19-12.62-18.91"/>
    </g>
  </g>
</svg>