<?xml version="1.0" encoding="UTF-8"?>
<svg id="Capa_2" data-name="Capa 2" xmlns="http://www.w3.org/2000/svg" viewBox="0 0 524.9 94.98">
  <defs>
    <style>
      .cls-1 {
        fill: #fff;
      }
    </style>
  </defs>
  <g id="Capa_1-2" data-name="Capa 1">
    <g>
      <path class="cls-1" d="m195.39,28.62c2.18.8,3.87,1.95,5.07,3.44,1.19,1.49,1.79,3.25,1.79,5.26s-.61,3.84-1.82,5.37c-1.21,1.53-2.86,2.58-4.95,3.13,2.5.49,4.47,1.62,5.91,3.41,1.44,1.79,2.16,3.96,2.16,6.49,0,2.2-.62,4.13-1.85,5.79-1.23,1.66-2.99,2.93-5.26,3.81-2.28.88-4.95,1.32-8,1.32h-19.37V27.42h18.64c2.95,0,5.51.4,7.7,1.2Zm-4.9,13.38c.82-.69,1.23-1.65,1.23-2.88s-.41-2.12-1.23-2.77c-.82-.65-1.94-.96-3.36-.92h-7.84v7.61h7.84c1.42,0,2.54-.34,3.36-1.04Zm.9,15.59c1.04-.75,1.57-1.79,1.57-3.13,0-1.23-.52-2.21-1.57-2.94-1.04-.73-2.46-1.07-4.25-1.04h-7.84v8.23h7.84c1.79,0,3.21-.37,4.25-1.12Z"/>
      <path class="cls-1" d="m48.2,94.98c-9.03,0-17.31-2.12-24.61-6.29-7.3-4.17-13.12-9.95-17.3-17.17-4.17-7.22-6.29-15.41-6.29-24.36s2.16-16.97,6.42-24.11c4.26-7.13,10.19-12.82,17.62-16.91C31.48,2.07,39.9,0,49.1,0c6.77,0,13.55,1.43,20.15,4.25,6.59,2.82,12.27,6.72,16.88,11.58l.51.53-14.77,17.83-.64-.8c-2.84-3.58-6.26-6.48-10.17-8.6h0c-3.89-2.11-7.79-3.18-11.57-3.18-4.37,0-8.41,1.11-11.99,3.29-3.59,2.19-6.45,5.24-8.52,9.08-2.07,3.85-3.12,8.2-3.12,12.93s1.05,9.08,3.12,12.93c2.06,3.84,4.93,6.9,8.52,9.08,3.58,2.18,7.62,3.29,11.99,3.29,3.55,0,7.33-.93,11.23-2.75,3.92-1.84,7.48-4.38,10.57-7.55l.61-.62,14.9,16.01-.54.57c-4.94,5.2-10.9,9.4-17.7,12.48-6.82,3.08-13.67,4.64-20.36,4.64Zm.9-93.32c-8.91,0-17.07,2-24.25,5.95-7.17,3.95-12.89,9.43-17,16.3-4.11,6.87-6.19,14.7-6.19,23.26s2.04,16.56,6.07,23.53c4.02,6.96,9.64,12.53,16.68,16.56,7.05,4.03,15.05,6.07,23.79,6.07,6.45,0,13.07-1.51,19.67-4.5,6.36-2.88,11.95-6.76,16.64-11.55l-12.65-13.6c-3.08,3.03-6.59,5.48-10.44,7.28-4.12,1.93-8.14,2.91-11.94,2.91-4.68,0-9.01-1.19-12.85-3.53-3.84-2.34-6.91-5.61-9.12-9.71-2.2-4.09-3.32-8.71-3.32-13.72s1.12-9.62,3.32-13.71c2.2-4.1,5.27-7.37,9.12-9.71,3.85-2.34,8.17-3.53,12.85-3.53,4.07,0,8.23,1.14,12.37,3.38h0c3.82,2.07,7.19,4.84,10.04,8.24l12.53-15.13c-4.36-4.45-9.68-8.04-15.82-10.67-6.39-2.73-12.95-4.12-19.5-4.12Z"/>
      <path class="cls-1" d="m55.01,31.94c-2.61-1.41-5.19-2.12-7.74-2.12-2.94,0-5.61.74-8.03,2.2-2.41,1.47-4.31,3.49-5.7,6.07-1.39,2.58-2.08,5.45-2.08,8.61s.69,6.03,2.08,8.61c1.39,2.58,3.29,4.6,5.7,6.07,2.41,1.47,5.09,2.2,8.03,2.2,2.38,0,4.88-.61,7.49-1.83,2.61-1.22,4.93-2.88,6.99-4.99l8.9,9.56c-3.16,3.33-6.92,5.98-11.27,7.94-4.35,1.97-8.66,2.95-12.93,2.95-5.77,0-10.98-1.33-15.64-3.99-4.66-2.66-8.32-6.29-10.98-10.9-2.66-4.6-3.99-9.76-3.99-15.47s1.36-10.76,4.08-15.3c2.72-4.55,6.45-8.12,11.19-10.73,4.74-2.61,10.05-3.91,15.93-3.91,4.32,0,8.59.9,12.81,2.7,4.21,1.8,7.79,4.26,10.73,7.36l-8.82,10.65c-1.89-2.38-4.13-4.28-6.74-5.7Z"/>
      <path class="cls-1" d="m96.36,32.68c2.61,1.42,4.67,3.37,6.16,5.84,1.49,2.48,2.24,5.25,2.24,8.33s-.75,5.92-2.24,8.43c-1.49,2.51-3.55,4.48-6.16,5.93-2.61,1.45-5.53,2.17-8.76,2.17s-6.15-.72-8.76-2.15c-2.61-1.43-4.67-3.41-6.16-5.93-1.49-2.52-2.24-5.34-2.24-8.45s.75-5.86,2.24-8.33c1.49-2.48,3.55-4.42,6.16-5.84,2.61-1.42,5.53-2.13,8.76-2.13s6.15.71,8.76,2.13Zm-13.05,6.12c-1.34.82-2.41,1.94-3.19,3.37-.79,1.43-1.18,3.01-1.18,4.73s.4,3.35,1.2,4.78c.8,1.43,1.86,2.57,3.19,3.4,1.33.83,2.78,1.25,4.35,1.25s3.01-.41,4.33-1.25c1.31-.83,2.35-1.96,3.1-3.4.75-1.43,1.13-3.03,1.13-4.78s-.38-3.3-1.13-4.73c-.76-1.43-1.79-2.56-3.1-3.37-1.31-.82-2.76-1.22-4.33-1.22s-3.03.41-4.37,1.22Z"/>
      <path class="cls-1" d="m379.14,32.68c2.61,1.42,4.67,3.37,6.16,5.84,1.49,2.48,2.24,5.25,2.24,8.33s-.75,5.92-2.24,8.43c-1.49,2.51-3.55,4.48-6.16,5.93-2.61,1.45-5.53,2.17-8.76,2.17s-6.15-.72-8.76-2.15c-2.61-1.43-4.67-3.41-6.16-5.93-1.49-2.52-2.24-5.34-2.24-8.45s.75-5.86,2.24-8.33c1.49-2.48,3.55-4.42,6.16-5.84,2.61-1.42,5.53-2.13,8.76-2.13s6.15.71,8.76,2.13Zm-13.05,6.12c-1.34.82-2.41,1.94-3.19,3.37-.79,1.43-1.18,3.01-1.18,4.73s.4,3.35,1.2,4.78c.8,1.43,1.86,2.57,3.19,3.4,1.33.83,2.78,1.25,4.35,1.25s3.01-.41,4.33-1.25c1.31-.83,2.35-1.96,3.1-3.4.75-1.43,1.13-3.03,1.13-4.78s-.38-3.3-1.13-4.73c-.76-1.43-1.79-2.56-3.1-3.37-1.31-.82-2.76-1.22-4.33-1.22s-3.03.41-4.37,1.22Z"/>
      <path class="cls-1" d="m484.05,32.68c2.61,1.42,4.67,3.37,6.16,5.84,1.49,2.48,2.24,5.25,2.24,8.33s-.75,5.92-2.24,8.43c-1.49,2.51-3.55,4.48-6.16,5.93-2.61,1.45-5.53,2.17-8.76,2.17s-6.15-.72-8.76-2.15c-2.61-1.43-4.67-3.41-6.16-5.93-1.49-2.52-2.24-5.34-2.24-8.45s.75-5.86,2.24-8.33c1.49-2.48,3.55-4.42,6.16-5.84,2.61-1.42,5.53-2.13,8.76-2.13s6.15.71,8.76,2.13Zm-13.05,6.12c-1.34.82-2.41,1.94-3.19,3.37-.79,1.43-1.18,3.01-1.18,4.73s.4,3.35,1.2,4.78c.8,1.43,1.86,2.57,3.19,3.4,1.33.83,2.78,1.25,4.35,1.25s3.01-.41,4.33-1.25c1.31-.83,2.35-1.96,3.1-3.4.75-1.43,1.13-3.03,1.13-4.78s-.38-3.3-1.13-4.73c-.76-1.43-1.79-2.56-3.1-3.37-1.31-.82-2.76-1.22-4.33-1.22s-3.03.41-4.37,1.22Z"/>
      <path class="cls-1" d="m110.12,18.1h14.81v44.11h24.04v12.63h-38.85V18.1Z"/>
      <path class="cls-1" d="m157,57.68l-2.31-5.97h-14.58l-2.36,5.97h-9.05l14.48-33.73h9.05l14.14,33.73h-9.38Zm-14.24-12.7h9.33l-4.62-12.03-4.72,12.03Z"/>
      <path class="cls-1" d="m287.96,66.05l-5.53-10.53h-7.38v10.53h-9.93V28.01s17.09,0,17.09,0c5.03,0,8.93,1.17,11.69,3.5,2.77,2.33,4.15,5.62,4.15,9.85,0,2.86-.58,5.33-1.74,7.41-1.16,2.08-2.84,3.7-5.05,4.86l7.92,12.43h-11.23Zm-12.92-18.45h7.22c2.03,0,3.59-.51,4.69-1.52,1.1-1.01,1.65-2.48,1.65-4.4,0-1.85-.55-3.26-1.65-4.26-1.1-.99-2.67-1.49-4.69-1.49h-7.22v11.67Z"/>
      <path class="cls-1" d="m413.78,66.05l-5.53-10.53h-7.38v10.53h-9.93V28.01h17.09c5.03,0,8.93,1.17,11.69,3.5,2.77,2.33,4.15,5.62,4.15,9.85,0,2.86-.58,5.33-1.74,7.41-1.16,2.08-2.84,3.7-5.05,4.86l7.92,12.43h-11.23Zm-12.92-18.45h7.22c2.03,0,3.59-.51,4.69-1.52,1.1-1.01,1.65-2.48,1.65-4.4,0-1.85-.55-3.26-1.65-4.26-1.1-.99-2.67-1.49-4.69-1.49h-7.22v11.67Z"/>
      <path class="cls-1" d="m325.61,62.93l-2.19-5.64h-13.79l-2.23,5.64h-8.56l13.7-31.91h8.56l13.38,31.91h-8.88Zm-13.47-12.02h8.83l-4.37-11.38-4.46,11.38Z"/>
      <path class="cls-1" d="m322.32,18.01h41.59v10.45h-14.53v49.06h-12.67V28.46h-14.4v-10.45Z"/>
      <path class="cls-1" d="m475.28,94.98c-9.28,0-17.79-2.09-25.31-6.22-7.52-4.13-13.51-9.9-17.82-17.17-4.3-7.26-6.49-15.48-6.49-24.43s2.18-16.98,6.49-24.11c4.31-7.13,10.3-12.82,17.82-16.91,7.51-4.08,16.02-6.15,25.3-6.15s17.79,2.07,25.31,6.15h0c7.52,4.09,13.51,9.78,17.82,16.91,4.31,7.14,6.49,15.25,6.49,24.11s-2.18,17.15-6.49,24.37c-4.3,7.22-10.3,12.99-17.82,17.16-7.51,4.17-16.03,6.28-25.31,6.28Zm0-93.32c-9,0-17.24,2-24.51,5.95-7.25,3.94-13.04,9.43-17.19,16.31-4.15,6.87-6.25,14.7-6.25,23.25s2.1,16.58,6.26,23.58c4.15,7,9.94,12.57,17.19,16.56,7.26,3.99,15.51,6.01,24.51,6.01s17.24-2.04,24.51-6.07c7.26-4.03,13.04-9.6,17.19-16.56,4.15-6.96,6.25-14.87,6.25-23.52s-2.1-16.38-6.25-23.25c-4.15-6.87-9.94-12.36-17.19-16.3-7.27-3.95-15.52-5.95-24.51-5.95Zm.26,73.24c-4.6,0-8.91-1.23-12.8-3.67-3.88-2.42-7.03-5.77-9.36-9.95-2.33-4.18-3.52-8.88-3.52-13.98s1.16-9.67,3.45-13.85c2.29-4.19,5.45-7.52,9.37-9.9,3.93-2.39,8.25-3.6,12.85-3.6s8.88,1.21,12.73,3.6c3.84,2.38,6.91,5.72,9.11,9.91,2.2,4.18,3.31,8.83,3.31,13.84s-1.12,9.79-3.31,13.97c-2.2,4.19-5.27,7.54-9.11,9.97-3.85,2.43-8.13,3.67-12.74,3.67Zm0-53.29c-4.29,0-8.32,1.13-11.99,3.36h0c-3.67,2.23-6.62,5.35-8.78,9.28-2.15,3.93-3.24,8.32-3.24,13.05s1.11,9.25,3.31,13.18c2.19,3.93,5.15,7.08,8.79,9.35,3.62,2.26,7.63,3.41,11.92,3.41s8.27-1.15,11.85-3.41c3.59-2.27,6.46-5.41,8.53-9.34,2.07-3.94,3.12-8.38,3.12-13.19s-1.05-9.13-3.12-13.06c-2.07-3.93-4.93-7.05-8.52-9.27-3.58-2.22-7.57-3.35-11.86-3.35Z"/>
      <path class="cls-1" d="m449.09,19.02l-15.32-1.07c-1.09-.08-2.04.75-2.11,1.84v.04c-.08,1.05.68,1.95,1.71,2.09l-.21,3.03h0s-3.76,54-3.76,54c-.3,4.26,2.91,7.95,7.17,8.24h.16c4.26.31,7.95-2.9,8.24-7.16l3.76-54,.21-3.03c1.04,0,1.91-.79,1.99-1.83v-.04c.08-1.09-.74-2.04-1.83-2.11Zm-5.98,29.55c-.04.64-.6,1.12-1.23,1.07-.64-.04-1.12-.6-1.07-1.23.04-.64.6-1.12,1.23-1.07.64.04,1.12.6,1.07,1.23Zm-1.14-8.95c.63.04,1.11.59,1.06,1.22-.04.63-.59,1.11-1.22,1.06-.63-.04-1.11-.59-1.06-1.22.04-.63.59-1.11,1.22-1.06Zm-3.31-14.09c.63.04,1.11.59,1.06,1.22-.04.63-.59,1.11-1.22,1.06-.63-.04-1.11-.59-1.06-1.22.04-.63.59-1.11,1.22-1.06Zm.14,5.8c1.21.08,2.12,1.13,2.04,2.34-.08,1.21-1.13,2.12-2.34,2.04-1.21-.08-2.12-1.13-2.04-2.34.08-1.21,1.13-2.12,2.34-2.04Zm-.93,14.76c-1.02-.07-1.78-.95-1.71-1.97.07-1.02.95-1.78,1.97-1.71s1.78.95,1.71,1.97c-.07,1.02-.95,1.78-1.97,1.71Zm1.25,5.05c-.05.78-.73,1.37-1.51,1.31-.78-.05-1.37-.73-1.31-1.51s.73-1.37,1.51-1.31c.78.05,1.37.73,1.31,1.51Zm-1.91-13.51c.63.04,1.11.59,1.06,1.22-.04.63-.59,1.11-1.22,1.06-.63-.04-1.11-.59-1.06-1.22.04-.63.59-1.11,1.22-1.06Zm-.72,22.29c.78.05,1.37.73,1.31,1.51-.05.78-.73,1.37-1.51,1.31-.78-.05-1.37-.73-1.31-1.51s.73-1.37,1.51-1.31Zm-4.34,16.94s0,0,0,0c0,.05.01.1.02.15,0-.05-.01-.1-.02-.15Zm.08.66s0,0,0,0c.02.11.05.2.08.3-.03-.1-.05-.2-.08-.31Zm.87,1.85s.07.06.1.1c0,0,0,0,0,0-.03-.03-.07-.06-.1-.1Zm2.69-3.25c-1.02-.07-1.78-.95-1.71-1.97.07-1.02.95-1.78,1.97-1.71,1.02.07,1.78.95,1.71,1.97-.07,1.02-.95,1.78-1.97,1.71Zm.97-6.83c.06-.87.82-1.53,1.69-1.47.87.06,1.53.82,1.47,1.69-.06.87-.82,1.53-1.69,1.47-.87-.06-1.53-.82-1.47-1.69Zm2.56,9.01c-.64-.04-1.12-.6-1.07-1.23.04-.64.6-1.12,1.23-1.07.64.04,1.12.6,1.07,1.23-.04.64-.6,1.12-1.23,1.07Zm.82-11.82c-.63-.04-1.11-.59-1.06-1.22.04-.63.59-1.11,1.22-1.06.63.04,1.11.59,1.06,1.22-.04.63-.59,1.11-1.22,1.06Zm.46-6.58c-1.21-.08-2.12-1.13-2.04-2.34.08-1.21,1.13-2.12,2.34-2.04,1.21.08,2.12,1.13,2.04,2.34-.08,1.21-1.13,2.12-2.34,2.04Z"/>
      <g>
        <path class="cls-1" d="m274.8,32.38c-1.54-4.4-9.41-4.73-15.73-4.23-3.48.27-7.46.88-11.84,1.8.25-4.47.25-8.5,0-11.98-.47-6.33-1.99-14.06-6.56-14.91-4.95-.94-10.76,7.19-15.62,21.77-3.2-2.28-6.24-4.22-9.04-5.76-8.13-4.48-13.78-5.42-16.32-2.73-2.55,2.69-1.3,8.27,3.6,16.15,1.95,3.13,4.44,6.54,7.41,10.15-14.78,7.29-22.55,14.59-20.81,19.57.7,1.99,2.78,3.32,6.19,3.96,1.56.29,3.38.44,5.43.44h.03c4.36,0,9.85-.68,15.9-1.96-.92,15.89,1.54,25.92,6.6,26.87.26.05.52.07.78.07,4.74,0,10.28-8.15,14.84-21.84,7.59,5.43,14.3,8.89,18.95,9.76,2.92.55,5.09.12,6.42-1.27,3.2-3.37-.1-10.53-3.43-15.93-1.97-3.2-4.52-6.69-7.58-10.4,4.32-2.13,8.07-4.29,11.17-6.4,5.25-3.57,11.18-8.75,9.63-13.14Zm-22.38,17.66c-1.97-2.29-4.17-4.69-6.55-7.13.54-3.67.94-7.19,1.19-10.47,8.97-1.95,16.59-2.56,21.16-1.7,2.42.46,3.92,1.3,4.31,2.43,1.02,2.89-4.85,9.4-20.12,16.86Zm-11.85,7.7c-.68,2.82-1.43,5.55-2.22,8.14-2.05-1.55-4.18-3.27-6.36-5.13,1.53-.49,3.05-1,4.53-1.52,1.28-.45,2.61-.94,4.04-1.48Zm-16.45-20.89c.67-2.75,1.41-5.46,2.21-8.09,2.14,1.62,4.28,3.33,6.36,5.1-1.69.54-3.15,1.03-4.54,1.52-1.33.47-2.69.96-4.03,1.47Zm-2.78,14c.29-1.88.6-3.66.93-5.44.33-1.76.71-3.58,1.19-5.73,2.05-.8,3.8-1.45,5.48-2.05,1.87-.66,3.84-1.31,5.86-1.93,1.71,1.5,3.21,2.87,4.58,4.16,1.22,1.16,2.48,2.39,3.94,3.87-.32,2.07-.61,3.8-.92,5.46-.35,1.87-.75,3.8-1.18,5.74-1.88.73-3.68,1.4-5.49,2.04-1.91.67-3.88,1.32-5.86,1.94-1.74-1.53-3.2-2.86-4.58-4.17-1.22-1.15-2.48-2.39-3.95-3.89Zm19.69-12.72c-1.06-1.01-2.22-2.07-3.53-3.24,2.4-.7,4.79-1.33,7.11-1.89-.2,2.49-.49,5.09-.85,7.77-.92-.91-1.84-1.8-2.73-2.65Zm-17.38,18.35c1.1,1.04,2.26,2.1,3.53,3.24-2.42.71-4.82,1.35-7.13,1.9.21-2.51.49-5.13.86-7.8.93.92,1.85,1.81,2.74,2.66Zm20.26-2.62c.31-1.45.59-2.84.85-4.22.23-1.21.45-2.47.66-3.74,1.67,1.75,3.27,3.51,4.76,5.23-2,.93-4.11,1.85-6.27,2.74Zm.88-23.36c-2.98.69-6.14,1.54-9.4,2.53-2.77-2.4-5.56-4.65-8.29-6.68,1.28-3.9,2.62-7.38,4-10.34,3.15-6.75,6.33-10.62,8.74-10.62.13,0,.26.01.38.03,2.41.45,4.15,5.38,4.65,13.17.22,3.48.2,7.48-.08,11.9Zm-24.02,10.26c-.3,1.4-.58,2.81-.84,4.21-.23,1.22-.45,2.48-.66,3.74-1.67-1.75-3.26-3.5-4.74-5.22,2-.93,4.1-1.85,6.25-2.73Zm.63-2.85c-2.92,1.16-5.78,2.4-8.49,3.67-3.06-3.68-5.62-7.16-7.6-10.35-4.02-6.46-5.52-11.53-3.9-13.24.47-.5,1.27-.75,2.37-.75.54,0,1.16.06,1.82.19,2.44.46,5.64,1.75,9.25,3.74,2.89,1.59,6.06,3.63,9.42,6.06-1.05,3.37-2.01,6.95-2.87,10.67Zm-1.53,26.21c3.02-.7,6.19-1.55,9.43-2.53,2.78,2.4,5.57,4.65,8.3,6.69-4.73,14.46-9.82,20.93-12.77,20.93h0c-.12,0-.25-.01-.36-.03-2.94-.55-5.62-8.63-4.59-25.06Zm31.92-11.12c7.9,9.49,14.35,20.58,11.48,23.61-1.99,2.11-9.99.11-22.86-9.23,1.05-3.36,2.01-6.96,2.88-10.71,3.02-1.2,5.88-2.44,8.51-3.68Zm-50.58-2.19c3.09-2.06,6.81-4.16,11.06-6.24,1.95,2.27,4.14,4.66,6.51,7.1-.54,3.62-.94,7.15-1.2,10.51-16.08,3.49-24.46,2.07-25.46-.75-.81-2.31,2.58-6.28,9.08-10.61Z"/>
        <circle class="cls-1" cx="232.08" cy="46.99" r="7.53" transform="translate(14.68 140.82) rotate(-34.79)"/>
        <path class="cls-1" d="m256.33,76.63c-.46,2.45-2.82,4.07-5.28,3.61-2.45-.46-4.07-2.82-3.61-5.28.46-2.45,2.82-4.07,5.28-3.61,2.45.46,4.07,2.82,3.61,5.28Z"/>
        <path class="cls-1" d="m215.63,15.76c-2.45-.46-4.82,1.15-5.28,3.61-.46,2.45,1.15,4.82,3.61,5.28,2.45.46,4.82-1.15,5.28-3.61.46-2.45-1.15-4.82-3.61-5.28Z"/>
      </g>
    </g>
  </g>
</svg>