<?xml version="1.0" encoding="UTF-8"?>
<svg id="Capa_2" data-name="Capa 2" xmlns="http://www.w3.org/2000/svg" viewBox="0 0 100.49 37.31">
  <defs>
    <style>
      .cls-1 {
        fill: #fff;
      }
    </style>
  </defs>
  <g id="Capa_1-2" data-name="Capa 1">
    <g>
      <g>
        <path class="cls-1" d="m71.73,19.94c-.12,0-.23.08-.31.2-1.99,4.2-3.52,5.58-4.58,5.58-.78,0-1.45-1.54-1.92-3.52,2.19-2.14,5.2-5.7,5.98-6.69.2-.28.31-.55.31-.79,0-.67-.67-1.07-1.13-1.07-.23,0-.39.08-.43.28-.31.51-3.17,4.16-5.08,6.41-.16-1.23-.27-2.45-.27-3.44,0-1.35.2-2.14.51-2.49.12-.04.16-.12.16-.2,0-.28-.7-.51-1.49-.51-.9,0-1.88.28-2.07.91-.16.4-.31.79-.35,1.86-.55,1.43-1.06,2.61-1.56,3.68-.01.03-.01.06-.01.09-1.97,4.01-3.29,5.5-3.91,5.5-.35,0-.47-.44-.47-1.11,0-2.45,2.11-7.92,3.17-8.99.08-.08.2-.16.2-.32,0-.55-1.49-1.35-2.5-1.35-.43,0-.74.12-.86.48-.76,1.33-1.52,3.4-2.06,5.43-.1.02-.17.07-.27.19-1.56,3.25-3.95,5.78-5.28,6.85.04-.04.04-.12.08-.2,1.56-4.91,3.32-10.21,3.99-10.85.66-.48-1.06-1.66-2.19-1.66-.35,0-.66.12-.78.48-.08.12-.16.24-.2.4-.86-.75-2.15-1.47-3.09-1.47-2.07,0-4.1,3.17-5.22,6.36-.07.03-.13.08-.2.17-1.96,4.08-3.36,5.58-3.99,5.58-.35,0-.47-.47-.47-1.11,0-2.42,1.96-7.76,2.93-8.75.66-.48-1.06-1.66-2.19-1.66-.35,0-.66.12-.78.48-.08.12-.16.24-.2.4-.86-.75-2.15-1.46-3.09-1.46-2.06,0-4.09,3.16-5.21,6.34-.01,0-.03,0-.04,0-.16,0-.23.08-.35.2-1.96,4.08-3.44,5.58-4.07,5.58-.27,0-.43-.4-.43-.95,0-2.38,2.15-8,3.25-9.03.7-.51-1.17-1.9-2.5-1.9-.31,0-.63.08-.86.32-1.76,1.78-4.46,6.1-6.26,9.42.67-2.69,1.99-6.73,2.93-7.84.74-.51-1.13-1.9-2.42-1.9-.31,0-.63.08-.86.32-1.8,1.82-4.58,6.53-6.34,9.9.51-2.89,2.19-7.52,3.17-8.55.04-.04.08-.12.08-.24,0-.51-1.37-1.43-2.39-1.43-.39,0-.66.16-.78.51-1.41,2.49-2.93,7.76-2.93,10.41,0,.44.04.87.12,1.07.23.79,1.37,1.7,2.03,1.7.23,0,.43-.12.47-.4.78-2.1,4.42-7.96,6.14-10.14-1.17,3.13-2.46,6.97-2.46,8.47,0,.12,0,.28.04.36.12.79,1.41,1.7,2.15,1.7.31,0,.55-.16.59-.51.74-2.06,4.38-7.68,6.18-9.9-1.02,2.49-2.11,5.46-2.11,7.48,0,.24.04.59.08.75.2,1.35,1.88,2.18,2.89,2.18s2.4-1.28,3.82-3.58c0,.13-.01.26-.01.38,0,.51.08,1.03.16,1.35.35.95,1.88,1.86,2.82,1.86,1.29,0,2.58-1.74,3.68-3.92v.4c0,.59.08,1.23.16,1.58.31,1.03,1.8,1.94,2.78,1.94,1.11,0,2.33-1.16,3.61-3.21,0,0,0,0,0,0,0,.51.08,1.07.16,1.35.35.91,1.88,1.86,2.82,1.86,1.37,0,2.66-1.7,3.75-3.92-.31,1.27-.86,3.01-1.56,4.71-5.08,1.27-7.08,3.21-7.08,4.91,0,1.31,1.21,2.34,2.86,2.34,2.7,0,4.89-2.81,6.53-6.57,1.28-.61,3.76-2.76,5.69-5.52-.03.3-.04.59-.04.85,0,.48.04.99.12,1.27.31,1.11,1.96,1.94,2.89,1.94,1.45,0,3.36-2.45,5.36-6.69,0-.03,0-.05,0-.08l.55-1.27c.2,1.31.51,2.61.86,3.76-1.53,1.82-3.83,4.28-4.18,4.67-.31.16-.08.51.43.51.23,0,.55-.08.86-.28.7-.47,2.27-2.14,3.44-3.48.2.4.35.71.55.95.67.95,2.62,1.9,3.52,1.9,1.76,0,3.99-2.49,5.87-6.69.08-.36-.43-.91-.86-.91Zm-37.86-1.78c-1.33,2.97-3.6,7.48-4.62,7.48-.31,0-.47-.4-.47-.95,0-2.53,2.66-9.03,4.93-9.03.43,0,.74.2,1.02.4-.31.63-.59,1.35-.86,2.1Zm6,16c-.47,0-.7-.2-.7-.55,0-.83,1.53-2.49,4.5-3.72-1.1,2.34-2.46,4.28-3.79,4.28Zm2.58-8.51c-.31,0-.47-.4-.47-.95,0-2.53,2.66-9.03,4.93-9.03.43,0,.74.2,1.02.4-.31.63-.59,1.35-.86,2.1-1.33,2.97-3.6,7.48-4.62,7.48Z"/>
        <path class="cls-1" d="m8.07,0c-3.11-.1-3.91,6.99-5.32,12.94C1.35,18.89-.94,28.58.41,28.36c1.12-.19,1.54-3.05,3.41-8.14,1.84-5,2.5-6.37,5.28-13.05C11.88.5,10.33.08,8.07,0Z"/>
      </g>
      <path class="cls-1" d="m34.65,35.23c1.09-.63,4.42-1.58,5.96-1.82,6.38-.99,12.82,1.4,21.11,3.2,7.92,1.72,12.93.06,14.72-2.56.17-.25-.15-.55-.38-.35-1.57,1.33-4.25,2.24-7.39,2.37-4.78.2-8.55-1.88-19.05-4.23-5.57-1.24-14.35.37-16.02,2.05-1.66,1.67-2.36,2.93-2.36,2.93l3.42-1.59Z"/>
      <path class="cls-1" d="m40.14,35.58c-1.64,0-2.86-1.03-2.86-2.34,0-1.7,1.99-3.64,7.08-4.91l-.7,1.54c-2.97,1.23-4.5,2.89-4.5,3.72,0,.36.23.55.7.55"/>
      <path class="cls-1" d="m60.82,9.08c0,.99-.79,1.78-1.76,1.78s-1.76-.8-1.76-1.78.79-1.78,1.76-1.78,1.76.8,1.76,1.78"/>
      <path class="cls-1" d="m90.02,18.67l9.37-9.49c-.39-.19-.85-.29-1.35-.25l-18.47,2.06c-.4.03-.78.13-1.14.3.95.49,2.31,1.2,4.1,2.24,2.6,1.49,5.52,3.35,7.48,5.14"/>
      <path class="cls-1" d="m100.24,10.52h0l-9.15,9.26c1.73,1.94,3.51,4.82,4.96,7.39,1,1.77,1.68,3.11,2.16,4.05.16-.35.22-.73.29-1.13l1.99-18.25c.03-.5-.06-.94-.24-1.33"/>
      <path class="cls-1" d="m81.8,15.1c-2.25-1.29-3.92-2.09-4.55-2.4-.33.5-.53,1.04-.57,1.64l-.59,16.83c-.03.5.06.95.24,1.33l12.46-12.62c-1.75-1.57-4.52-3.37-7-4.79"/>
      <path class="cls-1" d="m89.9,21l-12.46,12.62c.38.18.82.28,1.32.24l16.63-.6c.62-.11,1.01-.29,1.62-.59-.31-.64-1.09-2.31-2.37-4.59-1.4-2.51-3.18-5.32-4.73-7.08"/>
    </g>
  </g>
</svg>