<?xml version="1.0" encoding="UTF-8"?>
<svg id="Capa_2" data-name="Capa 2" xmlns="http://www.w3.org/2000/svg" viewBox="0 0 578.55 117.43">
  <defs>
    <style>
      .cls-1 {
        fill: #fff;
      }

      .cls-2 {
        fill: #fcfcfc;
      }
    </style>
  </defs>
  <g id="Capa_1-2" data-name="Capa 1">
    <g>
      <path class="cls-2" d="m20.83,93.38c2.6,2.38,3.9,5.69,3.9,9.93s-1.27,7.59-3.8,10.06c-2.54,2.47-6.4,3.71-11.6,3.71H0v-27.26h9.63c4.86,0,8.59,1.19,11.19,3.57Zm-4.46,16.2c1.49-1.4,2.24-3.44,2.24-6.12s-.75-4.74-2.24-6.18c-1.5-1.44-3.79-2.16-6.88-2.16h-3.39v16.58h3.86c2.78,0,4.92-.7,6.42-2.11Z"/>
      <path class="cls-2" d="m49.65,89.81v5.42h-13.57v5.62h12.21v5.19h-12.21v5.66h14v5.38h-20.09v-27.26h19.66Z"/>
      <path class="cls-2" d="m65.79,117.07v-27.26h6.08v21.84h11.62v5.42h-17.71Z"/>
      <path class="cls-2" d="m107.37,117.07l-2.54-5.89h-11.43l-2.54,5.89h-6.47l11.78-27.26h5.89l11.78,27.26h-6.47Zm-8.23-19.15l-3.43,7.92h6.83l-3.39-7.92Z"/>
      <path class="cls-2" d="m151.55,85.62v6.25h-15.66v6.48h14.08v5.99h-14.08v6.52h16.16v6.21h-23.17v-31.46h22.68Z"/>
      <path class="cls-2" d="m175.98,85.62h8.46l-9.81,15.17,10.62,16.29h-8.55l-6.71-10.35-6.66,10.35h-8.46l10.58-16.11-9.86-15.35h8.42l5.99,9.31,5.98-9.31Z"/>
      <path class="cls-2" d="m211.24,88.43c2.21,1.88,3.31,4.76,3.31,8.64s-1.13,6.73-3.4,8.53c-2.27,1.8-5.72,2.7-10.37,2.7h-4.19v8.77h-7.02v-31.46h11.12c4.83,0,8.35.94,10.55,2.81Zm-5.15,12.38c.84-.94,1.26-2.32,1.26-4.14s-.55-3.1-1.64-3.87c-1.1-.77-2.8-1.15-5.11-1.15h-4v10.57h4.73c2.34,0,3.93-.47,4.77-1.42Z"/>
      <path class="cls-2" d="m242.72,85.62v6.25h-15.66v6.48h14.08v5.99h-14.08v6.52h16.16v6.21h-23.17v-31.46h22.68Z"/>
      <path class="cls-2" d="m274.98,96.06c0,5.04-2,8.3-5.98,9.77l7.96,11.25h-8.64l-6.97-10.04h-4.86v10.04h-7.02v-31.46h11.92c4.89,0,8.38.83,10.46,2.48,2.08,1.65,3.13,4.31,3.13,7.96Zm-8.46,3.74c.87-.78,1.31-2.02,1.31-3.71s-.45-2.86-1.35-3.49c-.9-.63-2.47-.94-4.72-.94h-5.27v9.31h5.13c2.4,0,4.04-.39,4.91-1.17Z"/>
      <path class="cls-2" d="m282.18,85.62h7.02v31.46h-7.02v-31.46Z"/>
      <path class="cls-2" d="m325.11,97.27l-8.5,17.19h-4.19l-8.46-17.19v19.8h-7.02v-31.46h9.5l8.1,17.28,8.15-17.28h9.45v31.46h-7.02v-19.8Z"/>
      <path class="cls-2" d="m362.55,85.62v6.25h-15.66v6.48h14.08v5.99h-14.08v6.52h16.16v6.21h-23.17v-31.46h22.68Z"/>
      <path class="cls-2" d="m391.3,85.62h7.02v31.46h-7.02l-14.99-19.71v19.71h-7.02v-31.46h6.57l15.43,20.25v-20.25Z"/>
      <path class="cls-2" d="m419.38,91.69v25.38h-7.02v-25.38h-8.91v-6.08h24.84v6.08h-8.91Z"/>
      <path class="cls-2" d="m453.54,117.07l-2.92-6.79h-13.19l-2.92,6.79h-7.47l13.59-31.46h6.79l13.59,31.46h-7.47Zm-9.5-22.1l-3.96,9.14h7.88l-3.92-9.14Z"/>
      <path class="cls-2" d="m479.1,110.86c3.45,0,6.27-1.36,8.46-4.1l4.5,4.64c-3.57,4.02-7.78,6.03-12.62,6.03s-8.83-1.53-11.97-4.59c-3.14-3.06-4.7-6.92-4.7-11.59s1.6-8.56,4.79-11.68c3.2-3.12,7.1-4.68,11.72-4.68,5.16,0,9.48,1.96,12.96,5.9l-4.37,4.95c-2.22-2.76-4.98-4.14-8.28-4.14-2.64,0-4.9.86-6.77,2.59s-2.81,4.05-2.81,6.97.88,5.27,2.66,7.04c1.77,1.77,3.92,2.66,6.44,2.66Z"/>
      <path class="cls-2" d="m497.59,85.62h7.02v31.46h-7.02v-31.46Z"/>
      <path class="cls-2" d="m538.81,112.73c-3.18,3.1-7.1,4.66-11.75,4.66s-8.57-1.55-11.75-4.66-4.77-6.97-4.77-11.59,1.59-8.48,4.77-11.59,7.09-4.66,11.75-4.66,8.56,1.55,11.75,4.66c3.18,3.1,4.77,6.97,4.77,11.59s-1.59,8.48-4.77,11.59Zm-2.38-11.57c0-2.8-.9-5.2-2.7-7.18s-4.01-2.97-6.64-2.97-4.84.99-6.64,2.97-2.7,4.37-2.7,7.18.9,5.19,2.7,7.16c1.8,1.97,4.01,2.95,6.64,2.95s4.84-.98,6.64-2.95c1.8-1.96,2.7-4.35,2.7-7.16Zm-6.12-18.79h-6.44l5.72-7.97,6.97,2.93-6.25,5.04Z"/>
      <path class="cls-2" d="m571.53,85.62h7.02v31.46h-7.02l-14.99-19.71v19.71h-7.02v-31.46h6.57l15.43,20.25v-20.25Z"/>
    </g>
    <g>
      <path class="cls-2" d="m76.57,25.69h8.72v25.96h14.15v7.43h-22.86V25.69Z"/>
      <path class="cls-2" d="m127.37,22.24c2.8,1.52,5,3.61,6.6,6.26,1.6,2.65,2.4,5.63,2.4,8.93s-.8,6.34-2.4,9.02c-1.6,2.68-3.8,4.8-6.6,6.35-2.8,1.55-5.93,2.33-9.39,2.33s-6.59-.77-9.39-2.3c-2.8-1.54-5-3.65-6.6-6.35-1.6-2.7-2.4-5.72-2.4-9.05s.8-6.27,2.4-8.93c1.6-2.65,3.8-4.74,6.6-6.26,2.8-1.52,5.93-2.28,9.39-2.28s6.59.76,9.39,2.28Zm-13.97,6.55c-1.44.87-2.58,2.08-3.42,3.61-.84,1.54-1.26,3.23-1.26,5.07s.43,3.58,1.29,5.12c.86,1.54,2,2.75,3.42,3.64,1.42.89,2.98,1.33,4.66,1.33s3.23-.44,4.63-1.33c1.41-.89,2.51-2.1,3.32-3.64.81-1.54,1.21-3.24,1.21-5.12s-.41-3.53-1.21-5.07c-.81-1.54-1.92-2.74-3.32-3.61-1.41-.87-2.95-1.31-4.63-1.31s-3.24.44-4.68,1.31Z"/>
      <path class="cls-2" d="m156.58,34.7c-1.87-.62-3.45-.93-4.71-.93-1,0-1.79.18-2.37.55-.58.37-.86.91-.86,1.62s.25,1.25.75,1.7c.5.46,1.12.83,1.86,1.11.74.28,1.83.64,3.28,1.08,2.15.62,3.93,1.24,5.34,1.86,1.4.62,2.6,1.57,3.61,2.86,1,1.28,1.51,2.96,1.51,5.03s-.55,3.83-1.64,5.29c-1.09,1.46-2.59,2.56-4.49,3.3-1.9.74-4.02,1.11-6.35,1.11-2.57,0-5.13-.45-7.68-1.35s-4.76-2.13-6.62-3.7l3.14-6.33c1.56,1.39,3.42,2.52,5.56,3.41s4.04,1.33,5.69,1.33c1.21,0,2.16-.22,2.86-.66.69-.44,1.04-1.09,1.04-1.95,0-.71-.26-1.3-.77-1.77-.52-.47-1.17-.85-1.95-1.13s-1.88-.61-3.3-1c-2.13-.59-3.88-1.19-5.27-1.79-1.39-.6-2.58-1.52-3.56-2.74-.99-1.22-1.48-2.86-1.48-4.89,0-1.92.51-3.6,1.53-5.05,1.02-1.45,2.46-2.56,4.34-3.34,1.87-.78,4.05-1.17,6.53-1.17,2.24,0,4.46.32,6.64.95,2.18.64,4.1,1.48,5.76,2.55l-3.05,6.46c-1.65-.97-3.42-1.77-5.29-2.39Z"/>
      <path class="cls-2" d="m222.72,15.33c3.33,1.81,5.96,4.3,7.87,7.46,1.91,3.16,2.86,6.71,2.86,10.64s-.95,7.56-2.86,10.76c-1.91,3.2-4.53,5.73-7.87,7.58-3.33,1.85-7.07,2.78-11.19,2.78s-7.86-.92-11.19-2.75c-3.34-1.83-5.96-4.36-7.87-7.58-1.91-3.22-2.86-6.81-2.86-10.79s.95-7.48,2.86-10.64c1.91-3.16,4.53-5.65,7.87-7.46,3.33-1.81,7.06-2.72,11.19-2.72s7.86.91,11.19,2.72Zm-16.66,7.81c-1.72,1.04-3.08,2.48-4.08,4.31-1,1.83-1.5,3.85-1.5,6.04s.51,4.27,1.53,6.1c1.02,1.83,2.38,3.28,4.08,4.34,1.7,1.06,3.55,1.59,5.55,1.59s3.85-.53,5.52-1.59c1.68-1.06,3-2.51,3.96-4.34.96-1.83,1.45-3.86,1.45-6.1s-.48-4.21-1.45-6.04c-.96-1.83-2.28-3.27-3.96-4.31-1.68-1.04-3.52-1.56-5.52-1.56s-3.87.52-5.58,1.56Z"/>
      <path class="cls-2" d="m260.41,25.59c1.72.63,3.06,1.54,4,2.72.94,1.18,1.41,2.56,1.41,4.15s-.48,3.03-1.44,4.24c-.96,1.21-2.26,2.03-3.91,2.47,1.97.38,3.53,1.28,4.66,2.7,1.13,1.41,1.7,3.12,1.7,5.13,0,1.74-.49,3.26-1.46,4.57-.97,1.31-2.36,2.31-4.15,3-1.8.69-3.9,1.04-6.32,1.04h-15.29v-30.97h14.71c2.33,0,4.35.32,6.08.95Zm-3.87,10.56c.65-.54.97-1.3.97-2.28s-.33-1.67-.97-2.19c-.65-.52-1.53-.76-2.65-.73h-6.19v6.01h6.19c1.12,0,2-.27,2.65-.82Zm.71,12.31c.82-.59,1.24-1.41,1.24-2.47,0-.97-.41-1.75-1.24-2.32-.83-.57-1.94-.85-3.36-.82h-6.19v6.5h6.19c1.41,0,2.53-.29,3.36-.88Z"/>
      <path class="cls-2" d="m294.48,47.72c-2.39,2.22-5.66,3.33-9.79,3.33-5.37,0-9.84-2.02-13.38-6.07l4.61-6.71c1.35,1.36,2.74,2.41,4.17,3.14,1.43.73,2.72,1.1,3.89,1.1,1.24,0,2.22-.38,2.93-1.13.71-.75,1.07-1.83,1.07-3.22v-17.08h-13.16v-8.11h23.25v25.41c0,4.01-1.2,7.13-3.59,9.35Z"/>
      <path class="cls-2" d="m307.59,22.14h25.46v6.72h-17.04v6.03h15.38v6.68l-15.38.05v6.08h17.5v6.72h-25.93V22.14Z"/>
      <path class="cls-2" d="m339.29,12.01h31.22v7.84h-10.91v28.57h-9.51v-28.57h-10.8v-7.84Z"/>
      <path class="cls-2" d="m391.15,15.38h9.62l8.55,24.77,8.6-24.77h9.18l-13.39,34.25h-9.28l-13.29-34.25Z"/>
      <path class="cls-2" d="m455.5,25.3c2.84,1.54,5.08,3.66,6.7,6.36,1.63,2.69,2.44,5.72,2.44,9.07s-.81,6.44-2.44,9.17c-1.63,2.73-3.86,4.88-6.7,6.45-2.84,1.58-6.02,2.37-9.53,2.37s-6.69-.78-9.53-2.34c-2.84-1.56-5.08-3.71-6.7-6.45-1.63-2.74-2.44-5.81-2.44-9.19s.81-6.37,2.44-9.07c1.63-2.69,3.86-4.81,6.7-6.36,2.84-1.54,6.02-2.32,9.53-2.32s6.69.77,9.53,2.32Zm-14.19,6.65c-1.46.89-2.62,2.11-3.47,3.67-.85,1.56-1.28,3.28-1.28,5.15s.44,3.64,1.31,5.2c.87,1.56,2.03,2.79,3.47,3.7,1.45.9,3.02,1.36,4.73,1.36s3.28-.45,4.71-1.36c1.43-.9,2.55-2.13,3.38-3.7.82-1.56,1.23-3.29,1.23-5.2s-.41-3.59-1.23-5.15c-.82-1.56-1.95-2.78-3.38-3.67-1.43-.89-3-1.33-4.71-1.33s-3.29.44-4.76,1.33Z"/>
      <path class="cls-2" d="m491.01,27.29c-2.16-.71-3.97-1.07-5.43-1.07-1.16,0-2.07.21-2.73.64-.66.43-1,1.05-1,1.86s.29,1.44.87,1.97c.58.53,1.29.95,2.14,1.28.85.32,2.11.74,3.78,1.25,2.48.71,4.53,1.43,6.15,2.14,1.62.71,3,1.81,4.16,3.29,1.16,1.48,1.73,3.41,1.73,5.79s-.63,4.41-1.89,6.1c-1.26,1.68-2.99,2.95-5.18,3.8-2.2.85-4.64,1.28-7.32,1.28-2.96,0-5.91-.52-8.86-1.56s-5.49-2.46-7.63-4.26l3.62-7.3c1.8,1.6,3.94,2.91,6.41,3.93,2.47,1.02,4.65,1.53,6.56,1.53,1.39,0,2.49-.26,3.29-.77.8-.51,1.2-1.26,1.2-2.25,0-.82-.3-1.5-.89-2.04-.6-.54-1.34-.98-2.25-1.3s-2.17-.71-3.8-1.15c-2.45-.68-4.48-1.37-6.07-2.07-1.6-.7-2.97-1.75-4.11-3.16s-1.71-3.29-1.71-5.64c0-2.21.59-4.15,1.76-5.82,1.17-1.67,2.84-2.95,5-3.85,2.16-.9,4.67-1.35,7.53-1.35,2.59,0,5.14.37,7.66,1.1,2.52.73,4.73,1.71,6.63,2.93l-3.52,7.45c-1.91-1.12-3.94-2.04-6.1-2.76Z"/>
      <path class="cls-1" d="m211.8,67.24c-6.57,0-12.6-1.48-17.91-4.4-5.32-2.92-9.57-7.01-12.61-12.15-3.05-5.14-4.59-10.96-4.59-17.29s1.55-12.02,4.6-17.07c3.05-5.05,7.29-9.08,12.61-11.97,5.32-2.89,11.34-4.35,17.91-4.35s12.6,1.46,17.91,4.35h0c5.32,2.89,9.57,6.92,12.61,11.97,3.05,5.05,4.6,10.8,4.6,17.07s-1.55,12.14-4.59,17.25c-3.05,5.11-7.29,9.2-12.61,12.15-5.32,2.95-11.35,4.45-17.92,4.45Zm0-66.06c-6.37,0-12.21,1.42-17.35,4.21-5.14,2.79-9.23,6.68-12.17,11.54-2.94,4.87-4.43,10.4-4.43,16.46s1.49,11.74,4.43,16.7c2.94,4.96,7.03,8.9,12.17,11.72,5.14,2.82,10.98,4.26,17.35,4.26s12.21-1.45,17.35-4.3c5.14-2.85,9.23-6.8,12.17-11.72,2.94-4.93,4.43-10.53,4.43-16.65s-1.49-11.6-4.43-16.46c-2.94-4.87-7.03-8.75-12.17-11.54-5.15-2.79-10.98-4.21-17.35-4.21Zm.18,51.85c-3.26,0-6.3-.87-9.06-2.59-2.75-1.72-4.98-4.09-6.63-7.05-1.65-2.96-2.49-6.29-2.49-9.9s.82-6.84,2.44-9.8c1.62-2.97,3.86-5.32,6.63-7.01,2.78-1.69,5.84-2.55,9.1-2.55s6.29.86,9.01,2.55c2.72,1.69,4.89,4.05,6.45,7.01,1.56,2.96,2.35,6.25,2.35,9.8s-.79,6.93-2.35,9.89c-1.56,2.96-3.73,5.34-6.45,7.06-2.72,1.72-5.76,2.6-9.02,2.6Zm0-37.72c-3.04,0-5.89.8-8.49,2.38h0c-2.6,1.58-4.69,3.79-6.21,6.57-1.52,2.78-2.3,5.89-2.3,9.24s.79,6.55,2.34,9.33c1.55,2.78,3.65,5.01,6.22,6.62,2.56,1.6,5.4,2.42,8.44,2.42s5.86-.81,8.39-2.41c2.54-1.61,4.57-3.83,6.04-6.61,1.47-2.79,2.21-5.93,2.21-9.34s-.74-6.46-2.21-9.25c-1.46-2.78-3.49-4.99-6.03-6.56-2.53-1.57-5.36-2.37-8.39-2.37Z"/>
      <path class="cls-1" d="m386.14,18.37l-9.69-.67c-.69-.05-1.29.47-1.34,1.16v.03c-.05.66.43,1.24,1.08,1.32l-.13,1.92h0s-2.38,34.14-2.38,34.14c-.19,2.69,1.84,5.03,4.53,5.21h.1c2.69.19,5.03-1.84,5.21-4.53l2.38-34.14.13-1.92c.65,0,1.21-.5,1.26-1.16v-.03c.05-.69-.47-1.29-1.16-1.34Zm-3.78,18.68c-.03.4-.38.71-.78.68-.4-.03-.71-.38-.68-.78.03-.4.38-.71.78-.68.4.03.71.38.68.78Zm-.72-5.66c.4.03.7.37.67.77-.03.4-.37.7-.77.67-.4-.03-.7-.37-.67-.77.03-.4.37-.7.77-.67Zm-2.09-8.91c.4.03.7.37.67.77-.03.4-.37.7-.77.67-.4-.03-.7-.37-.67-.77.03-.4.37-.7.77-.67Zm.09,3.66c.76.05,1.34.72,1.29,1.48-.05.76-.72,1.34-1.48,1.29-.76-.05-1.34-.72-1.29-1.48.05-.76.72-1.34,1.48-1.29Zm-.59,9.34c-.64-.04-1.13-.6-1.08-1.25.04-.64.6-1.13,1.25-1.08s1.13.6,1.08,1.25c-.04.64-.6,1.13-1.25,1.08Zm.79,3.19c-.03.49-.46.86-.95.83s-.86-.46-.83-.95.46-.86.95-.83c.49.03.86.46.83.95Zm-1.21-8.54c.4.03.7.37.67.77-.03.4-.37.7-.77.67-.4-.03-.7-.37-.67-.77.03-.4.37-.7.77-.67Zm-.45,14.09c.49.03.86.46.83.95-.03.49-.46.86-.95.83-.49-.03-.86-.46-.83-.95s.46-.86.95-.83Zm-2.74,10.71s0,0,0,0c0,.03,0,.06,0,.09,0-.03,0-.06,0-.09Zm.05.42s0,0,0,0c.01.07.03.13.05.19-.02-.06-.03-.13-.05-.19Zm.55,1.17s.04.04.06.06c0,0,0,0,0,0-.02-.02-.04-.04-.06-.06Zm1.7-2.06c-.64-.04-1.13-.6-1.08-1.25s.6-1.13,1.25-1.08c.64.04,1.13.6,1.08,1.25-.04.64-.6,1.13-1.25,1.08Zm.61-4.32c.04-.55.52-.97,1.07-.93.55.04.97.52.93,1.07-.04.55-.52.97-1.07.93-.55-.04-.97-.52-.93-1.07Zm1.62,5.7c-.4-.03-.71-.38-.68-.78s.38-.71.78-.68c.4.03.71.38.68.78-.03.4-.38.71-.78.68Zm.52-7.48c-.4-.03-.7-.37-.67-.77.03-.4.37-.7.77-.67.4.03.7.37.67.77-.03.4-.37.7-.77.67Zm.29-4.16c-.76-.05-1.34-.72-1.29-1.48.05-.76.72-1.34,1.48-1.29.76.05,1.34.72,1.29,1.48-.05.76-.72,1.34-1.48,1.29Z"/>
    </g>
  </g>
</svg>