<?xml version="1.0" encoding="UTF-8"?>
<svg id="Capa_2" data-name="Capa 2" xmlns="http://www.w3.org/2000/svg" viewBox="0 0 55.31 60.74">
  <defs>
    <style>
      .cls-1 {
        fill: none;
        stroke: #fdfdfd;
        stroke-miterlimit: 10;
      }

      .cls-2 {
        fill: #fcfcfc;
      }
    </style>
  </defs>
  <g id="Capa_1-2" data-name="Capa 1">
    <path class="cls-2" d="m38.25,44.25l-.76,8.49-30.85-2.76.57-7,16.08-13.82c1.26-1.09,2.31-2.2,3.15-3.33.84-1.13,1.3-2.12,1.37-2.96.1-1.12-.23-2.01-.98-2.68-.76-.67-1.87-1.07-3.33-1.2-1.62-.14-3.46.15-5.52.87-2.07.73-4.09,1.82-6.09,3.27l-3.35-8.16c5.94-3.54,11.73-5.07,17.35-4.56,2.7.24,5.07.9,7.13,1.98,2.06,1.08,3.62,2.48,4.69,4.2,1.07,1.73,1.51,3.63,1.32,5.71s-1.06,4.17-2.63,6.26c-1.57,2.09-3.71,4.28-6.44,6.56l-9,7.58,17.27,1.54Z"/>
    <path class="cls-1" d="m54.81,47.86v12.39H2.73l-.1-10.2,24.87-22.08c1.95-1.74,3.54-3.48,4.78-5.22,1.23-1.74,1.85-3.23,1.85-4.47,0-1.63-.68-2.88-2.05-3.75-1.37-.87-3.28-1.31-5.75-1.31-2.73,0-5.77.66-9.12,1.98-3.35,1.32-6.58,3.16-9.7,5.52L.68,9.35C10.11,3.45,19.57.5,29.06.5c4.55,0,8.63.65,12.24,1.94,3.61,1.29,6.44,3.12,8.49,5.48,2.05,2.36,3.07,5.06,3.07,8.09s-1.15,6.17-3.46,9.4c-2.31,3.23-5.58,6.67-9.8,10.32l-13.95,12.13h29.16Z"/>
  </g>
</svg>