<?xml version="1.0" encoding="UTF-8"?>
<svg id="Capa_2" data-name="Capa 2" xmlns="http://www.w3.org/2000/svg" viewBox="0 0 48.43 60.77">
  <defs>
    <style>
      .cls-1 {
        fill: none;
        stroke: #fdfdfd;
        stroke-miterlimit: 10;
      }

      .cls-2 {
        fill: #fcfcfc;
      }
    </style>
  </defs>
  <g id="Capa_1-2" data-name="Capa 1">
    <g>
      <path class="cls-1" d="m43.59,30.05c2.89,2.84,4.34,6.48,4.34,10.92,0,3.77-.98,7.11-2.95,10.03-1.97,2.92-4.75,5.2-8.35,6.83-3.6,1.63-7.81,2.44-12.64,2.44-4.33,0-8.59-.66-12.77-1.98-4.19-1.32-7.71-3.08-10.58-5.27l5.73-10.87c2.47,2.08,5.11,3.65,7.92,4.72,2.81,1.07,5.62,1.6,8.43,1.6,3.26,0,5.76-.63,7.5-1.9,1.74-1.26,2.61-3.08,2.61-5.44s-.87-4.16-2.61-5.39c-1.74-1.24-4.27-1.85-7.59-1.85h-9.95v-8.43l13.66-13.15H3.76V.5h41.31v8.94l-16.1,14.75,3.12.59c4.78.67,8.61,2.43,11.51,5.27Z"/>
      <path class="cls-2" d="m39.38,28.41c1.99,1.95,2.99,4.46,2.99,7.51,0,2.59-.68,4.89-2.03,6.9-1.35,2.01-3.27,3.58-5.74,4.7-2.47,1.12-5.38,1.68-8.7,1.68-2.98,0-5.91-.45-8.79-1.36-2.88-.91-5.31-2.12-7.28-3.62l3.94-7.48c1.7,1.43,3.52,2.51,5.45,3.25,1.93.73,3.87,1.1,5.8,1.1,2.24,0,3.96-.44,5.16-1.31,1.2-.87,1.8-2.12,1.8-3.74s-.6-2.86-1.8-3.71c-1.2-.85-2.94-1.28-5.22-1.28h-6.84v-5.8l9.4-9.05h-15.54v-8.12h28.42v6.15l-11.08,10.15,2.15.41c3.29.46,5.92,1.67,7.92,3.62Z"/>
    </g>
  </g>
</svg>