<?xml version="1.0" encoding="UTF-8"?>
<svg id="Capa_2" data-name="Capa 2" xmlns="http://www.w3.org/2000/svg" viewBox="0 0 548.68 133.46">
  <defs>
    <style>
      .cls-1 {
        fill: none;
        stroke: #fdfdfd;
        stroke-miterlimit: 10;
      }

      .cls-2 {
        fill: #fcfcfc;
      }
    </style>
  </defs>
  <g id="Capa_1-2" data-name="Capa 1">
    <g>
      <g>
        <path class="cls-2" d="m27.23.48h8.05v23.99h13.07v6.87h-21.13V.48Z"/>
        <path class="cls-2" d="m74.81,31.34l-2.11-5.46h-13.34l-2.16,5.46h-8.27L62.18.48h8.27l12.94,30.85h-8.58Zm-13.03-11.62h8.54l-4.23-11-4.31,11Z"/>
        <path class="cls-2" d="m114.68,7.95c-1.38-.75-2.74-1.12-4.09-1.12-1.56,0-2.97.39-4.25,1.17-1.28.78-2.28,1.85-3.02,3.21-.73,1.36-1.1,2.88-1.1,4.56s.37,3.19,1.1,4.56c.73,1.36,1.74,2.44,3.02,3.21,1.28.78,2.69,1.17,4.25,1.17,1.26,0,2.58-.32,3.96-.97,1.38-.64,2.61-1.53,3.7-2.64l4.71,5.06c-1.67,1.76-3.66,3.16-5.96,4.2-2.3,1.04-4.58,1.56-6.84,1.56-3.05,0-5.81-.7-8.27-2.11-2.46-1.41-4.4-3.33-5.81-5.77-1.41-2.44-2.11-5.16-2.11-8.19s.72-5.69,2.16-8.1c1.44-2.41,3.41-4.3,5.92-5.68,2.51-1.38,5.32-2.07,8.43-2.07,2.29,0,4.55.48,6.78,1.43,2.23.95,4.12,2.25,5.68,3.9l-4.67,5.63c-1-1.26-2.19-2.27-3.57-3.01Z"/>
        <path class="cls-2" d="m126.39.48h8.05v30.85h-8.05V.48Z"/>
        <path class="cls-2" d="m140.43.48h24.34v6.43h-16.29v5.77h14.7v6.38l-14.7.04v5.81h16.73v6.43h-24.78V.48Z"/>
        <path class="cls-2" d="m191.22.48h7.48v30.85h-7.04l-14-18.44v18.44h-7.53V.48h7.09l14.04,18.57-.04-18.57Z"/>
        <path class="cls-2" d="m223.49,7.95c-1.38-.75-2.74-1.12-4.09-1.12-1.56,0-2.97.39-4.25,1.17-1.28.78-2.28,1.85-3.02,3.21-.73,1.36-1.1,2.88-1.1,4.56s.37,3.19,1.1,4.56c.73,1.36,1.74,2.44,3.02,3.21,1.28.78,2.69,1.17,4.25,1.17,1.26,0,2.58-.32,3.96-.97,1.38-.64,2.61-1.53,3.7-2.64l4.71,5.06c-1.67,1.76-3.66,3.16-5.96,4.2-2.3,1.04-4.58,1.56-6.84,1.56-3.05,0-5.81-.7-8.27-2.11-2.46-1.41-4.4-3.33-5.81-5.77-1.41-2.44-2.11-5.16-2.11-8.19s.72-5.69,2.16-8.1c1.44-2.41,3.41-4.3,5.92-5.68,2.51-1.38,5.32-2.07,8.43-2.07,2.29,0,4.55.48,6.78,1.43,2.23.95,4.12,2.25,5.68,3.9l-4.67,5.63c-1-1.26-2.19-2.27-3.57-3.01Z"/>
        <path class="cls-2" d="m235.19.48h8.05v30.85h-8.05V.48Z"/>
        <path class="cls-2" d="m271.9,31.34l-2.11-5.46h-13.34l-2.16,5.46h-8.27L259.27.48h8.27l12.94,30.85h-8.58Zm-13.03-11.62h8.54l-4.23-11-4.31,11Z"/>
        <path class="cls-2" d="m314.88,2.42c2.48,1.29,4.41,3.1,5.79,5.44,1.38,2.33,2.07,5.01,2.07,8.03s-.7,5.71-2.09,8.05c-1.39,2.35-3.36,4.17-5.9,5.46-2.54,1.29-5.45,1.94-8.74,1.94h-12.98V.48h13.29c3.23,0,6.08.65,8.56,1.94Zm-4.2,21.3c1.2-.73,2.14-1.77,2.82-3.13.67-1.35,1.01-2.89,1.01-4.62s-.36-3.32-1.08-4.67c-.72-1.35-1.71-2.4-2.97-3.15-1.26-.75-2.7-1.12-4.31-1.12h-5.06v17.78h5.46c1.56,0,2.93-.37,4.14-1.1Z"/>
        <path class="cls-2" d="m326.74.48h24.34v6.43h-16.29v5.77h14.7v6.38l-14.7.04v5.81h16.73v6.43h-24.78V.48Z"/>
        <path class="cls-2" d="m366.22.48h8.05v23.99h13.07v6.87h-21.13V.48Z"/>
        <path class="cls-2" d="m413.8,31.34l-2.11-5.46h-13.34l-2.16,5.46h-8.27L401.17.48h8.27l12.94,30.85h-8.58Zm-13.03-11.62h8.54l-4.23-11-4.31,11Z"/>
      </g>
      <g>
        <path class="cls-2" d="m58.23,73.75c-2.25-1.22-4.47-1.83-6.67-1.83-2.53,0-4.84.63-6.92,1.9-2.08,1.27-3.72,3.01-4.92,5.24-1.2,2.22-1.79,4.7-1.79,7.42s.6,5.2,1.79,7.43c1.19,2.22,2.83,3.97,4.92,5.24,2.08,1.27,4.39,1.9,6.92,1.9,2.06,0,4.21-.53,6.46-1.58,2.25-1.05,4.26-2.49,6.03-4.3l7.68,8.25c-2.73,2.87-5.97,5.15-9.72,6.85-3.75,1.7-7.47,2.55-11.16,2.55-4.97,0-9.47-1.15-13.49-3.44-4.02-2.3-7.18-5.43-9.47-9.4-2.29-3.97-3.44-8.42-3.44-13.34s1.17-9.28,3.51-13.2c2.34-3.92,5.56-7.01,9.65-9.26,4.09-2.25,8.67-3.37,13.74-3.37,3.73,0,7.41.78,11.05,2.33,3.63,1.55,6.72,3.67,9.25,6.35l-7.6,9.18c-1.63-2.06-3.56-3.7-5.81-4.92Z"/>
        <path class="cls-2" d="m113.13,111.03l-7.81-10.68-.24.04-7.88,1.17,1.72,11.58-10.92,1.62-6.22-41.85,18.8-2.8c5.53-.82,10.01-.18,13.44,1.94,3.43,2.12,5.49,5.5,6.18,10.16.47,3.14.23,5.96-.7,8.43-.93,2.48-2.52,4.54-4.76,6.17l10.75,12.38-12.36,1.84Zm-17.23-18.19l7.94-1.18c2.23-.33,3.87-1.14,4.92-2.44,1.05-1.3,1.42-3,1.1-5.11-.3-2.03-1.14-3.5-2.52-4.41-1.38-.91-3.18-1.2-5.41-.87l-7.94,1.18,1.91,12.84Z"/>
        <path class="cls-2" d="m129.26,61.59h39.67v10.48h-26.54v9.4h23.96v10.4l-23.96.07v9.47h27.26v10.47h-40.39v-50.29Z"/>
        <path class="cls-2" d="m212.01,113.93l-2.03-7.63-17.89-1.96-3.7,7-11.1-1.22,22.31-39.43,11.1,1.22,12.81,43.29-11.51-1.26Zm-15.76-17.5l11.45,1.26-4.05-15.38-7.41,14.12Z"/>
        <path class="cls-2" d="m220.32,62.27h43.12v10.83h-15.07v39.46h-13.13v-39.46h-14.92v-10.83Z"/>
        <path class="cls-2" d="m293.26,66.7l11.65,1.86,5.56,31.63,15.19-28.31,11.11,1.78-22.82,38.86-11.23-1.79-9.46-44.01Z"/>
        <path class="cls-2" d="m405.72,64.75c4.04,2.11,7.19,5.06,9.43,8.86,2.25,3.8,3.37,8.17,3.37,13.09s-1.14,9.3-3.41,13.13c-2.27,3.83-5.48,6.79-9.61,8.9-4.14,2.1-8.89,3.16-14.24,3.16h-21.16v-50.29h21.67c5.26,0,9.91,1.05,13.96,3.16Zm-6.85,34.72c1.96-1.19,3.49-2.89,4.59-5.09,1.1-2.2,1.65-4.71,1.65-7.53s-.59-5.4-1.76-7.6c-1.17-2.2-2.79-3.91-4.84-5.13-2.06-1.22-4.4-1.83-7.03-1.83h-8.25v28.98h8.9c2.53,0,4.78-.6,6.74-1.79Z"/>
        <path class="cls-2" d="m458.58,109.87l-4.12-7.3-18.91,2.75-1.93,8.18-11.73,1.7,12.43-46.47,11.73-1.7,24.7,41.08-12.17,1.77Zm-20.86-13.79l12.11-1.76-8.26-14.73-3.85,16.49Z"/>
        <path class="cls-2" d="m514.77,64.75c4.04,2.11,7.19,5.06,9.43,8.86,2.25,3.8,3.37,8.17,3.37,13.09s-1.14,9.3-3.41,13.13c-2.27,3.83-5.48,6.79-9.61,8.9s-8.89,3.16-14.24,3.16h-21.16v-50.29h21.67c5.26,0,9.91,1.05,13.96,3.16Zm-6.85,34.72c1.96-1.19,3.49-2.89,4.59-5.09,1.1-2.2,1.65-4.71,1.65-7.53s-.59-5.4-1.76-7.6c-1.17-2.2-2.79-3.91-4.84-5.13-2.06-1.22-4.4-1.83-7.03-1.83h-8.25v28.98h8.9c2.53,0,4.78-.6,6.74-1.79Z"/>
        <path class="cls-1" d="m526.56,48.62c6.82,3.55,12.13,8.54,15.92,14.96,3.8,6.42,5.69,13.79,5.69,22.1s-1.92,15.7-5.75,22.16c-3.83,6.46-9.24,11.47-16.23,15.02s-15,5.33-24.04,5.33h-35.72V43.29h36.57c8.88,0,16.73,1.78,23.56,5.33Z"/>
        <path class="cls-1" d="m61.95,64.81c-4.26-1.9-8.42-2.76-12.49-2.56-4.69.23-8.9,1.53-12.64,3.9-3.74,2.37-6.63,5.53-8.65,9.48-2.03,3.94-2.93,8.27-2.7,12.97.23,4.71,1.54,8.92,3.94,12.66,2.39,3.73,5.57,6.6,9.52,8.6,3.95,2,8.27,2.89,12.95,2.66,3.8-.18,7.74-1.28,11.81-3.3,4.07-2.01,7.66-4.67,10.78-7.97l14.88,13.56c-4.8,5.19-10.6,9.42-17.4,12.69-6.8,3.26-13.6,5.06-20.41,5.39-9.2.44-17.6-1.14-25.22-4.74-7.62-3.6-13.72-8.73-18.29-15.38-4.57-6.64-7.06-14.22-7.47-22.72-.41-8.42,1.39-16.11,5.4-23.09,4.01-6.97,9.7-12.59,17.07-16.83,7.37-4.24,15.74-6.59,25.12-7.04,6.89-.33,13.77.68,20.62,3.04,6.85,2.36,12.73,5.73,17.64,10.13l-13.29,16.53c-3.18-3.4-6.89-6.06-11.15-7.96Z"/>
        <path class="cls-1" d="m208.26,60.38h66.03v14.89h-23.07v54.22h-20.11v-54.22h-22.85v-14.89Z"/>
        <path class="cls-2" d="m277.77,69.86l-10.63,1.94c-.76.14-1.26.86-1.12,1.62v.03c.14.73.81,1.21,1.54,1.13l.38,2.1h0s6.84,37.46,6.84,37.46c.54,2.95,3.37,4.91,6.32,4.37l.11-.02c2.95-.54,4.91-3.37,4.37-6.32l-6.84-37.46-.38-2.1c.71-.18,1.17-.87,1.03-1.6v-.03c-.14-.76-.87-1.26-1.63-1.12Zm1.07,21.18c.08.44-.21.86-.65.94-.44.08-.86-.21-.94-.65-.08-.44.21-.86.65-.94.44-.08.86.21.94.65Zm-2.33-5.91c.44-.08.86.21.94.65.08.44-.21.86-.65.94-.44.08-.86-.21-.94-.65-.08-.44.21-.86.65-.94Zm-4.71-9.03c.44-.08.86.21.94.65.08.44-.21.86-.65.94-.44.08-.86-.21-.94-.65-.08-.44.21-.86.65-.94Zm1.11,3.93c.84-.15,1.64.4,1.8,1.24.15.84-.4,1.64-1.24,1.8-.84.15-1.64-.4-1.8-1.24-.15-.84.4-1.64,1.24-1.8Zm1.94,10.22c-.71.13-1.38-.34-1.51-1.04-.13-.71.34-1.38,1.04-1.51.71-.13,1.38.34,1.51,1.04.13.71-.34,1.38-1.04,1.51Zm1.73,3.22c.1.54-.26,1.06-.8,1.16s-1.06-.26-1.16-.8.26-1.06.8-1.16c.54-.1,1.06.26,1.16.8Zm-3.65-8.88c.44-.08.86.21.94.65.08.44-.21.86-.65.94-.44.08-.86-.21-.94-.65-.08-.44.21-.86.65-.94Zm3.39,15.31c.54-.1,1.06.26,1.16.8.1.54-.26,1.06-.8,1.16-.54.1-1.06-.26-1.16-.8s.26-1.06.8-1.16Zm0,12.3s0,0,0,0c.01.03.02.06.04.1-.01-.03-.03-.06-.04-.1Zm.17.43s0,0,0,0c.03.07.07.13.1.19-.04-.06-.07-.13-.1-.19Zm.91,1.11s.06.03.08.05c0,0,0,0,0,0-.03-.02-.06-.03-.08-.05Zm1.27-2.68c-.71.13-1.38-.34-1.51-1.04-.13-.71.34-1.38,1.04-1.51.71-.13,1.38.34,1.51,1.04.13.71-.34,1.38-1.04,1.51Zm-.53-4.83c-.11-.61.29-1.19.9-1.3.61-.11,1.19.29,1.3.9.11.61-.29,1.19-.9,1.3-.61.11-1.19-.29-1.3-.9Zm3.31,5.7c-.44.08-.86-.21-.94-.65s.21-.86.65-.94c.44-.08.86.21.94.65.08.44-.21.86-.65.94Zm-1.5-8.2c-.44.08-.86-.21-.94-.65-.08-.44.21-.86.65-.94.44-.08.86.21.94.65.08.44-.21.86-.65.94Zm-.83-4.56c-.84.15-1.64-.4-1.8-1.24-.15-.84.4-1.64,1.24-1.8.84-.15,1.64.4,1.8,1.24.15.84-.4,1.64-1.24,1.8Z"/>
        <path class="cls-2" d="m359.1,70.46l-10.63-1.92c-.76-.14-1.48.37-1.62,1.12v.03c-.14.73.33,1.42,1.03,1.59l-.38,2.1h0s-6.76,37.47-6.76,37.47c-.53,2.95,1.43,5.78,4.38,6.31l.11.02c2.95.53,5.78-1.43,6.31-4.38l6.76-37.47.38-2.1c.72.08,1.4-.4,1.53-1.13v-.03c.14-.76-.36-1.48-1.12-1.62Zm-6.44,20.2c-.08.44-.5.73-.94.66-.44-.08-.73-.5-.65-.94.08-.44.5-.73.94-.66.44.08.73.5.65.94Zm-.11-6.35c.44.08.73.5.65.94-.08.44-.5.73-.94.65-.44-.08-.73-.5-.65-.94.08-.44.5-.73.94-.65Zm-1.24-10.11c.44.08.73.5.65.94-.08.44-.5.73-.94.65-.44-.08-.73-.5-.65-.94.08-.44.5-.73.94-.65Zm-.35,4.06c.84.15,1.4.95,1.25,1.79-.15.84-.95,1.4-1.79,1.25-.84-.15-1.4-.95-1.25-1.79.15-.84.95-1.4,1.79-1.25Zm-1.78,10.25c-.71-.13-1.17-.8-1.05-1.51.13-.71.8-1.17,1.51-1.05s1.17.8,1.05,1.51c-.13.71-.8,1.17-1.51,1.05Zm.48,3.62c-.1.54-.62.9-1.16.8s-.9-.62-.8-1.16.62-.9,1.16-.8c.54.1.9.62.8,1.16Zm-.3-9.6c.44.08.73.5.65.94-.08.44-.5.73-.94.65-.44-.08-.73-.5-.65-.94.08-.44.5-.73.94-.65Zm-2.21,15.53c.54.1.9.62.8,1.16-.1.54-.62.9-1.16.8-.54-.1-.9-.62-.8-1.16.1-.54.62-.9,1.16-.8Zm-4.33,11.51s0,0,0,0c0,.04,0,.07,0,.1,0-.04,0-.07,0-.1Zm0,.47s0,0,0,0c0,.08.02.15.03.22-.01-.07-.02-.14-.03-.22Zm.47,1.36s.04.05.06.08c0,0,0,0,0,0-.02-.03-.04-.05-.06-.08Zm2.13-2.07c-.71-.13-1.17-.8-1.05-1.51.13-.71.8-1.17,1.51-1.05.71.13,1.17.8,1.05,1.51-.13.71-.8,1.17-1.51,1.05Zm1.2-4.7c.11-.61.69-1.01,1.3-.9.61.11,1.01.69.9,1.3-.11.61-.69,1.01-1.3.9-.61-.11-1.01-.69-.9-1.3Zm1.1,6.5c-.44-.08-.73-.5-.65-.94.08-.44.5-.73.94-.65.44.08.73.5.66.94-.08.44-.5.73-.94.66Zm1.48-8.2c-.44-.08-.73-.5-.65-.94.08-.44.5-.73.94-.65.44.08.73.5.65.94-.08.44-.5.73-.94.65Zm.82-4.57c-.84-.15-1.4-.95-1.25-1.79.15-.84.95-1.4,1.79-1.25.84.15,1.4.95,1.25,1.79-.15.84-.95,1.4-1.79,1.25Z"/>
      </g>
    </g>
  </g>
</svg>