<?xml version="1.0" encoding="UTF-8"?>
<svg id="Capa_2" data-name="Capa 2" xmlns="http://www.w3.org/2000/svg" viewBox="0 0 130.95 133.33">
  <defs>
    <style>
      .cls-1 {
        fill: #fff;
      }
    </style>
  </defs>
  <g id="Capa_1-2" data-name="Capa 1">
    <g>
      <path class="cls-1" d="m128.17.29c-25.07,15.31-50.5,30.88-71.3,51.88-21.53,21.73-35.31,48.94-47.86,76.49-.99,2.18,2.24,4.09,3.24,1.89,12.41-27.25,25.97-54.23,47.27-75.73,20.58-20.78,45.74-36.14,70.54-51.29,2.06-1.26.17-4.5-1.89-3.24h0Z"/>
      <path class="cls-1" d="m.02,108.87c.55,4.44,1.38,8.81,2.71,13.09.86,2.77,2.24,8.94,4.76,10.73,2.2,1.56,4.98-.1,7.16-.9,5.17-1.88,10.34-3.76,15.52-5.63,2.25-.82,1.28-4.44-1-3.62-3.45,1.25-6.9,2.5-10.34,3.76-1.66.6-7.42,3.66-8.93,3.07-1.84-.72-3.2-7.2-3.8-9.23-1.1-3.69-1.85-7.45-2.32-11.27-.29-2.36-4.05-2.39-3.75,0H.02Z"/>
    </g>
  </g>
</svg>