<?xml version="1.0" encoding="UTF-8"?>
<svg id="Capa_2" data-name="Capa 2" xmlns="http://www.w3.org/2000/svg" viewBox="0 0 284.4 101.62">
  <defs>
    <style>
      .cls-1 {
        fill: none;
        stroke: #fdfdfd;
        stroke-miterlimit: 10;
      }

      .cls-2 {
        fill: #fcfcfc;
      }
    </style>
  </defs>
  <g id="Capa_1-2" data-name="Capa 1">
    <g>
      <path class="cls-2" d="m235.9,40.69v9.07h-32.95l-.06-7.47,15.73-16.17c1.23-1.27,2.24-2.55,3.02-3.83.78-1.27,1.17-2.36,1.17-3.27,0-1.19-.43-2.11-1.3-2.75-.86-.64-2.08-.96-3.64-.96-1.73,0-3.65.48-5.77,1.45-2.12.97-4.16,2.31-6.14,4.04l-4.32-8.33c5.96-4.32,11.95-6.48,17.95-6.48,2.88,0,5.46.47,7.74,1.42,2.28.95,4.07,2.28,5.37,4.01,1.3,1.73,1.94,3.7,1.94,5.92s-.73,4.51-2.19,6.88c-1.46,2.37-3.53,4.88-6.2,7.56l-8.82,8.88h18.45Z"/>
      <path class="cls-2" d="m270.92,26.27c2.53,1.11,4.48,2.65,5.86,4.63,1.38,1.97,2.07,4.24,2.07,6.79,0,3-.72,5.64-2.16,7.9-1.44,2.26-3.5,4.01-6.17,5.24-2.67,1.23-5.78,1.85-9.32,1.85-2.88,0-5.85-.49-8.92-1.48-3.06-.99-5.79-2.28-8.17-3.89l4.2-8.14c3.99,3.21,7.88,4.81,11.66,4.81,2.14,0,3.8-.48,5-1.45,1.19-.97,1.79-2.29,1.79-3.98s-.59-2.97-1.76-3.86c-1.17-.88-2.93-1.33-5.28-1.33-5.47,0-9.42.08-11.85.25V8.93h29.06v9.07h-18.69v6.6h3.89c3.33,0,6.26.56,8.79,1.67Z"/>
      <path class="cls-1" d="m241.46,46.04v11.91h-43.76l-.08-9.8,20.9-21.23c1.64-1.67,2.98-3.35,4.01-5.02,1.04-1.67,1.56-3.11,1.56-4.29,0-1.57-.57-2.77-1.72-3.61-1.15-.84-2.76-1.26-4.84-1.26-2.29,0-4.85.64-7.66,1.9-2.81,1.27-5.53,3.04-8.15,5.31l-5.74-10.94c7.92-5.67,15.87-8.51,23.85-8.51,3.82,0,7.25.62,10.28,1.86,3.03,1.24,5.41,3,7.13,5.27,1.72,2.27,2.58,4.86,2.58,7.78s-.97,5.93-2.91,9.03c-1.94,3.11-4.69,6.41-8.24,9.93l-11.72,11.67h24.5Z"/>
      <path class="cls-1" d="m273.37,25.74c3.36,1.46,5.95,3.48,7.78,6.08,1.83,2.59,2.75,5.56,2.75,8.91,0,3.94-.96,7.4-2.87,10.37-1.91,2.97-4.64,5.27-8.19,6.89-3.55,1.62-7.68,2.43-12.37,2.43-3.83,0-7.77-.65-11.84-1.94-4.07-1.3-7.69-3-10.86-5.1l5.57-10.7c5.3,4.21,10.46,6.32,15.49,6.32,2.84,0,5.05-.63,6.64-1.9,1.58-1.27,2.38-3.01,2.38-5.23s-.78-3.9-2.34-5.06c-1.56-1.16-3.89-1.74-7.01-1.74-7.27,0-12.51.11-15.73.32V2.97h38.59v11.91h-24.83v8.67h5.16c4.42,0,8.32.73,11.68,2.19Z"/>
      <g>
        <path class="cls-2" d="m98.25,72.49c1.87.98,3.33,2.34,4.37,4.11,1.04,1.76,1.56,3.79,1.56,6.07s-.53,4.31-1.58,6.08c-1.05,1.77-2.54,3.15-4.46,4.12-1.92.98-4.12,1.46-6.6,1.46h-9.81v-23.31h10.04c2.44,0,4.59.49,6.47,1.46Zm-3.17,16.09c.91-.55,1.62-1.34,2.13-2.36.51-1.02.76-2.18.76-3.49s-.27-2.5-.81-3.52c-.54-1.02-1.29-1.81-2.24-2.38-.95-.57-2.04-.85-3.26-.85h-3.82v13.43h4.12c1.17,0,2.22-.28,3.13-.83Z"/>
        <path class="cls-2" d="m107.21,71.03h18.39v4.85h-12.3v4.36h11.11v4.82l-11.11.03v4.39h12.63v4.85h-18.72v-23.31Z"/>
        <path class="cls-2" d="m154.15,94.34l-1.6-4.12h-10.07l-1.63,4.12h-6.25l10.01-23.31h6.25l9.77,23.31h-6.48Zm-9.84-8.78h6.45l-3.19-8.31-3.26,8.31Z"/>
        <path class="cls-2" d="m178.37,71.75c1.3.48,2.3,1.16,3.01,2.04.71.89,1.06,1.93,1.06,3.13s-.36,2.28-1.08,3.19c-.72.91-1.7,1.53-2.94,1.86,1.49.29,2.65.96,3.51,2.03.85,1.06,1.28,2.35,1.28,3.86,0,1.31-.37,2.46-1.1,3.44-.73.99-1.77,1.74-3.13,2.26-1.35.52-2.94.78-4.75.78h-11.5v-23.31h11.07c1.75,0,3.27.24,4.57.71Zm-2.91,7.95c.49-.41.73-.98.73-1.71s-.24-1.26-.73-1.65c-.49-.39-1.15-.57-2-.55h-4.65v4.52h4.65c.84,0,1.51-.2,2-.61Zm.53,9.26c.62-.44.93-1.06.93-1.86,0-.73-.31-1.31-.93-1.75-.62-.43-1.46-.64-2.53-.62h-4.65v4.89h4.65c1.06,0,1.91-.22,2.53-.67Z"/>
        <path class="cls-2" d="m200.53,94.34l-3.39-6.45h-4.52v6.45h-6.08v-23.31h10.47c3.08,0,5.47.71,7.16,2.14,1.7,1.43,2.54,3.44,2.54,6.03,0,1.75-.35,3.26-1.06,4.54-.71,1.27-1.74,2.27-3.09,2.98l4.85,7.61h-6.88Zm-7.91-11.3h4.42c1.24,0,2.2-.31,2.88-.93s1.01-1.52,1.01-2.69-.34-2-1.01-2.61c-.68-.61-1.64-.92-2.88-.92h-4.42v7.15Z"/>
        <path class="cls-2" d="m210.61,71.03h6.08v23.31h-6.08v-23.31Z"/>
        <path class="cls-2" d="m221.21,71.03h6.08v18.12h9.87v5.19h-15.96v-23.31Z"/>
      </g>
      <path class="cls-1" d="m101.7,65.35c3.28,1.6,5.82,3.84,7.65,6.72,1.82,2.89,2.73,6.2,2.73,9.94s-.92,7.06-2.76,9.96c-1.84,2.9-4.44,5.15-7.79,6.75-3.35,1.6-7.2,2.4-11.54,2.4h-17.15v-38.17h17.56c4.26,0,8.03.8,11.31,2.4Zm-5.55,26.35c1.59-.91,2.83-2.2,3.72-3.87.89-1.67,1.34-3.57,1.34-5.72s-.47-4.1-1.42-5.77c-.95-1.67-2.26-2.97-3.92-3.89-1.67-.93-3.57-1.39-5.7-1.39h-6.69v22h7.21c2.05,0,3.88-.45,5.47-1.36Z"/>
      <g>
        <path class="cls-2" d="m19.11,45.65c-1.98,1.87-4.67,2.8-8.07,2.8-4.43,0-8.11-1.7-11.04-5.11l3.8-5.65c1.11,1.15,2.26,2.03,3.44,2.65,1.18.62,2.25.93,3.21.93,1.02,0,1.83-.32,2.42-.95s.88-1.54.88-2.71v-14.38H2.89v-6.83h19.18v21.4c0,3.38-.99,6-2.96,7.87Z"/>
        <path class="cls-2" d="m40.37,44.93c1.33,1.04,2.89,1.44,4.68,1.2,1.76-.24,3.11-1.02,4.04-2.35.93-1.33,1.26-2.99.99-4.99l-2.48-18.47,8.2-1.1,2.48,18.47c.37,2.72.11,5.18-.76,7.38-.88,2.2-2.31,4-4.3,5.39-1.99,1.39-4.42,2.28-7.29,2.67s-5.46.17-7.78-.64c-2.32-.81-4.2-2.17-5.66-4.05-1.46-1.89-2.37-4.19-2.73-6.91l-2.48-18.47,8.2-1.1,2.48,18.47c.27,1.97,1.06,3.48,2.39,4.52Z"/>
        <path class="cls-2" d="m63.74,20.99h25.01v6.6h-16.74v5.93h15.11v6.56l-15.11.05v5.97h17.19v6.6h-25.47v-31.71Z"/>
        <path class="cls-2" d="m91.65,14.08h8.91l7.92,22.93,7.96-22.93h8.5l-12.39,31.71h-8.59l-12.3-31.71Z"/>
        <path class="cls-2" d="m127.38,20.99h25.01v6.6h-16.74v5.93h15.11v6.56l-15.11.05v5.97h17.19v6.6h-25.47v-31.71Z"/>
        <path class="cls-2" d="m175.77,22.53c-1.96-.47-3.59-.65-4.88-.54-1.02.09-1.81.34-2.36.77-.55.43-.8,1-.74,1.72s.36,1.25.91,1.67c.55.42,1.21.74,1.99.97s1.92.49,3.43.82c2.25.44,4.11.92,5.59,1.43,1.48.51,2.79,1.37,3.92,2.59,1.13,1.22,1.79,2.88,1.97,4.98s-.22,3.95-1.21,5.53c-.98,1.58-2.41,2.83-4.29,3.75-1.87.92-4,1.48-6.37,1.68-2.61.22-5.26-.01-7.94-.71-2.68-.69-5.03-1.76-7.06-3.19l2.65-6.72c1.71,1.28,3.7,2.27,5.95,2.99,2.26.72,4.22,1,5.91.86,1.23-.11,2.18-.41,2.85-.92.67-.51.96-1.2.89-2.07-.06-.72-.38-1.3-.94-1.74-.57-.43-1.26-.76-2.08-.98-.82-.22-1.97-.46-3.44-.73-2.21-.42-4.05-.87-5.52-1.37-1.47-.49-2.75-1.32-3.87-2.48-1.11-1.16-1.76-2.78-1.94-4.85-.17-1.95.21-3.71,1.12-5.27.91-1.56,2.29-2.82,4.13-3.78,1.84-.96,4.02-1.55,6.55-1.76,2.28-.2,4.56-.07,6.84.39,2.28.46,4.31,1.15,6.08,2.09l-2.55,6.85c-1.77-.85-3.63-1.5-5.59-1.97Z"/>
      </g>
    </g>
  </g>
</svg>