<?xml version="1.0" encoding="UTF-8"?>
<svg id="Capa_2" data-name="Capa 2" xmlns="http://www.w3.org/2000/svg" viewBox="0 0 249.42 95.39">
  <defs>
    <style>
      .cls-1 {
        fill: none;
        stroke: #fdfdfd;
        stroke-miterlimit: 10;
      }

      .cls-2 {
        fill: #fcfcfc;
      }
    </style>
  </defs>
  <g id="Capa_1-2" data-name="Capa 1">
    <g>
      <g>
        <path class="cls-2" d="m67.41,68.4c2.1,1.92,3.15,4.59,3.15,8.02s-1.02,6.13-3.07,8.13-5.17,2.99-9.37,2.99h-7.53v-22.02h7.78c3.93,0,6.94.96,9.04,2.88Zm-3.61,13.09c1.21-1.13,1.81-2.78,1.81-4.95s-.6-3.83-1.81-4.99c-1.21-1.17-3.06-1.75-5.56-1.75h-2.74v13.39h3.12c2.25,0,3.97-.57,5.18-1.7Z"/>
        <path class="cls-2" d="m90.69,65.51v4.38h-10.96v4.54h9.86v4.19h-9.86v4.57h11.31v4.35h-16.22v-22.02h15.88Z"/>
        <path class="cls-2" d="m119.42,87.53l-2.05-4.76h-9.23l-2.05,4.76h-5.23l9.51-22.02h4.76l9.51,22.02h-5.23Zm-6.65-15.47l-2.77,6.39h5.51l-2.74-6.39Z"/>
        <path class="cls-2" d="m136.84,87.53h-9.64v-22.02h8.57c1.49,0,2.78.18,3.86.54,1.08.36,1.89.84,2.44,1.45.99,1.13,1.48,2.42,1.48,3.84,0,1.72-.56,3-1.67,3.84-.38.29-.64.48-.79.55-.15.07-.41.19-.79.36,1.37.29,2.45.91,3.26,1.84.81.93,1.21,2.09,1.21,3.48,0,1.53-.52,2.89-1.57,4.06-1.22,1.37-3.34,2.05-6.36,2.05Zm-4.72-13.1h2.33c1.36,0,2.38-.15,3.04-.44.66-.29.99-.93.99-1.91s-.3-1.62-.91-1.94c-.61-.32-1.64-.47-3.09-.47h-2.36v4.76Zm0,8.95h3.37c1.41,0,2.46-.17,3.17-.52.7-.35,1.05-1.03,1.05-2.05s-.37-1.69-1.12-2.02c-.75-.33-1.94-.49-3.58-.49h-2.9v5.07Z"/>
        <path class="cls-2" d="m166.76,72.82c0,3.53-1.4,5.81-4.19,6.83l5.58,7.88h-6.05l-4.88-7.02h-3.4v7.02h-4.91v-22.02h8.35c3.42,0,5.86.58,7.32,1.73,1.46,1.15,2.19,3.01,2.19,5.58Zm-5.92,2.61c.61-.55.91-1.41.91-2.6s-.31-2-.94-2.44c-.63-.44-1.73-.66-3.31-.66h-3.69v6.52h3.59c1.68,0,2.82-.27,3.43-.82Z"/>
        <path class="cls-2" d="m171.8,65.51h4.91v22.02h-4.91v-22.02Z"/>
        <path class="cls-2" d="m182.13,87.53v-22.02h4.91v17.64h9.39v4.38h-14.3Z"/>
      </g>
      <path class="cls-1" d="m206.96,39.51v10.2h-39.06l-.07-8.4,18.65-18.19c1.46-1.43,2.66-2.87,3.59-4.3.92-1.43,1.39-2.66,1.39-3.68,0-1.34-.51-2.37-1.54-3.09-1.02-.72-2.46-1.08-4.32-1.08-2.05,0-4.33.54-6.84,1.63-2.51,1.09-4.94,2.6-7.28,4.55l-5.12-9.37c7.07-4.86,14.16-7.29,21.29-7.29,3.41,0,6.47.53,9.18,1.6,2.71,1.07,4.83,2.57,6.36,4.51,1.54,1.94,2.3,4.16,2.3,6.66s-.87,5.08-2.6,7.74c-1.73,2.66-4.18,5.5-7.35,8.5l-10.46,10h21.87Z"/>
      <path class="cls-1" d="m245.29,27.92c2.42,2.39,3.63,5.45,3.63,9.19,0,3.17-.82,5.98-2.46,8.44-1.64,2.46-3.97,4.38-6.97,5.75-3,1.37-6.53,2.06-10.56,2.06-3.62,0-7.17-.56-10.67-1.67-3.5-1.11-6.44-2.59-8.84-4.43l4.79-9.15c2.07,1.75,4.27,3.07,6.62,3.97,2.35.9,4.69,1.35,7.04,1.35,2.72,0,4.81-.53,6.27-1.6,1.46-1.06,2.18-2.59,2.18-4.58s-.73-3.5-2.18-4.54c-1.46-1.04-3.57-1.56-6.34-1.56h-8.31v-7.09l11.41-11.07h-18.88V3.05h34.51v7.52l-13.45,12.41,2.61.5c3.99.57,7.19,2.05,9.61,4.43Z"/>
      <path class="cls-2" d="m200.73,37.29v8.4h-30.53l-.06-6.92,14.58-14.98c1.14-1.18,2.08-2.36,2.8-3.55.72-1.18,1.09-2.19,1.09-3.03,0-1.11-.4-1.95-1.2-2.54-.8-.59-1.93-.89-3.37-.89-1.6,0-3.38.45-5.35,1.34-1.96.9-3.86,2.14-5.69,3.75l-4-7.72c5.53-4,11.07-6,16.64-6,2.67,0,5.06.44,7.18,1.31,2.12.88,3.77,2.12,4.97,3.72,1.2,1.6,1.8,3.43,1.8,5.49s-.68,4.18-2.03,6.37c-1.35,2.19-3.27,4.53-5.75,7l-8.18,8.23h17.1Z"/>
      <path class="cls-2" d="m244.34,27.53c1.95,1.95,2.92,4.46,2.92,7.51,0,2.59-.66,4.89-1.98,6.9-1.32,2.01-3.19,3.58-5.61,4.7-2.42,1.12-5.25,1.68-8.5,1.68-2.91,0-5.77-.45-8.58-1.36-2.81-.91-5.18-2.12-7.11-3.62l3.85-7.48c1.66,1.43,3.44,2.51,5.33,3.25,1.89.73,3.78,1.1,5.67,1.1,2.19,0,3.87-.43,5.04-1.3,1.17-.87,1.76-2.12,1.76-3.74s-.59-2.86-1.76-3.71c-1.17-.85-2.87-1.28-5.1-1.28h-6.69v-5.8l9.18-9.05h-15.18V7.2h27.76v6.15l-10.82,10.15,2.1.41c3.21.46,5.79,1.67,7.73,3.62Z"/>
      <path class="cls-1" d="m69.8,60.54c3.1,1.53,5.52,3.69,7.24,6.46,1.73,2.77,2.59,5.95,2.59,9.54s-.87,6.78-2.62,9.57c-1.74,2.79-4.2,4.95-7.38,6.48-3.18,1.53-6.82,2.3-10.93,2.3h-16.25v-36.65h16.64c4.04,0,7.61.77,10.71,2.3Zm-5.26,25.31c1.5-.87,2.68-2.11,3.52-3.71.84-1.6,1.27-3.43,1.27-5.49s-.45-3.94-1.35-5.54c-.9-1.6-2.14-2.85-3.72-3.74-1.58-.89-3.38-1.33-5.4-1.33h-6.33v21.12h6.83c1.95,0,3.67-.44,5.18-1.31Z"/>
      <g>
        <path class="cls-2" d="m0,19.7h7.16l7.31,14.76,7.27-14.76h7.16v25.24h-5.83l-.04-15.98-6.44,13.46h-4.25l-6.48-13.46v15.98H0v-25.24Z"/>
        <path class="cls-2" d="m50.32,43.91l-1.99-3.45-8.97,1.39-.88,3.89-5.56.86,5.69-22.12,5.56-.86,11.91,19.4-5.77.89Zm-9.97-6.46l5.74-.89-3.99-6.96-1.75,7.85Z"/>
        <path class="cls-2" d="m77.24,44.79l-3.92-6.85h-.14s-4.75.18-4.75.18l.25,6.98-6.58.24-.91-25.22,11.33-.41c3.33-.12,5.95.56,7.84,2.04,1.89,1.48,2.89,3.62,2.99,6.43.07,1.89-.26,3.55-.97,4.95-.72,1.41-1.8,2.52-3.23,3.34l5.55,8.05-7.45.27Zm-9-11.92l4.78-.17c1.34-.05,2.37-.42,3.08-1.12.71-.7,1.04-1.68.99-2.95-.04-1.22-.44-2.15-1.2-2.78-.76-.63-1.8-.93-3.15-.88l-4.78.17.28,7.74Z"/>
        <path class="cls-2" d="m87.84,22.98l17.88,1.59-.4,4.49-6.25-.55-1.45,16.37-5.45-.48,1.45-16.37-6.19-.55.4-4.49Z"/>
        <path class="cls-2" d="m110.34,19.28l19.89.84-.22,5.25-13.31-.56-.2,4.71,12.01.51-.22,5.22-12.01-.47-.2,4.75,13.67.58-.22,5.25-20.25-.86,1.07-25.21Z"/>
        <path class="cls-2" d="m147.78,28.18c-1.32-.33-2.41-.46-3.28-.39-.69.05-1.22.22-1.59.5-.38.28-.54.67-.51,1.15s.24.84.61,1.13c.37.29.81.51,1.33.66.52.15,1.29.34,2.3.57,1.51.31,2.76.64,3.76,1,.99.35,1.87.94,2.62,1.77s1.19,1.95,1.3,3.37-.17,2.65-.85,3.71c-.67,1.06-1.64,1.89-2.91,2.5-1.27.61-2.7.97-4.3,1.09-1.76.13-3.54-.04-5.34-.52-1.8-.48-3.38-1.21-4.73-2.19l1.82-4.51c1.15.87,2.48,1.55,3.99,2.05,1.51.49,2.84.7,3.97.61.83-.06,1.47-.27,1.92-.61s.66-.8.61-1.39c-.04-.49-.25-.88-.62-1.17-.38-.3-.84-.52-1.4-.67-.55-.15-1.32-.32-2.31-.51-1.49-.29-2.72-.61-3.71-.95-.98-.34-1.85-.91-2.59-1.7-.74-.79-1.17-1.88-1.27-3.28-.1-1.32.16-2.5.78-3.54.62-1.05,1.55-1.88,2.8-2.52,1.24-.63,2.72-1.02,4.42-1.15,1.54-.12,3.07-.02,4.6.3,1.53.32,2.89.8,4.08,1.44l-1.76,4.59c-1.19-.58-2.44-1.04-3.75-1.36Z"/>
      </g>
    </g>
  </g>
</svg>