<?xml version="1.0" encoding="UTF-8"?>
<svg id="Capa_2" data-name="Capa 2" xmlns="http://www.w3.org/2000/svg" viewBox="0 0 353.05 165.41">
  <defs>
    <style>
      .cls-1 {
        fill: none;
        stroke: #fdfdfd;
        stroke-miterlimit: 10;
      }

      .cls-2 {
        fill: #fcfcfc;
      }
    </style>
  </defs>
  <g id="Capa_1-2" data-name="Capa 1">
    <g>
      <g>
        <path class="cls-2" d="m31.52,45.79l-2.38-6.16h-15.05l-2.43,6.16H2.31L17.26,10.98h9.34l14.6,34.82h-9.68Zm-14.7-13.11h9.63l-4.77-12.42-4.87,12.42Z"/>
        <path class="cls-2" d="m69.96,14.18c2.45,2.14,3.67,5.14,3.67,9.02,0,4.11-1.22,7.29-3.67,9.56-2.45,2.27-5.89,3.4-10.33,3.4h-6.21v9.64h-9.09V10.98h15.3c4.44,0,7.88,1.07,10.33,3.2Zm-6.48,13.34c1.01-.93,1.51-2.27,1.51-4.02s-.5-2.99-1.51-3.9-2.44-1.37-4.3-1.37h-5.76v10.68h5.76c1.85,0,3.29-.46,4.3-1.39Z"/>
        <path class="cls-2" d="m88.53,36.7c1.29,1.32,2.93,1.99,4.92,1.99s3.53-.65,4.74-1.96c1.21-1.31,1.81-3.07,1.81-5.29V10.98h9.09v20.46c0,3.01-.64,5.65-1.91,7.92-1.27,2.27-3.1,4.02-5.46,5.24-2.37,1.22-5.14,1.84-8.32,1.84s-5.97-.61-8.37-1.84c-2.4-1.22-4.26-2.97-5.56-5.24-1.31-2.27-1.96-4.91-1.96-7.92V10.98h9.09v20.46c0,2.19.65,3.94,1.94,5.27ZM94.84,0l7.3,2.78-7.2,5.71-6.06-.5,5.96-8Z"/>
        <path class="cls-2" d="m139.09,10.98h8.44v34.82h-7.95l-15.79-20.81v20.81h-8.49V10.98h8l15.84,20.96-.05-20.96Z"/>
        <path class="cls-2" d="m151.31,10.98h29.85v7.5h-10.43v27.32h-9.09v-27.32h-10.33v-7.5Z"/>
        <path class="cls-2" d="m206.69,45.79l-2.38-6.16h-15.05l-2.43,6.16h-9.34l14.95-34.82h9.34l14.6,34.82h-9.68Zm-14.7-13.11h9.63l-4.77-12.42-4.87,12.42Z"/>
        <path class="cls-2" d="m212.75,10.98h29.85v7.5h-10.43v27.32h-9.09v-27.32h-10.33v-7.5Z"/>
        <path class="cls-2" d="m246.27,10.98h27.46v7.25h-18.38v6.51h16.59v7.2l-16.59.05v6.56h18.87v7.25h-27.96V10.98Z"/>
        <path class="cls-2" d="m316.4,45.79l-2.38-6.16h-15.05l-2.43,6.16h-9.34l14.95-34.82h9.34l14.6,34.82h-9.68Zm-14.7-13.11h9.63l-4.77-12.42-4.87,12.42Z"/>
        <path class="cls-2" d="m329.21,10.98h9.09v27.07h14.75v7.75h-23.84V10.98Z"/>
      </g>
      <g>
        <path class="cls-2" d="m55.04,143.14l-10.6-20.16h-14.13v20.16H11.29v-72.84h32.73c9.63,0,17.09,2.24,22.39,6.7,5.3,4.47,7.95,10.76,7.95,18.86,0,5.47-1.11,10.2-3.33,14.19-2.22,3.98-5.44,7.08-9.66,9.3l15.17,23.8h-21.51Zm-24.73-35.33h13.82c3.88,0,6.87-.97,8.99-2.91,2.11-1.94,3.17-4.74,3.17-8.42s-1.06-6.25-3.17-8.15c-2.12-1.9-5.11-2.86-8.99-2.86h-13.82v22.34Z"/>
        <path class="cls-2" d="m91.19,91.12l44.3-6.6,1.74,11.7-29.64,4.42,1.56,10.49,26.76-3.99,1.73,11.62-26.75,4.07,1.58,10.57,30.44-4.53,1.74,11.7-45.1,6.72-8.37-56.16Z"/>
        <path class="cls-2" d="m150.33,70.29h62.45v15.69h-21.82v57.15h-19.02v-57.15h-21.61v-15.69Z"/>
        <path class="cls-2" d="m282.24,90.57c3.85,4.63,6.25,9.84,7.2,15.63.95,5.78.27,11.57-2.04,17.37s-5.85,10.58-10.55,14.17c-4.7,3.59-10.05,5.77-16.05,6.54-6.01.76-12.05-.07-18.13-2.5s-11.04-5.97-14.88-10.63c-3.84-4.66-6.22-9.93-7.14-15.8-.92-5.87-.21-11.73,2.13-17.58,2.32-5.8,5.81-10.46,10.48-14,4.67-3.54,10-5.66,15.99-6.37,5.98-.71,12.01.15,18.09,2.58,6.08,2.43,11.05,5.96,14.9,10.59Zm-29.15,1.71c-3.14.52-5.99,1.84-8.54,3.95-2.56,2.11-4.48,4.78-5.78,8.02-1.32,3.3-1.76,6.6-1.33,9.9.43,3.3,1.58,6.23,3.46,8.79,1.88,2.56,4.29,4.43,7.25,5.61s5.98,1.48,9.08.91c3.1-.58,5.89-1.93,8.39-4.06,2.5-2.13,4.41-4.85,5.72-8.14,1.29-3.24,1.77-6.49,1.43-9.76-.34-3.27-1.45-6.16-3.31-8.68-1.86-2.52-4.27-4.37-7.22-5.55-2.96-1.18-6-1.51-9.15-.98Z"/>
        <path class="cls-1" d="m298.66,78.4c6.16,7.43,10.01,15.78,11.54,25.04,1.53,9.27.44,18.55-3.27,27.84-3.75,9.38-9.38,16.95-16.91,22.71-7.53,5.76-16.11,9.25-25.73,10.48-9.62,1.23-19.31-.11-29.05-4-9.75-3.89-17.7-9.57-23.84-17.04-6.16-7.47-9.96-15.91-11.44-25.32-1.47-9.4-.33-18.8,3.41-28.18,3.71-9.29,9.31-16.77,16.8-22.44,7.49-5.67,16.03-9.07,25.62-10.2,9.58-1.13,19.25.24,29,4.13,9.75,3.89,17.7,9.55,23.87,16.98Zm-46.71,2.73c-5.03.84-9.6,2.95-13.69,6.33-4.1,3.38-7.18,7.67-9.26,12.86s-2.82,10.57-2.13,15.86c.68,5.29,2.53,9.99,5.54,14.09,3.01,4.11,6.88,7.1,11.62,8.99,4.73,1.89,9.58,2.38,14.55,1.45,4.96-.92,9.44-3.09,13.45-6.51,4-3.42,7.06-7.77,9.17-13.05,2.07-5.19,2.83-10.4,2.29-15.64-.55-5.23-2.32-9.87-5.3-13.91-2.98-4.04-6.84-7.01-11.57-8.9-4.74-1.89-9.62-2.42-14.66-1.57Z"/>
        <path class="cls-1" d="m58.65,157.57l-14.09-26.8h-18.78v26.8H.5V60.74h43.51c12.8,0,22.72,2.97,29.77,8.91,7.04,5.94,10.57,14.3,10.57,25.07,0,7.28-1.47,13.56-4.42,18.86-2.95,5.3-7.23,9.41-12.85,12.36l20.16,31.63h-28.59Zm-32.87-46.96h18.37c5.16,0,9.14-1.29,11.95-3.87,2.81-2.58,4.21-6.31,4.21-11.19s-1.4-8.31-4.21-10.84c-2.81-2.53-6.79-3.8-11.95-3.8h-18.37v29.7Z"/>
      </g>
    </g>
  </g>
</svg>