<?xml version="1.0" encoding="UTF-8"?>
<svg id="Capa_2" data-name="Capa 2" xmlns="http://www.w3.org/2000/svg" viewBox="0 0 322.28 113.28">
  <defs>
    <style>
      .cls-1 {
        fill: #fff;
      }

      .cls-2 {
        fill: none;
        stroke: #fff;
        stroke-miterlimit: 10;
      }
    </style>
  </defs>
  <g id="Capa_1-2" data-name="Capa 1">
    <g>
      <g>
        <path class="cls-1" d="m6.47,5.98h3.74v16.78h-3.74V5.98Z"/>
        <path class="cls-1" d="m26.08,5.98h3.74v16.78h-3.74l-7.99-10.51v10.51h-3.74V5.98h3.5l8.23,10.8V5.98Z"/>
        <path class="cls-1" d="m37.87,9.32c-.36.3-.54.69-.54,1.18s.22.88.66,1.16c.44.29,1.46.63,3.05,1.02,1.59.39,2.83.98,3.71,1.76.88.78,1.32,1.93,1.32,3.43s-.56,2.72-1.69,3.66c-1.13.94-2.61,1.4-4.45,1.4-2.66,0-5.05-.98-7.18-2.95l2.23-2.74c1.81,1.58,3.48,2.38,5.02,2.38.69,0,1.23-.15,1.62-.44.39-.3.59-.7.59-1.2s-.21-.9-.62-1.2c-.42-.3-1.24-.6-2.47-.9-1.95-.46-3.38-1.07-4.28-1.81-.9-.74-1.36-1.91-1.36-3.5s.57-2.82,1.72-3.68c1.14-.86,2.57-1.3,4.28-1.3,1.12,0,2.24.19,3.36.58,1.12.38,2.1.93,2.93,1.63l-1.9,2.74c-1.46-1.1-2.96-1.66-4.51-1.66-.62,0-1.12.15-1.48.44Z"/>
        <path class="cls-1" d="m56.96,19.44c1.84,0,3.34-.73,4.51-2.18l2.4,2.47c-1.9,2.14-4.15,3.22-6.73,3.22s-4.71-.82-6.38-2.45c-1.67-1.63-2.51-3.69-2.51-6.18s.85-4.56,2.56-6.23c1.7-1.66,3.79-2.5,6.25-2.5,2.75,0,5.06,1.05,6.91,3.14l-2.33,2.64c-1.18-1.47-2.66-2.21-4.42-2.21-1.41,0-2.61.46-3.61,1.38s-1.5,2.16-1.5,3.72.47,2.81,1.42,3.76,2.09,1.42,3.43,1.42Z"/>
        <path class="cls-1" d="m80.44,11.54c0,2.69-1.06,4.42-3.19,5.21l4.25,6h-4.61l-3.72-5.35h-2.59v5.35h-3.74V5.98h6.36c2.61,0,4.47.44,5.58,1.32,1.11.88,1.67,2.3,1.67,4.25Zm-4.51,1.99c.46-.42.7-1.08.7-1.98s-.24-1.52-.72-1.86c-.48-.34-1.32-.5-2.52-.5h-2.81v4.97h2.74c1.28,0,2.15-.21,2.62-.62Z"/>
        <path class="cls-1" d="m84.28,5.98h3.74v16.78h-3.74V5.98Zm3.6-1.73h-3.43l3.05-4.25,3.72,1.56-3.34,2.69Z"/>
        <path class="cls-1" d="m99.49,22.75h-7.34V5.98h6.53c1.14,0,2.12.14,2.94.41.82.27,1.44.64,1.86,1.1.75.86,1.13,1.84,1.13,2.93,0,1.31-.42,2.29-1.27,2.93-.29.22-.49.37-.6.42-.11.06-.31.15-.6.28,1.04.22,1.87.69,2.48,1.4.62.71.92,1.6.92,2.65,0,1.17-.4,2.2-1.2,3.1-.93,1.04-2.54,1.56-4.85,1.56Zm-3.6-9.98h1.78c1.04,0,1.81-.11,2.32-.34s.76-.71.76-1.45-.23-1.24-.7-1.48c-.46-.24-1.25-.36-2.35-.36h-1.8v3.62Zm0,6.82h2.57c1.07,0,1.88-.13,2.41-.4s.8-.78.8-1.56-.28-1.29-.85-1.54c-.57-.25-1.48-.37-2.72-.37h-2.21v3.86Z"/>
        <path class="cls-1" d="m120.78,5.98v3.34h-8.35v3.46h7.51v3.19h-7.51v3.48h8.62v3.31h-12.36V5.98h12.1Z"/>
        <path class="cls-1" d="m131.48,9.22v13.54h-3.74v-13.54h-4.75v-3.24h13.25v3.24h-4.75Z"/>
        <path class="cls-1" d="m151.07,5.98v3.34h-8.35v3.46h7.51v3.19h-7.51v3.48h8.62v3.31h-12.36V5.98h12.1Z"/>
        <path class="cls-1" d="m172.56,7.48c1.18,1,1.76,2.54,1.76,4.61s-.6,3.59-1.81,4.55c-1.21.96-3.05,1.44-5.53,1.44h-2.23v4.68h-3.74V5.98h5.93c2.58,0,4.45.5,5.63,1.5Zm-2.75,6.6c.45-.5.67-1.24.67-2.21s-.29-1.66-.88-2.06-1.49-.61-2.72-.61h-2.14v5.64h2.52c1.25,0,2.1-.25,2.54-.76Z"/>
        <path class="cls-1" d="m190.86,11.54c0,2.69-1.06,4.42-3.19,5.21l4.25,6h-4.61l-3.72-5.35h-2.59v5.35h-3.74V5.98h6.36c2.61,0,4.47.44,5.58,1.32,1.11.88,1.67,2.3,1.67,4.25Zm-4.51,1.99c.46-.42.7-1.08.7-1.98s-.24-1.52-.72-1.86c-.48-.34-1.32-.5-2.52-.5h-2.81v4.97h2.74c1.28,0,2.15-.21,2.62-.62Z"/>
        <path class="cls-1" d="m208.64,20.44c-1.7,1.66-3.78,2.48-6.26,2.48s-4.57-.83-6.26-2.48c-1.7-1.66-2.54-3.72-2.54-6.18s.85-4.52,2.54-6.18c1.7-1.66,3.78-2.48,6.26-2.48s4.57.83,6.26,2.48,2.54,3.72,2.54,6.18-.85,4.52-2.54,6.18Zm-1.27-6.17c0-1.5-.48-2.77-1.44-3.83s-2.14-1.58-3.54-1.58-2.58.53-3.54,1.58-1.44,2.33-1.44,3.83.48,2.77,1.44,3.82c.96,1.05,2.14,1.57,3.54,1.57s2.58-.52,3.54-1.57c.96-1.05,1.44-2.32,1.44-3.82Z"/>
        <path class="cls-1" d="m226.09,5.98h3.74v16.78h-3.74l-7.99-10.51v10.51h-3.74V5.98h3.5l8.23,10.8V5.98Z"/>
        <path class="cls-1" d="m241.07,9.22v13.54h-3.74v-13.54h-4.75v-3.24h13.25v3.24h-4.75Z"/>
        <path class="cls-1" d="m262.21,20.44c-1.7,1.66-3.78,2.48-6.26,2.48s-4.57-.83-6.26-2.48c-1.7-1.66-2.54-3.72-2.54-6.18s.85-4.52,2.54-6.18c1.7-1.66,3.78-2.48,6.26-2.48s4.57.83,6.26,2.48,2.54,3.72,2.54,6.18-.85,4.52-2.54,6.18Zm-1.27-6.17c0-1.5-.48-2.77-1.44-3.83s-2.14-1.58-3.54-1.58-2.58.53-3.54,1.58-1.44,2.33-1.44,3.83.48,2.77,1.44,3.82c.96,1.05,2.14,1.57,3.54,1.57s2.58-.52,3.54-1.57c.96-1.05,1.44-2.32,1.44-3.82Z"/>
        <path class="cls-1" d="m284.67,5.98h3.74v16.78h-3.74v-6.6h-6.67v6.6h-3.74V5.98h3.74v7.01h6.67v-7.01Z"/>
        <path class="cls-1" d="m304.5,22.75l-1.56-3.62h-7.03l-1.56,3.62h-3.98l7.25-16.78h3.62l7.25,16.78h-3.98Zm-5.06-11.78l-2.11,4.87h4.2l-2.09-4.87Z"/>
        <path class="cls-1" d="m316.47,22.75h-3.74v-6.62l-5.81-10.15h4.06l3.62,6.24,3.62-6.24h4.06l-5.81,10.15v6.62Z"/>
      </g>
      <g>
        <path class="cls-1" d="m28.21,55.96c2.17.95,3.85,2.28,5.04,3.98s1.78,3.64,1.78,5.83c0,2.58-.62,4.84-1.86,6.79-1.24,1.94-3,3.44-5.3,4.51-2.3,1.06-4.97,1.59-8,1.59-2.47,0-5.03-.42-7.66-1.27-2.63-.85-4.97-1.96-7.02-3.34l3.6-7c3.43,2.76,6.77,4.14,10.02,4.14,1.84,0,3.27-.42,4.29-1.25,1.02-.83,1.54-1.97,1.54-3.42s-.5-2.55-1.51-3.31c-1.01-.76-2.52-1.14-4.53-1.14-4.7,0-8.09.07-10.18.21v-21.21h24.97v7.79h-16.06v5.67h3.34c2.86,0,5.38.48,7.55,1.43Z"/>
        <path class="cls-1" d="m67.7,45.63c2.85,3.25,4.27,7.92,4.27,14s-1.42,10.75-4.27,14.02c-2.84,3.27-6.9,4.91-12.17,4.91s-9.43-1.63-12.27-4.91c-2.84-3.27-4.27-7.94-4.27-14.02s1.42-10.74,4.27-14c2.85-3.25,6.94-4.88,12.27-4.88s9.32,1.63,12.17,4.88Zm-17.2,5.06c-1.03,1.82-1.54,4.8-1.54,8.93s.51,7.16,1.54,8.99c1.02,1.82,2.7,2.73,5.04,2.73s3.91-.92,4.96-2.76c1.04-1.84,1.56-4.82,1.56-8.96s-.52-7.11-1.56-8.93c-1.04-1.82-2.7-2.73-4.96-2.73s-4.01.91-5.04,2.73Z"/>
        <path class="cls-1" d="m96.71,58.57c-1.08-.59-2.15-.88-3.21-.88-1.22,0-2.33.31-3.33.91-1,.61-1.79,1.45-2.36,2.52-.57,1.07-.86,2.26-.86,3.57s.29,2.5.86,3.57c.57,1.07,1.36,1.91,2.36,2.52,1,.61,2.11.91,3.33.91.99,0,2.02-.25,3.1-.76,1.08-.51,2.05-1.2,2.9-2.07l3.69,3.96c-1.31,1.38-2.87,2.48-4.67,3.29-1.8.82-3.59,1.22-5.36,1.22-2.39,0-4.55-.55-6.48-1.66-1.93-1.1-3.45-2.61-4.55-4.52-1.1-1.91-1.66-4.05-1.66-6.41s.56-4.46,1.69-6.34c1.13-1.89,2.67-3.37,4.64-4.45,1.96-1.08,4.17-1.62,6.6-1.62,1.79,0,3.56.37,5.31,1.12,1.75.75,3.23,1.76,4.45,3.05l-3.65,4.41c-.78-.99-1.71-1.78-2.79-2.36Z"/>
        <path class="cls-1" d="m113.12,70.58c.9.92,2.03,1.38,3.41,1.38s2.45-.45,3.29-1.36c.84-.91,1.26-2.13,1.26-3.67v-14.21h6.31v14.21c0,2.09-.44,3.93-1.33,5.5s-2.15,2.79-3.79,3.64c-1.64.85-3.57,1.28-5.77,1.28s-4.14-.43-5.81-1.28c-1.67-.85-2.95-2.06-3.86-3.64-.91-1.57-1.36-3.41-1.36-5.5v-14.21h6.31v14.21c0,1.52.45,2.74,1.34,3.65Z"/>
        <path class="cls-1" d="m149.49,54.95c1.7,1.48,2.55,3.57,2.55,6.26,0,2.85-.85,5.06-2.55,6.64-1.7,1.57-4.09,2.36-7.17,2.36h-4.31v6.69h-6.31v-24.17h10.62c3.08,0,5.47.74,7.17,2.22Zm-4.5,9.26c.7-.64,1.05-1.57,1.05-2.79s-.35-2.07-1.05-2.71c-.7-.63-1.7-.95-2.98-.95h-4v7.41h4c1.29,0,2.28-.32,2.98-.97Z"/>
        <path class="cls-1" d="m173.33,53.97c1.99,1.08,3.55,2.56,4.69,4.45,1.14,1.88,1.71,4,1.71,6.34s-.57,4.51-1.71,6.41c-1.14,1.91-2.7,3.41-4.69,4.52-1.99,1.1-4.21,1.66-6.67,1.66s-4.68-.55-6.67-1.64c-1.99-1.09-3.55-2.6-4.69-4.52-1.14-1.92-1.71-4.06-1.71-6.43s.57-4.46,1.71-6.34c1.14-1.89,2.7-3.37,4.69-4.45,1.99-1.08,4.21-1.62,6.67-1.62s4.68.54,6.67,1.62Zm-9.93,4.65c-1.02.62-1.83,1.48-2.43,2.57-.6,1.09-.9,2.29-.9,3.6s.3,2.55.91,3.64c.61,1.09,1.42,1.95,2.43,2.59,1.01.63,2.11.95,3.31.95s2.29-.32,3.29-.95c1-.63,1.79-1.49,2.36-2.59.57-1.09.86-2.3.86-3.64s-.29-2.51-.86-3.6c-.57-1.09-1.36-1.95-2.36-2.57-1-.62-2.1-.93-3.29-.93s-2.3.31-3.33.93Z"/>
        <path class="cls-1" d="m195.4,58.14c-1.46-.48-2.68-.72-3.67-.72-.78,0-1.4.14-1.84.43-.45.29-.67.71-.67,1.26s.19.97.59,1.33c.39.36.87.64,1.45.86s1.42.5,2.55.84c1.68.48,3.06.97,4.15,1.45,1.09.48,2.03,1.22,2.81,2.22.78,1,1.17,2.3,1.17,3.91s-.43,2.98-1.28,4.12c-.85,1.14-2.02,1.99-3.5,2.57-1.48.57-3.13.86-4.95.86-2,0-3.99-.35-5.98-1.05-1.99-.7-3.71-1.66-5.15-2.88l2.45-4.93c1.22,1.08,2.66,1.97,4.33,2.65,1.67.69,3.14,1.03,4.43,1.03.94,0,1.68-.17,2.22-.52.54-.34.81-.85.81-1.52,0-.55-.2-1.01-.6-1.38-.4-.37-.91-.66-1.52-.88-.61-.22-1.46-.48-2.57-.77-1.66-.46-3.02-.93-4.1-1.4-1.08-.47-2.01-1.18-2.78-2.14-.77-.95-1.16-2.22-1.16-3.81,0-1.49.4-2.8,1.19-3.93.79-1.13,1.92-1.99,3.38-2.6,1.46-.61,3.15-.91,5.09-.91,1.75,0,3.47.25,5.17.74,1.7.49,3.19,1.16,4.48,1.98l-2.38,5.03c-1.29-.76-2.66-1.38-4.12-1.86Z"/>
      </g>
      <g>
        <path class="cls-1" d="m218.88,63.99c1.18,1,1.76,2.54,1.76,4.61s-.6,3.59-1.81,4.55c-1.21.96-3.05,1.44-5.53,1.44h-2.23v4.68h-3.74v-16.78h5.93c2.58,0,4.45.5,5.63,1.5Zm-2.75,6.6c.45-.5.67-1.24.67-2.21s-.29-1.66-.88-2.06c-.58-.41-1.49-.61-2.72-.61h-2.14v5.64h2.52c1.25,0,2.1-.25,2.54-.76Z"/>
        <path class="cls-1" d="m234.54,79.27l-1.56-3.62h-7.03l-1.56,3.62h-3.98l7.25-16.78h3.62l7.25,16.78h-3.98Zm-5.06-11.78l-2.11,4.87h4.2l-2.09-4.87Z"/>
        <path class="cls-1" d="m254.08,68.06c0,2.69-1.06,4.42-3.19,5.21l4.25,6h-4.61l-3.72-5.35h-2.59v5.35h-3.74v-16.78h6.36c2.61,0,4.47.44,5.58,1.32s1.67,2.3,1.67,4.25Zm-4.51,1.99c.46-.42.7-1.08.7-1.98s-.24-1.53-.72-1.86c-.48-.34-1.32-.5-2.52-.5h-2.81v4.97h2.74c1.28,0,2.15-.21,2.62-.62Z"/>
        <path class="cls-1" d="m269.87,79.27l-1.56-3.62h-7.03l-1.56,3.62h-3.98l7.25-16.78h3.62l7.25,16.78h-3.98Zm-5.06-11.78l-2.11,4.87h4.2l-2.09-4.87Z"/>
      </g>
      <g>
        <path class="cls-1" d="m16.37,109.78c1.84,0,3.35-.73,4.51-2.18l2.4,2.47c-1.9,2.14-4.15,3.22-6.73,3.22s-4.71-.82-6.38-2.45-2.51-3.69-2.51-6.18.85-4.56,2.56-6.23c1.7-1.66,3.79-2.5,6.25-2.5,2.75,0,5.05,1.05,6.91,3.14l-2.33,2.64c-1.19-1.47-2.66-2.21-4.42-2.21-1.41,0-2.61.46-3.61,1.38-1,.92-1.5,2.16-1.5,3.72s.47,2.81,1.42,3.76c.95.94,2.09,1.42,3.43,1.42Z"/>
        <path class="cls-1" d="m38.07,113.09l-1.56-3.62h-7.03l-1.56,3.62h-3.98l7.25-16.78h3.62l7.25,16.78h-3.98Zm-5.06-11.78l-2.11,4.87h4.2l-2.09-4.87Z"/>
        <path class="cls-1" d="m56.81,98.51c1.6,1.46,2.4,3.5,2.4,6.11s-.78,4.67-2.34,6.19c-1.56,1.52-3.94,2.28-7.14,2.28h-5.74v-16.78h5.93c2.99,0,5.29.73,6.89,2.2Zm-2.75,9.97c.92-.86,1.38-2.12,1.38-3.77s-.46-2.92-1.38-3.8-2.33-1.33-4.24-1.33h-2.09v10.2h2.38c1.71,0,3.03-.43,3.95-1.3Z"/>
        <path class="cls-1" d="m73.92,113.09l-1.56-3.62h-7.03l-1.56,3.62h-3.98l7.25-16.78h3.62l7.25,16.78h-3.98Zm-5.06-11.78l-2.11,4.87h4.2l-2.09-4.87Z"/>
        <path class="cls-1" d="m93.29,99.55v13.54h-3.74v-13.54h-4.75v-3.24h13.25v3.24h-4.75Z"/>
        <path class="cls-1" d="m111.51,113.09l-1.56-3.62h-7.03l-1.56,3.62h-3.98l7.25-16.78h3.62l7.25,16.78h-3.98Zm-5.06-11.78l-2.11,4.87h4.2l-2.09-4.87Z"/>
        <path class="cls-1" d="m116.48,113.09v-2.57l8.78-10.97h-8.5v-3.24h13.61v2.59l-8.76,10.92h8.9v3.26h-14.04Z"/>
        <path class="cls-1" d="m145.73,113.09l-1.56-3.62h-7.03l-1.56,3.62h-3.98l7.25-16.78h3.62l7.25,16.78h-3.98Zm-5.06-11.78l-2.11,4.87h4.2l-2.09-4.87Z"/>
      </g>
      <path class="cls-2" d="m31.26,54.42c2.89,1.27,5.12,3.03,6.69,5.28,1.57,2.25,2.36,4.84,2.36,7.75,0,3.43-.82,6.44-2.47,9.02-1.64,2.58-3.99,4.58-7.05,5.99s-6.6,2.11-10.64,2.11c-3.29,0-6.68-.56-10.18-1.69-3.5-1.13-6.61-2.61-9.33-4.44l4.79-9.3c4.55,3.66,8.99,5.5,13.31,5.5,2.44,0,4.34-.55,5.71-1.66,1.36-1.1,2.04-2.62,2.04-4.54s-.67-3.39-2.01-4.4c-1.34-1.01-3.35-1.52-6.02-1.52-6.25,0-10.76.09-13.53.28v-28.18h33.18v10.36h-21.35v7.54h4.44c3.8,0,7.15.63,10.04,1.9Z"/>
      <path class="cls-2" d="m71.88,41.07c3.82,4.37,5.73,10.62,5.73,18.78s-1.91,14.43-5.73,18.81c-3.82,4.39-9.26,6.58-16.33,6.58s-12.65-2.19-16.47-6.58c-3.82-4.39-5.73-10.66-5.73-18.81s1.91-14.42,5.73-18.78c3.82-4.36,9.31-6.54,16.47-6.54s12.51,2.18,16.33,6.54Zm-23.08,6.8c-1.38,2.44-2.06,6.44-2.06,11.99s.69,9.61,2.06,12.06c1.37,2.44,3.63,3.66,6.76,3.66s5.25-1.23,6.65-3.7c1.4-2.46,2.1-6.47,2.1-12.02s-.7-9.54-2.1-11.99c-1.4-2.44-3.62-3.66-6.65-3.66s-5.38,1.22-6.76,3.66Z"/>
    </g>
  </g>
</svg>