<?xml version="1.0" encoding="UTF-8"?>
<svg id="Capa_2" data-name="Capa 2" xmlns="http://www.w3.org/2000/svg" viewBox="0 0 433 175.25">
  <defs>
    <style>
      .cls-1 {
        fill: none;
        stroke: #fdfdfd;
        stroke-miterlimit: 10;
      }

      .cls-2 {
        fill: #fcfcfc;
      }
    </style>
  </defs>
  <g id="Capa_1-2" data-name="Capa 1">
    <g>
      <path class="cls-2" d="m38.9,0h30.54v8.06h-20.43v7.23h18.45v8.01l-18.45.06v7.29h20.99v8.06h-31.09V0Z"/>
      <path class="cls-2" d="m73.53,0h11.76l7.24,10.99,7.29-10.99h11.93l-12.76,18.5,13.86,20.21h-12.09l-8.23-11.98-8.06,11.98h-11.82l13.75-19.72L73.53,0Z"/>
      <path class="cls-2" d="m145.43,3.56c2.72,2.37,4.09,5.72,4.09,10.02,0,4.57-1.36,8.11-4.09,10.63-2.73,2.52-6.55,3.78-11.49,3.78h-6.9v10.71h-10.11V0h17.01c4.93,0,8.76,1.19,11.49,3.56Zm-7.21,14.83c1.12-1.03,1.68-2.52,1.68-4.47s-.56-3.32-1.68-4.34c-1.12-1.01-2.72-1.52-4.78-1.52h-6.41v11.87h6.41c2.06,0,3.65-.52,4.78-1.55Z"/>
      <path class="cls-2" d="m154.49,0h30.54v8.06h-20.43v7.23h18.45v8.01l-18.45.06v7.29h20.99v8.06h-31.09V0Z"/>
      <path class="cls-2" d="m215.02,38.71l-5.63-10.71h-7.51v10.71h-10.11V0h17.4c5.12,0,9.09,1.19,11.9,3.56,2.82,2.37,4.22,5.72,4.22,10.02,0,2.91-.59,5.42-1.77,7.54-1.18,2.12-2.89,3.76-5.14,4.94l8.06,12.65h-11.43Zm-13.14-18.78h7.34c2.06,0,3.65-.52,4.78-1.55,1.12-1.03,1.68-2.52,1.68-4.47s-.56-3.32-1.68-4.34c-1.12-1.01-2.72-1.52-4.78-1.52h-7.34v11.87Z"/>
      <path class="cls-2" d="m231.75,0h10.11v38.71h-10.11V0Z"/>
      <path class="cls-2" d="m249.37,0h10.99l11.21,22.64,11.16-22.64h10.99v38.71h-8.95l-.06-24.52-9.89,20.65h-6.52l-9.94-20.65v24.52h-9V0Z"/>
      <path class="cls-2" d="m301.23,0h30.54v8.06h-20.43v7.23h18.45v8.01l-18.45.06v7.29h20.99v8.06h-31.09V0Z"/>
      <path class="cls-2" d="m364.96,0h9.39v38.71h-8.84l-17.56-23.14v23.14h-9.44V0h8.89l17.62,23.31-.06-23.31Z"/>
      <path class="cls-2" d="m378.54,0h33.19v8.34h-11.6v30.38h-10.11V8.34h-11.49V0Z"/>
      <path class="cls-2" d="m415.1,18.61h14.64v6.29h-14.64v-6.29Z"/>
      <path class="cls-2" d="m87.72,145.9l-4.9-12.65h-30.91l-5,12.65h-19.18l30.71-71.51h19.18l29.99,71.51h-19.89Zm-30.19-26.93h19.79l-9.79-25.5-9.99,25.5Z"/>
      <path class="cls-2" d="m145.34,99.52c-2.93-.8-5.67-.9-8.22-.3-2.93.69-5.43,2.05-7.49,4.09-2.06,2.04-3.48,4.5-4.26,7.4-.78,2.9-.8,5.93-.05,9.08.74,3.15,2.11,5.86,4.1,8.1,1.99,2.25,4.36,3.82,7.12,4.72,2.75.9,5.6,1,8.53.31,2.38-.56,4.73-1.76,7.05-3.59,2.31-1.83,4.25-4.04,5.8-6.63l11.14,7.46c-2.37,4.06-5.5,7.59-9.38,10.58-3.88,2.99-7.96,4.98-12.22,5.99-5.76,1.36-11.28,1.25-16.55-.31-5.28-1.56-9.79-4.33-13.53-8.29-3.74-3.97-6.28-8.81-7.62-14.51-1.33-5.65-1.17-11.06.47-16.24,1.64-5.18,4.53-9.63,8.65-13.34,4.12-3.72,9.11-6.27,14.98-7.65,4.32-1.02,8.79-1.12,13.42-.31,4.63.81,8.78,2.42,12.44,4.83l-6.3,12.7c-2.44-1.94-5.13-3.31-8.07-4.1Z"/>
      <path class="cls-2" d="m228.11,94.69c-2.82-2.3-5.76-3.74-8.84-4.32-3.54-.67-6.93-.4-10.17.82-3.24,1.22-6,3.23-8.25,6.02-2.26,2.79-3.75,6.09-4.47,9.9-.72,3.81-.54,7.42.54,10.85,1.08,3.42,2.91,6.3,5.48,8.62,2.57,2.32,5.63,3.82,9.17,4.49,2.87.54,6.02.38,9.44-.5,3.42-.87,6.6-2.35,9.56-4.42l8.54,13.56c-4.57,3.29-9.7,5.62-15.39,7-5.69,1.38-11.11,1.58-16.26.6-6.95-1.32-12.93-4.11-17.93-8.38-5-4.27-8.59-9.48-10.74-15.63-2.15-6.15-2.58-12.67-1.28-19.55,1.29-6.82,4.09-12.65,8.4-17.51,4.31-4.86,9.62-8.32,15.93-10.38,6.31-2.06,13-2.42,20.09-1.08,5.21.99,10.15,3.05,14.82,6.18,4.67,3.13,8.42,6.9,11.25,11.32l-13.05,10.82c-1.73-3.3-4-6.1-6.82-8.4Z"/>
      <path class="cls-2" d="m338.39,78.07c5.88,3.2,10.51,7.58,13.87,13.16,3.37,5.58,5.05,11.83,5.05,18.77s-1.68,13.33-5.05,18.97c-3.37,5.64-7.99,10.1-13.87,13.36-5.88,3.26-12.46,4.9-19.74,4.9s-13.86-1.61-19.74-4.85c-5.89-3.23-10.51-7.68-13.87-13.36-3.37-5.68-5.05-12.02-5.05-19.02s1.68-13.19,5.05-18.77c3.37-5.58,7.99-9.96,13.87-13.16,5.88-3.2,12.46-4.79,19.74-4.79s13.86,1.6,19.74,4.79Zm-29.38,13.77c-3.03,1.84-5.42,4.37-7.19,7.6-1.77,3.23-2.65,6.78-2.65,10.66s.9,7.53,2.71,10.76c1.8,3.23,4.2,5.78,7.19,7.65,2.99,1.87,6.26,2.8,9.79,2.8s6.78-.93,9.74-2.8c2.96-1.87,5.29-4.42,6.99-7.65,1.7-3.23,2.55-6.82,2.55-10.76s-.85-7.43-2.55-10.66c-1.7-3.23-4.03-5.76-6.99-7.6-2.96-1.84-6.21-2.75-9.74-2.75s-6.82.92-9.84,2.75Zm12.7-39.99l15,5.71-14.79,11.73-12.44-1.02,12.24-16.42Z"/>
      <path class="cls-2" d="m418.84,90.05l14.16,3.04-12.54,58.41-13.33-2.86-19-40.6-7.49,34.91-14.25-3.06,12.54-58.41,13.41,2.88,19.03,40.87,7.46-35.18Z"/>
      <path class="cls-1" d="m101.58,174.75l-8.23-21.26h-51.95l-8.4,21.26H.76L52.37,54.55h32.24l50.41,120.19h-33.43Zm-50.75-45.27h33.26l-16.46-42.87-16.8,42.87Z"/>
      <path class="cls-2" d="m273.74,87.65l-13.5-2.56c-.96-.18-1.89.45-2.07,1.41v.04c-.18.92.4,1.81,1.29,2.04l-.51,2.67h0s-9.03,47.57-9.03,47.57c-.71,3.75,1.75,7.37,5.5,8.08l.14.03c3.75.71,7.37-1.75,8.08-5.5l9.03-47.57.51-2.67c.92.11,1.78-.5,1.96-1.42v-.04c.19-.96-.44-1.89-1.4-2.07Zm-8.42,25.62c-.11.56-.65.93-1.21.82-.56-.11-.93-.65-.82-1.21.11-.56.65-.93,1.21-.82.56.11.93.65.82,1.21Zm-.07-8.07c.56.11.92.64.82,1.2-.11.56-.64.92-1.2.82-.56-.11-.92-.64-.82-1.2.11-.56.64-.92,1.2-.82Zm-1.46-12.87c.56.11.92.64.82,1.2-.11.56-.64.92-1.2.82-.56-.11-.92-.64-.82-1.2.11-.56.64-.92,1.2-.82Zm-.49,5.16c1.07.2,1.77,1.23,1.56,2.3-.2,1.07-1.23,1.77-2.3,1.56-1.07-.2-1.77-1.23-1.56-2.3.2-1.07,1.23-1.77,2.3-1.56Zm-2.38,13.02c-.9-.17-1.48-1.03-1.31-1.93.17-.9,1.03-1.48,1.93-1.31s1.48,1.03,1.31,1.93c-.17.9-1.03,1.48-1.93,1.31Zm.58,4.61c-.13.69-.79,1.14-1.48,1.01-.69-.13-1.14-.79-1.01-1.48s.79-1.14,1.48-1.01c.69.13,1.14.79,1.01,1.48Zm-.27-12.2c.56.11.92.64.82,1.2-.11.56-.64.92-1.2.82-.56-.11-.92-.64-.82-1.2.11-.56.64-.92,1.2-.82Zm-2.98,19.72c.69.13,1.14.79,1.01,1.48-.13.69-.79,1.14-1.48,1.01-.69-.13-1.14-.79-1.01-1.48.13-.69.79-1.14,1.48-1.01Zm-5.64,14.59s0,0,0,0c0,.04,0,.09,0,.13,0-.04,0-.09,0-.13Zm0,.59s0,0,0,0c0,.1.02.19.03.28-.01-.09-.03-.18-.03-.28Zm.58,1.73s.05.06.08.1c0,0,0,0,0,0-.02-.03-.05-.06-.08-.1Zm2.73-2.6c-.9-.17-1.48-1.03-1.31-1.93.17-.9,1.03-1.48,1.93-1.31.9.17,1.48,1.03,1.31,1.93-.17.9-1.03,1.48-1.93,1.31Zm1.58-5.97c.15-.77.89-1.28,1.66-1.13.77.15,1.28.89,1.13,1.66-.15.77-.89,1.28-1.66,1.13-.77-.15-1.28-.89-1.13-1.66Zm1.32,8.27c-.56-.11-.93-.65-.82-1.21s.65-.93,1.21-.82c.56.11.93.65.82,1.21-.11.56-.65.93-1.21.82Zm1.98-10.41c-.56-.11-.92-.64-.82-1.2.11-.56.64-.92,1.2-.82.56.11.92.64.82,1.2-.11.56-.64.92-1.2.82Zm1.1-5.8c-1.07-.2-1.77-1.23-1.56-2.3.2-1.07,1.23-1.77,2.3-1.56,1.07.2,1.77,1.23,1.56,2.3-.2,1.07-1.23,1.77-2.3,1.56Z"/>
      <path class="cls-1" d="m351.95,55.31c9.44,5.14,16.87,12.18,22.28,21.13,5.41,8.95,8.11,19,8.11,30.14s-2.7,21.4-8.11,30.47c-5.41,9.06-12.83,16.22-22.28,21.46-9.45,5.24-20.01,7.86-31.7,7.86s-22.25-2.59-31.69-7.78c-9.45-5.18-16.87-12.34-22.28-21.46-5.41-9.12-8.11-19.3-8.11-30.55s2.7-21.19,8.11-30.14c5.41-8.95,12.83-16,22.28-21.13,9.44-5.13,20.01-7.7,31.69-7.7s22.25,2.57,31.7,7.7Zm-47.18,22.11c-4.86,2.95-8.71,7.02-11.55,12.2-2.84,5.19-4.26,10.89-4.26,17.12s1.45,12.1,4.34,17.28c2.89,5.19,6.74,9.28,11.55,12.28,4.81,3.01,10.05,4.5,15.73,4.5s10.89-1.5,15.64-4.5c4.75-3,8.49-7.1,11.22-12.28,2.73-5.18,4.09-10.95,4.09-17.28s-1.37-11.93-4.09-17.12c-2.73-5.18-6.47-9.25-11.22-12.2-4.75-2.95-9.97-4.42-15.64-4.42s-10.95,1.47-15.81,4.42Z"/>
    </g>
  </g>
</svg>