<?xml version="1.0" encoding="UTF-8"?>
<svg id="Capa_2" data-name="Capa 2" xmlns="http://www.w3.org/2000/svg" viewBox="0 0 255.71 85.75">
  <defs>
    <style>
      .cls-1 {
        fill: #fff;
      }
    </style>
  </defs>
  <g id="Capa_1-2" data-name="Capa 1">
    <g>
      <path class="cls-1" d="m.13,2.27c11.5,30.99,41.06,49.42,71.46,58.52,18.45,5.52,37.61,8.34,56.62,11.15,19.27,2.84,38.66,5.21,58.15,5.6,21.74.43,43.51-1.76,64.32-8.29,2.29-.72,1.31-4.34-1-3.62-36.07,11.32-74.27,9.06-111.23,4.01-34.09-4.66-71.18-8.89-100.7-28.01C22.7,31.88,10.04,18.25,3.74,1.27,2.91-.97-.72,0,.13,2.27H.13Z"/>
      <path class="cls-1" d="m232.8,57.53l8.04,3.4c2.6,1.1,6.69,2.09,8.93,3.78,4.49,3.38-.75,13.9-2.57,18.17-.93,2.2,2.3,4.11,3.24,1.89,1.72-4.05,3.21-8.16,4.24-12.45.55-2.31,1.57-5.3.69-7.62-1.02-2.71-3.95-3.32-6.39-4.36-4.76-2.02-9.53-4.03-14.29-6.05-2.2-.93-4.11,2.3-1.89,3.24h0Z"/>
    </g>
  </g>
</svg>