<?xml version="1.0" encoding="UTF-8"?>
<svg id="Capa_2" data-name="Capa 2" xmlns="http://www.w3.org/2000/svg" viewBox="0 0 474.65 144.41">
  <defs>
    <style>
      .cls-1 {
        fill: none;
        stroke: #fdfdfd;
        stroke-miterlimit: 10;
      }

      .cls-2 {
        fill-rule: evenodd;
      }

      .cls-2, .cls-3 {
        fill: #fcfcfc;
      }
    </style>
  </defs>
  <g id="Capa_1-2" data-name="Capa 1">
    <g>
      <g>
        <path class="cls-3" d="m1.75,96.92h26.62v7.03H10.56v6.31h16.08v6.98l-16.08.05v6.35h18.29v7.03H1.75v-33.74Z"/>
        <path class="cls-3" d="m57.3,96.92h8.18v33.74h-7.7l-15.31-20.17v20.17h-8.23v-33.74h7.75l15.36,20.31-.05-20.31Z"/>
        <path class="cls-3" d="m82.76,96.92h26.62v7.03h-17.81v6.31h16.08v6.98l-16.08.05v6.35h18.29v7.03h-27.1v-33.74Z"/>
        <path class="cls-3" d="m138.31,96.92h8.18v33.74h-7.7l-15.31-20.17v20.17h-8.23v-33.74h7.75l15.36,20.31-.05-20.31Z"/>
        <path class="cls-3" d="m173.88,121.85c1.25,1.28,2.84,1.93,4.77,1.93s3.43-.63,4.6-1.9c1.17-1.27,1.76-2.98,1.76-5.13v-19.83h8.81v19.83c0,2.92-.62,5.48-1.85,7.68-1.24,2.2-3,3.89-5.29,5.08-2.29,1.19-4.98,1.78-8.06,1.78s-5.78-.59-8.11-1.78c-2.33-1.19-4.12-2.88-5.39-5.08-1.27-2.2-1.9-4.76-1.9-7.68v-19.83h8.81v19.83c0,2.12.63,3.82,1.88,5.1Z"/>
        <path class="cls-3" d="m222.88,96.92h8.18v33.74h-7.7l-15.31-20.17v20.17h-8.23v-33.74h7.75l15.36,20.31-.05-20.31Z"/>
        <path class="cls-3" d="m262.45,130.66l-2.31-5.97h-14.59l-2.36,5.97h-9.05l14.49-33.74h9.05l14.15,33.74h-9.39Zm-14.25-12.71h9.34l-4.62-12.03-4.72,12.03Z"/>
        <path class="cls-3" d="m282.62,96.92h28.93v7.27h-10.11v26.47h-8.81v-26.47h-10.01v-7.27Z"/>
        <path class="cls-3" d="m335.39,133.78l-1.57-5.54-13.06-1.23-2.62,5.15-8.11-.76,15.82-29,8.11.76,9.83,31.41-8.41-.79Zm-11.69-12.58l8.36.79-3.12-11.17-5.24,10.38Z"/>
        <path class="cls-3" d="m347.36,96.92h28.98v5.78l-17.81,20.89h18.1v7.08h-29.89v-5.73l17.81-20.94h-17.19v-7.08Z"/>
        <path class="cls-3" d="m408.41,131.85l-2.52-5.04-12.79,1.22-1.57,5.43-7.94.76,9.89-30.8,7.94-.76,15.23,28.41-8.23.78Zm-13.56-9.95l8.19-.78-5.06-10.17-3.13,10.95Z"/>
        <path class="cls-1" d="m413.86,140.18l-3.91-7.8-19.8,1.89-2.43,8.41-12.29,1.17,15.31-47.69,12.29-1.17,23.58,43.98-12.74,1.21Zm-20.99-15.41l12.68-1.21-7.83-15.74-4.85,16.95Z"/>
        <path class="cls-1" d="m275.02,94.69h43.65v10.16h-15.25v37.01h-13.29v-37.01h-15.11v-10.16Z"/>
      </g>
      <path class="cls-3" d="m0,22.88h42.61v11.25H14.1v10.1h25.74v11.17l-25.74.08v10.17h29.28v11.25H0V22.88Z"/>
      <path class="cls-3" d="m52.02,22.88h14.1v42h22.89v12.02h-36.99V22.88Z"/>
      <path class="cls-3" d="m109.44,12.39h47.33l-.09,13.19h-30.71v14.09h28.36v13.19h-28.36v22.85h-16.53V12.39Z"/>
      <path class="cls-3" d="m187.34,65.08c2.22,1.82,4.86,2.56,7.92,2.21,3.01-.34,5.34-1.62,6.97-3.84,1.64-2.22,2.26-5.05,1.88-8.47l-3.53-31.54,14.01-1.57,3.53,31.54c.52,4.64,0,8.83-1.58,12.54-1.57,3.72-4.08,6.72-7.52,9.02-3.44,2.3-7.61,3.72-12.51,4.27-4.9.55-9.31.09-13.22-1.39-3.91-1.47-7.07-3.84-9.48-7.12-2.41-3.27-3.87-7.23-4.39-11.87l-3.53-31.54,14.01-1.57,3.53,31.54c.38,3.37,1.68,5.96,3.89,7.78Z"/>
      <path class="cls-3" d="m226.42,12.39h54.29v13.64h-18.97v49.68h-16.53V26.03h-18.79v-13.64Z"/>
      <path class="cls-3" d="m302.72,60.64c1.87,2.27,4.38,3.54,7.53,3.81,3.09.26,5.69-.56,7.78-2.47,2.09-1.91,3.28-4.62,3.58-8.14l2.74-32.42,14.4,1.22-2.74,32.42c-.4,4.77-1.77,8.87-4.09,12.3-2.32,3.42-5.44,5.95-9.36,7.57-3.92,1.62-8.39,2.22-13.43,1.8-5.04-.43-9.37-1.77-13.01-4.03-3.64-2.26-6.35-5.28-8.11-9.05-1.77-3.77-2.45-8.04-2.05-12.81l2.74-32.42,14.4,1.22-2.74,32.42c-.29,3.46.5,6.33,2.36,8.6Z"/>
      <path class="cls-3" d="m389.51,75.71l-9.22-17.53h-12.28v17.53h-16.53V12.39h28.45c8.37,0,14.86,1.94,19.47,5.82,4.61,3.89,6.91,9.35,6.91,16.4,0,4.76-.96,8.87-2.89,12.33-1.93,3.46-4.73,6.16-8.4,8.08l13.19,20.69h-18.7Zm-21.5-30.71h12.01c3.37,0,5.98-.84,7.82-2.53,1.84-1.69,2.76-4.12,2.76-7.32s-.92-5.43-2.76-7.09c-1.84-1.66-4.44-2.49-7.82-2.49h-12.01v19.42Z"/>
      <g>
        <path class="cls-3" d="m467.32,37.97c2.37,2.93,4.22,6.23,5.45,9.72,1.24,3.5,1.89,7.22,1.89,10.99,0,9.09-3.68,17.32-9.63,23.28h0c-5.95,5.95-14.18,9.64-23.27,9.64s-17.32-3.69-23.26-9.64c-5.96-5.96-9.64-14.19-9.64-23.28s3.69-17.31,9.64-23.27h0c5.95-5.96,14.18-9.64,23.26-9.64,3.96,0,7.86.72,11.53,2.09,3.65,1.37,7.07,3.39,10.06,5.98l-1.68,1.94c-2.76-2.4-5.91-4.26-9.28-5.52-3.36-1.26-6.97-1.92-10.63-1.92-8.37,0-15.96,3.4-21.45,8.88h0c-5.49,5.49-8.88,13.08-8.88,21.45s3.4,15.97,8.89,21.45c5.48,5.49,13.07,8.89,21.45,8.89s15.97-3.4,21.46-8.88h0c5.49-5.49,8.89-13.08,8.89-21.46,0-3.48-.6-6.91-1.74-10.12-1.14-3.23-2.84-6.27-5.02-8.96l1.99-1.62h0Z"/>
        <path class="cls-3" d="m441.74,34.61c2.78,0,5.46.47,7.95,1.35,2.21.77,4.28,1.87,6.14,3.21l6.26-6.25h.02c1.22-1.18,2.7-1.27,4-.72h0c.53.21,1.03.56,1.45.98.42.4.77.89,1.02,1.41h0c.62,1.33.61,2.9-.54,4.19l-.05.05-6.34,6.34c1.23,1.81,2.23,3.8,2.93,5.91h0c.8,2.4,1.24,4.96,1.24,7.61,0,6.65-2.7,12.68-7.05,17.03-4.35,4.35-10.38,7.05-17.03,7.05s-12.67-2.7-17.03-7.05c-4.35-4.36-7.05-10.38-7.05-17.03s2.69-12.67,7.05-17.03c4.36-4.36,10.38-7.05,17.03-7.05h0Zm7.11,3.77c-2.21-.77-4.61-1.2-7.11-1.2-5.94,0-11.31,2.41-15.2,6.3-3.89,3.89-6.3,9.27-6.3,15.2s2.41,11.32,6.3,15.21c3.89,3.88,9.26,6.3,15.2,6.3s11.32-2.41,15.21-6.3c3.89-3.89,6.3-9.28,6.3-15.21,0-2.38-.38-4.67-1.09-6.79h0c-.74-2.22-1.83-4.28-3.2-6.11l-.67-.89.79-.79,7.07-7.07c.34-.39.33-.91.12-1.36h0c-.12-.24-.29-.48-.49-.68-.19-.18-.42-.34-.65-.44h0c-.4-.17-.85-.16-1.21.17h0s-7.05,7.05-7.05,7.05l-.81.81-.9-.72c-1.88-1.5-4-2.69-6.3-3.49h0Z"/>
        <path class="cls-3" d="m441.74,39.59c-9.72,0-17.73,7.25-18.93,16.65l.15-.16h0c.6-.6,1.43-.97,2.34-.97s1.74.37,2.34.96h0c.1.1.19.22.28.33.1-.14.21-.28.33-.4h0c.54-.54,1.29-.88,2.12-.88s1.58.33,2.12.88h0c.34.35.6.76.75,1.23.39-.36.91-.59,1.49-.59s1.14.25,1.54.64h.02c.35.37.59.85.62,1.39.33-.12.69-.17,1.06-.17.91,0,1.74.38,2.34.97h0c.59.6.96,1.43.96,2.34,0,.17-.01.34-.04.51.46.03.87.24,1.18.54h.01c.32.34.51.79.53,1.25v.16s0,.16,0,.16c1.87,2.91,2.95,6.38,2.95,10.09,0,.97-.08,1.93-.22,2.86,8.65-1.83,15.14-9.5,15.14-18.69,0-10.54-8.55-19.09-19.1-19.09Z"/>
        <path class="cls-2" d="m428.7,61.41c1.65,0,2.98,1.33,2.98,2.97s-1.33,2.98-2.98,2.98-2.97-1.33-2.97-2.98,1.33-2.97,2.97-2.97h0Zm1.68-5.08c.99,0,1.78.81,1.78,1.79s-.8,1.79-1.78,1.79-1.79-.8-1.79-1.79.8-1.79,1.79-1.79h0Zm-5.08.06c1.12,0,2.03.91,2.03,2.02s-.91,2.03-2.03,2.03-2.03-.91-2.03-2.03.91-2.02,2.03-2.02h0Zm9.44,1.22c.66,0,1.21.54,1.21,1.21s-.54,1.21-1.21,1.21-1.21-.55-1.21-1.21.54-1.21,1.21-1.21h0Zm3.24,2.17c1.12,0,2.02.91,2.02,2.03s-.9,2.02-2.02,2.02-2.02-.91-2.02-2.02.9-2.03,2.02-2.03h0Zm3.13,3.51c.5,0,.9.41.9.9s-.4.9-.9.9-.9-.4-.9-.9.4-.9.9-.9h0Z"/>
      </g>
      <path class="cls-1" d="m102.65.5h63.06l-.12,17.81h-40.92v19.03h37.79v17.82h-37.79v30.87h-22.02V.5Z"/>
      <path class="cls-3" d="m436.75,93.18c.28,4.74-3.34,10.57-5.66,14.58-2.56,4.41-5.8,8.11-10.3,10.61-2.11,1.17-.22,4.41,1.89,3.24,5.05-2.8,8.77-6.99,11.64-11.95,2.66-4.6,6.5-10.98,6.17-16.47-.14-2.4-3.89-2.41-3.75,0h0Z"/>
    </g>
  </g>
</svg>