<?xml version="1.0" encoding="UTF-8"?>
<svg id="Capa_2" data-name="Capa 2" xmlns="http://www.w3.org/2000/svg" viewBox="0 0 89.32 112.95">
  <defs>
    <style>
      .cls-1 {
        fill: #fff;
      }
    </style>
  </defs>
  <g id="Capa_1-2" data-name="Capa 1">
    <path class="cls-1" d="m89,69.45c-1.64-7.68-9.22-12.59-16.9-10.95-3.47.74-6.46,2.71-8.53,5.56-5.85-3.16-14.71-7.83-28.18-14.78,1.07-2.58,1.41-5.49.79-8.42-.28-1.29-.73-2.52-1.33-3.66l23.63-15.02c1.06,1.58,2.43,2.95,4.08,4.01,3.19,2.07,7,2.77,10.72,1.98.17-.04.34-.08.5-.12,7.39-1.86,12.05-9.27,10.45-16.78-1.64-7.68-9.22-12.59-16.9-10.95-3.72.79-6.91,2.99-8.98,6.18-2.07,3.19-2.77,7-1.97,10.72.22,1.02.55,2,.98,2.93l-23.75,15.1c-.99-1.3-2.19-2.45-3.6-3.36-3.19-2.07-7-2.77-10.72-1.98-7.71,1.66-12.59,9.22-10.95,16.9,1.64,7.68,9.22,12.59,16.9,10.95.17-.04.34-.08.51-.12,3.7-.93,6.71-3.25,8.6-6.29,9.98,5.16,20.48,10.64,28.02,14.68-1.46,2.89-1.89,6.15-1.2,9.36.11.54.27,1.06.44,1.57-9.19,4.85-22.41,11.58-33.82,17.31-1.01-3.09-3.02-5.73-5.79-7.52-3.19-2.07-7-2.77-10.72-1.98-7.66,1.64-12.59,9.22-10.95,16.9,1.64,7.68,9.22,12.59,16.9,10.95.17-.04.34-.08.5-.12,7.1-1.79,11.67-8.71,10.59-15.91,16.58-8.31,27.3-13.81,34.22-17.49,2.91,5.46,9.18,8.58,15.53,7.23.17-.04.34-.08.51-.12,3.5-.88,6.49-3.02,8.47-6.06,2.07-3.19,2.77-7,1.97-10.72Zm-30.58-52.67c-.68-3.17-.08-6.42,1.69-9.14,1.68-2.6,4.24-4.42,7.22-5.17.14-.04.29-.07.44-.1,6.55-1.4,13.02,2.79,14.42,9.34,1.4,6.55-2.82,13.04-9.35,14.42-3.17.68-6.42.08-9.14-1.69-1.39-.9-2.55-2.05-3.45-3.38-.43-.64-.81-1.32-1.11-2.04-.3-.72-.54-1.46-.71-2.24ZM24.79,55.71c-6.55,1.4-13.02-2.79-14.42-9.34-1.37-6.41,2.61-12.73,8.91-14.32.14-.04.29-.07.43-.1,3.17-.68,6.42-.08,9.14,1.69,1.16.75,2.15,1.68,2.97,2.73.48.61.89,1.26,1.24,1.96.47.93.84,1.92,1.06,2.97.52,2.44.26,4.87-.6,7.03-.29.72-.65,1.41-1.06,2.07-1.69,2.64-4.39,4.63-7.68,5.32Zm-7.59,54.77c-.14.04-.29.07-.43.1-6.55,1.4-13.02-2.79-14.42-9.34-1.4-6.55,2.82-13.03,9.34-14.42,3.17-.68,6.42-.08,9.14,1.69,2.45,1.59,4.2,3.95,5.03,6.72.09.31.18.62.25.94.1.48.16.95.21,1.43.54,5.89-3.29,11.42-9.12,12.89Zm68.07-31.46c-1.77,2.72-4.49,4.6-7.66,5.27-5.41,1.16-10.76-1.51-13.25-6.17-.36-.68-.67-1.4-.9-2.16-.1-.33-.2-.67-.27-1.01-.58-2.72-.22-5.48,1-7.93.21-.41.43-.82.68-1.21.17-.26.36-.51.54-.75,1.76-2.31,4.25-3.91,7.12-4.52,6.55-1.4,13.02,2.79,14.42,9.34.68,3.17.08,6.42-1.69,9.14Z"/>
  </g>
</svg>