<?xml version="1.0" encoding="UTF-8"?>
<svg id="Capa_2" data-name="Capa 2" xmlns="http://www.w3.org/2000/svg" viewBox="0 0 154.18 133.55">
  <defs>
    <style>
      .cls-1 {
        fill: #fff;
      }
    </style>
  </defs>
  <g id="Capa_1-2" data-name="Capa 1">
    <g>
      <path class="cls-1" d="m52,39.99l15.78,7.7c-.3.64-.58,1.29-.82,1.94l-15.97-7.8c.36-.6.69-1.21,1.01-1.84Z"/>
      <path class="cls-1" d="m98.88,81.07l6.18,17.72c-.67.21-1.33.44-1.97.73l-6.2-17.79c.67-.19,1.34-.41,1.99-.66Z"/>
      <path class="cls-1" d="m113.3,49.64l18.35-6.45c.22.67.48,1.33.81,1.95l-18.53,6.51c-.18-.68-.39-1.35-.63-2.01Z"/>
      <path class="cls-1" d="m18.54,1.52C11.59,3.92,6,8.87,2.77,15.48.09,20.98-.67,27.08.59,33.12h0s0,.02,0,.02c1.77,8.4,7.18,15.37,14.86,19.11,9.87,4.82,21.63,3.3,29.96-3.87,2.2-1.86,4.05-4.06,5.56-6.55.36-.6.69-1.21,1.01-1.84.07-.14.16-.27.23-.41,1.66-3.41,2.59-7.05,2.75-10.8.1-2.25-.09-4.56-.57-6.87-1.76-8.41-7.17-15.37-14.85-19.12C32.95-.43,25.48-.88,18.54,1.52ZM1.62,32.91h0l1.03-.22c-1.17-5.57-.47-11.2,2.01-16.29,2.97-6.1,8.15-10.68,14.56-12.9,6.42-2.21,13.31-1.8,19.41,1.18,7.09,3.46,12.08,9.89,13.71,17.65.45,2.14.63,4.28.53,6.36-.15,3.47-1,6.82-2.54,9.97-1.55,3.17-3.66,5.9-6.28,8.13-7.7,6.62-18.57,8.03-27.67,3.57-7.09-3.45-12.1-9.88-13.72-17.65l-1.03.19h0Z"/>
      <path class="cls-1" d="m66.96,49.63c-1,2.75-1.52,5.63-1.49,8.59,0,1.53.17,3.08.47,4.6v.02s.05.19.05.19c1.61,7.58,6.47,13.83,13.35,17.17,3.46,1.69,7.3,2.55,11.09,2.5,2.19-.03,4.36-.37,6.46-.97.67-.19,1.34-.41,1.99-.66,2.28-.86,4.44-2.05,6.38-3.55,3.01-2.35,5.38-5.27,7.03-8.69,2.15-4.42,2.94-9.31,2.27-14.12-.07-.56-.18-1.14-.3-1.71l-.05-.28c-.08-.36-.19-.72-.28-1.07-.18-.68-.39-1.35-.63-2.01-.54-1.49-1.2-2.92-2.01-4.26-2.46-4.1-6.04-7.39-10.35-9.5-8.49-4.13-18.4-3.12-25.86,2.63-3.02,2.32-5.41,5.25-7.11,8.72-.07.15-.12.3-.19.45-.3.64-.58,1.29-.82,1.94Zm1.04,12.78c-.28-1.39-.42-2.8-.43-4.2-.03-3.51.74-6.89,2.28-10.05,1.55-3.17,3.74-5.86,6.5-7.98,6.83-5.27,15.9-6.19,23.66-2.41,3.95,1.93,7.22,4.94,9.47,8.69,1.24,2.06,2.14,4.33,2.67,6.72l1.07.03-1.03.21c.11.53.21,1.05.28,1.57.61,4.4-.11,8.87-2.08,12.92-1.51,3.12-3.68,5.8-6.43,7.94-3.85,2.99-8.67,4.67-13.57,4.73-3.46.05-6.97-.74-10.14-2.29-6.3-3.06-10.74-8.77-12.2-15.66l-.06-.24Z"/>
      <path class="cls-1" d="m103.08,99.52c-3.71,1.64-6.88,4.53-8.79,8.45-1.73,3.56-2.22,7.51-1.41,11.41h0c1.14,5.44,4.64,9.94,9.6,12.36,4.27,2.08,9.09,2.37,13.58.83,4.49-1.55,8.11-4.75,10.19-9.02,1.73-3.56,2.22-7.51,1.41-11.41-1.14-5.44-4.64-9.94-9.6-12.36-4.21-2.05-8.84-2.27-13-.99-.67.21-1.33.44-1.97.73Zm-9.17,19.65h0l1.03-.21c-.72-3.44-.29-6.92,1.24-10.06,3.79-7.77,13.19-11.01,20.96-7.23,4.37,2.13,7.46,6.1,8.46,10.89.72,3.45.29,6.93-1.24,10.07-1.83,3.77-5.02,6.59-8.98,7.95-3.96,1.37-8.21,1.11-11.98-.73-4.37-2.13-7.46-6.1-8.46-10.89l-1.03.21h0Z"/>
      <path class="cls-1" d="m132.46,45.14c.56,1.03,1.27,1.98,2.13,2.81.37.35.76.69,1.17.99.58.42,1.18.78,1.81,1.08,5.41,2.63,12.03.62,15.05-4.59.14-.21.29-.48.41-.75,1.13-2.31,1.44-4.88.91-7.41-.74-3.55-3.02-6.48-6.24-8.05-5.75-2.79-12.69-.39-15.48,5.33-.56,1.13-.92,2.34-1.07,3.59-.16,1.26-.11,2.55.16,3.84.09.41.22.81.35,1.21.22.67.48,1.33.81,1.95Zm18.36-.81c-2.5,4.31-7.91,5.96-12.35,3.8-.52-.24-1-.54-1.46-.87-.33-.25-.66-.53-.97-.82-2.13-2.06-3.19-5.17-2.81-8.03.12-1.03.42-2.01.87-2.93,2.28-4.7,7.96-6.65,12.67-4.37,2.64,1.29,4.5,3.69,5.1,6.58.44,2.09.18,4.19-.74,6.08-.1.19-.2.39-.32.57Z"/>
    </g>
  </g>
</svg>