<?xml version="1.0" encoding="UTF-8"?>
<svg id="Capa_2" data-name="Capa 2" xmlns="http://www.w3.org/2000/svg" viewBox="0 0 149.48 197.47">
  <defs>
    <style>
      .cls-1 {
        fill: #fff;
        fill-rule: evenodd;
      }
    </style>
  </defs>
  <g id="Capa_1-2" data-name="Capa 1">
    <g>
      <path class="cls-1" d="m99.92,20.45c3.27,19.21,6.6,38.29,9.77,57.4,2.36,14.23,4.52,28.49,6.81,42.72,1.51,9.41,3.06,18.82,4.65,28.22.76,4.49,1.52,8.99,2.5,13.43.6,2.7,1.94,5.27,2.4,7.98.46,2.69,1.2,6.01.08,8.14-2.02,3.82-4.19,7.97-8.62,9.92-3.98,1.76-7.83,3.93-11.94,5.31-5.77,1.93-11.66,3.37-17.93,3.07-4.37-.21-8.78.63-13.17.78-6.36.21-12.61-.17-18.56-2.95-2.93-1.37-6.23-1.93-9.24-3.15-2.44-.99-4.75-2.35-7.05-3.66-5.73-3.24-11.74-6.12-17.04-9.96-5.04-3.67-10.03-7.65-13.26-13.32-1.14-2-2.97-3.58-4.27-5.5-1.68-2.47-3.22-5.05-4.66-7.67-1.06-1.94.27-3.82,1.08-5.29,1.58-2.88,3.83-5.4,5.75-8.11,1.33-1.88,2.44-3.93,3.86-5.74,5.28-6.77,10.78-13.36,15.96-20.21,12.69-16.78,25.2-33.7,37.87-50.49,5.83-7.72,11.88-15.26,17.82-22.9,3.8-4.88,7.56-9.79,11.36-14.68,1.36-1.76,2.89-3.28,5.84-3.35Zm23.59,154.84c-.28-1.73-.24-3.22-.8-4.45-1.2-2.66-2.54-5.29-4.12-7.74-1.1-1.71-.73-2.83.52-4.08.81-.8,1.34-1.6,1.1-3.02-2.79-16.37-5.46-32.75-8.18-49.13-3.39-20.41-6.8-40.83-10.21-61.24-1.09-6.53-2.22-13.04-3.32-19.56-.33.48-.28,1.04-.53,1.39-.36.53-.92.92-1.4,1.37-.27-.61-.7-1.21-.74-1.84-.04-.59.32-1.21.51-1.81-.13-.07-.26-.14-.39-.21-28.22,37.06-56.45,74.12-84.73,111.27.74-.35,1.4-.66,2.17-1.02.32.7.59,1.3.83,1.82-4.11,3.21-7.88,6.51-9.74,11.49-.55,1.46-.7,2.63.69,3.26-.02.88-.31,1.74,0,2.21,2.59,3.99,5.03,8.13,8.04,11.8,2.55,3.11,5.6,5.9,8.8,8.36,3.75,2.89,7.74,5.55,11.91,7.79,5.19,2.8,10.48,5.71,16.07,7.38,6.62,1.98,13.59,2.86,20.46,3.89,4.16.63,8.42.73,12.64.89,3.24.13,6.49.11,9.73-.07,5.42-.3,10.5-2.06,15.5-4.02,3.39-1.33,6.64-2.88,8.92-5.9.57-.75,1.22-1.43,1.81-2.17,1.05-1.34,2.08-2.69,3.3-4.28-8.12-1.94-15.76-3.83-23.41-5.59-10.8-2.49-21.61-4.88-32.41-7.35-.74-.17-1.69-.51-2.04-1.09-1.67-2.74-.7-5.49.34-8.18.1-.25.6-.58.76-.51.31.13.71.51.72.8.03.94-.28,1.91-.13,2.81.19,1.16.43,3.01,1.13,3.28,2.63.99,5.47,1.45,8.21,2.1.71-2.97,1.29-5.41,1.84-7.67-4.13-1.5-8.1-2.95-12.32-4.48.93-2.9,1.75-5.45,2.57-7.99.4.08.79.15,1.19.23-.17,2.21-.34,4.42-.52,6.76,2.28.43,4.68.83,7.05,1.35,1.31.3,2.57,1.1,3.86,1.13,1.71.03,1.98.33,1.38,1.97-1.06,2.92-1.84,5.93-2.79,9.1,15.33,3.67,30.32,7.26,45.77,10.96Z"/>
      <path class="cls-1" d="m103.54,9.52c1.76,2.71,3.41,5.13,4.91,7.63.29.48.03,1.29.02,1.95-.69-.16-1.72-.09-1.99-.52-1.53-2.41-2.87-4.93-4.28-7.42-3.77,1.84-5.32,6.18-9.42,6.6-.19-.22-.37-.45-.56-.67,2.75-2.72,5.49-5.44,8.47-8.38-1.24-2-2.61-3.97-3.69-6.08-.35-.68.06-1.75.12-2.64.69.27,1.68.36,2.01.87.91,1.43,1.54,3.03,2.29,4.56.32.65.66,1.3,1,1.96,2.25-1.58,4.33-3.12,6.52-4.5.53-.33,1.41-.1,2.13-.13-.27.67-.36,1.57-.85,1.96-2.08,1.63-4.29,3.11-6.69,4.81Z"/>
      <path class="cls-1" d="m135.92,166.39c-1.57-.69-1.77-1.76-.39-2.44,1.66-.81,3.58-1.45,5.4-1.48,1.85-.03,3.73.69,5.56,1.22,1.72.5,2.67,1.76,2.95,3.56.27,1.68-.68,2.66-1.82,3.62-2.2,1.87-4.76,1.79-7.36,1.36-1.13-.19-2.23-.52-3.36-.79-.58,2.44-1.17,4.67-1.63,6.92-.21,1-.31,2.06-1.61,1.76-.32-.07-.66-1.31-.53-1.91.85-3.92,1.82-7.81,2.78-11.83Zm1.84,2.81c.76.18,1.67.42,2.59.61.73.16,1.52.49,2.2.34,1.35-.3,2.75-.68,3.91-1.4,1.14-.71.83-2.09-.41-2.72-.48-.25-.96-.63-1.46-.67-2.07-.2-4.17-.52-6.19-.25-.42.05-.54,2.39-.8,3.68,0,.06.04.12.17.41Z"/>
      <path class="cls-1" d="m72.07,68.33c1,3.64-.64,6.68-.95,9.96.63.08,1.15.13,1.66.23,2.15.4,3.19,1.88,2.62,4.01-.56,2.08-1.34,4.11-2.22,6.77,1.09-.89,1.66-1.65,2.38-1.87.75-.22,1.65.08,2.48.15-.37.56-.66,1.18-1.11,1.66-.55.59-1.16,1.26-1.88,1.54-.85.33-2.14.69-2.71.29-.7-.5-1.31-1.84-1.17-2.69.3-1.79,1.2-3.47,1.67-5.24.18-.68-.15-1.5-.25-2.26-.73.43-1.84.68-2.14,1.32-.92,1.96-1.45,4.1-2.3,6.09-.28.65-1.08,1.06-1.65,1.59-.15-.8-.6-1.67-.41-2.38,1.16-4.41,2.47-8.79,3.7-13.19.48-1.7.87-3.43,1.34-5.13.06-.22.38-.36.94-.86Z"/>
      <path class="cls-1" d="m94.79,155.62c.65.93,1.3,1.86,1.68,2.4,1.47-.54,2.9-1.37,4.39-1.53,2.38-.26,4.14,1.48,4.35,3.8.14,1.5-.99,2.83-2.5,2.91-1.46.08-2.5-.6-2.37-2.11.06-.74.85-1.42,1.33-2.16-1.15-.8-2.13-.77-2.88.87-.72,1.56-.94,3.35-1.48,5.01-.22.69-.71,1.29-1.08,1.93-.43-.58-1.18-1.12-1.23-1.73-.27-3-.35-6.01-.5-9.01.09-.13.19-.25.28-.37Z"/>
      <path class="cls-1" d="m104.82,148.66c.98-2.32,2.17-2.47,3.83-1.1,1.25,1.02,2.66,1.85,4.23,2.93-.5.96-1.04,2-1.73,3.33-2.27-1.85-4.29-3.49-6.34-5.15Z"/>
      <path class="cls-1" d="m88.51,139.37c1.41-2.7,1.43-2.73,3.93-1.39,1.41.76,2.75,1.67,4.24,2.59-.65,1.02-1.19,1.85-1.8,2.81-2.16-1.36-4.2-2.65-6.37-4.02Z"/>
      <path class="cls-1" d="m85.97,76.98c-.27,1.12-.41,2.3-.86,3.34-.23.53-1.02.82-1.56,1.22-.23-.57-.75-1.21-.64-1.71.52-2.32,1.17-4.61,1.9-6.86.14-.43.84-.69,1.28-1.02.25.55.75,1.13.7,1.66-.1,1.14-.49,2.25-.75,3.38l-.07-.02Z"/>
      <path class="cls-1" d="m96.07,34.05c-.66,2.99-1.28,6-2.02,8.98-.09.35-.83.71-1.29.73-.28,0-.88-.72-.82-.97.82-2.91,1.73-5.8,2.66-8.67.06-.18.46-.24.7-.35.25.1.51.19.76.29Z"/>
      <path class="cls-1" d="m114.76,152.1c.75.75,1.39,1.35,1.98,2,2.28,2.54,2.28,2.57-.13,5.31-.6-.73-1.15-1.49-1.79-2.15-2.25-2.35-2.26-2.34-.06-5.16Z"/>
      <path class="cls-1" d="m96.93,144.39c.57-.83,1.09-1.59,1.68-2.44,2.14,1.29,4.15,2.5,6.26,3.76-.47.74-.86,1.35-1.34,2.1-2.19-1.13-4.32-2.24-6.61-3.42Z"/>
      <path class="cls-1" d="m80.79,92.76c-.2-1.17-.53-1.89-.41-2.54.33-1.81.77-3.62,1.33-5.37.16-.51.9-.84,1.38-1.25.28.42.85.88.8,1.25-.37,2.65-.5,5.42-3.1,7.92Z"/>
      <path class="cls-1" d="m70.53,131.2c.68.11,1.19.2,1.85.31,0,.7.13,1.39-.03,2-.36,1.43-.75,2.88-1.33,4.23-.3.69-1.04,1.2-1.57,1.79-.26-.75-.85-1.57-.71-2.23.42-1.97,1.12-3.89,1.8-6.1Z"/>
      <path class="cls-1" d="m74.65,122.59c-.21.86-.29,1.77-.66,2.56-.24.52-.88.85-1.35,1.26-.36-.59-1.1-1.26-1.01-1.77.31-1.86.84-3.7,1.44-5.5.14-.43.87-.66,1.33-.99.29.49.84.98.83,1.46-.02,1-.32,2-.51,3l-.07-.02Z"/>
      <path class="cls-1" d="m88.82,60.09c1.27,1.79.39,3.61-.05,5.39-.29,1.17-.7,2.31-1.17,3.42-.15.36-.63.59-.96.87-.3-.39-.93-.86-.86-1.17.68-2.91,1.48-5.79,2.24-8.68.26.06.53.11.79.16Z"/>
      <path class="cls-1" d="m80.26,135.86c.3-.91.54-1.66.81-2.48,2.16.8,4.18,1.55,6.36,2.35-.35.88-.63,1.6-1.04,2.65-2.05-.84-4.01-1.66-6.13-2.53Z"/>
      <path class="cls-1" d="m77.24,111.95c-.21.86-.32,1.76-.66,2.56-.17.4-.75.89-1.12.86-.34-.02-.94-.73-.88-1.05.32-2,.75-3.98,1.27-5.94.08-.31.91-.69,1.25-.59.36.11.82.78.79,1.17-.09,1-.43,1.99-.66,2.98h.02Z"/>
      <path class="cls-1" d="m80.37,99.97c-.34,1.12-.58,2.19-1,3.19-.13.32-.75.64-1.1.59-.33-.05-.9-.63-.85-.87.47-2.3,1.02-4.59,1.65-6.85.07-.26.84-.56,1.16-.45.32.1.7.71.67,1.06-.09,1.14-.35,2.28-.54,3.34Z"/>
      <path class="cls-1" d="m22.33,134.36c-2.12.66-4.24,1.33-6.52,2.05-.28-.63-.55-1.22-.92-2.05,2.02-.66,3.89-1.43,5.83-1.83.56-.11,1.33.81,2,1.25-.13.19-.26.38-.38.57Z"/>
      <path class="cls-1" d="m92.33,47.57c-.49,3.07-.83,5.63-1.36,8.16-.08.4-.95.73-1.51.87-.15.04-.8-.85-.71-1.17.7-2.41,1.52-4.78,2.34-7.15.06-.17.41-.25,1.24-.71Z"/>
      <path class="cls-1" d="m24.2,133.84c-.25-.84-.42-1.4-.65-2.15,2.21-.63,4.33-1.24,6.6-1.89.22.71.41,1.34.67,2.2-2.2.61-4.3,1.19-6.62,1.83Z"/>
      <path class="cls-1" d="m32.32,129.6c2.27-.33,4.2-.62,6.3-.92.19.67.36,1.29.61,2.2-2.15.36-4.11.68-6.24,1.04-.23-.81-.42-1.49-.66-2.32Z"/>
      <path class="cls-1" d="m79.96,133.08c-.27.82-.47,1.44-.73,2.23-1.86-.34-3.63-.66-5.53-1.01l.62-2.57c1.87.45,3.61.86,5.64,1.35Z"/>
      <path class="cls-1" d="m63.17,130.22c-.01.84-.02,1.5-.03,2.35-1.66-.29-3.17-.6-4.69-.82-1.73-.25-1.97-1.12-1.12-2.65,1.92.37,3.83.73,5.84,1.12Z"/>
      <path class="cls-1" d="m47.03,127.77c-.11,1.08-.18,1.67-.25,2.37-1.33.09-2.61.08-3.84.29-1.63.28-2.3-.3-2.07-2.19,1.91-.15,3.89-.3,6.17-.47Z"/>
      <path class="cls-1" d="m48.05,127.87c2.66.41,4.66.71,6.76,1.03,0,.74,0,1.38.01,2.34-1.85-.28-3.62-.37-5.26-.87-.57-.17-.84-1.33-1.52-2.5Z"/>
      <path class="cls-1" d="m64.33,130.57c1.59.15,2.92.27,4.42.42l-.55,2.31c-1.19-.11-2.39-.22-3.76-.35-.03-.73-.06-1.44-.11-2.38Z"/>
    </g>
  </g>
</svg>