<?xml version="1.0" encoding="UTF-8"?>
<svg id="Capa_2" data-name="Capa 2" xmlns="http://www.w3.org/2000/svg" viewBox="0 0 105.02 112.43">
  <defs>
    <style>
      .cls-1 {
        fill: #fff;
      }
    </style>
  </defs>
  <g id="Capa_1-2" data-name="Capa 1">
    <g>
      <path class="cls-1" d="m22.53,112.39c-1.16.3-2.92.75-22.23-61.77l-.3-.97.98-.3c.6-.19,60.14-18.7,70.17-21.29,1.06-.27,1.38-.32,1.56-.33,1.12-.06,2.51-.14,11.85,29.92,4.44,14.3,8.96,30.07,9.11,31.85.11,1.3.24,2.78-35.08,12.95-17.01,4.89-34.6,9.57-36.06,9.94ZM2.56,50.99c6.69,21.62,17.54,55.21,20.02,59.28,12.54-3.25,64.8-17.54,69.01-20.91-.98-5.35-15.75-55.18-19.08-59.53-.21.05-.49.12-.85.21-9.28,2.39-61.3,18.53-69.1,20.95Z"/>
      <path class="cls-1" d="m33.87,84.67c-1.16.3-2.92.75-22.23-61.77l-.3-.97.98-.3c.6-.19,60.14-18.7,70.17-21.29,1.06-.27,1.38-.32,1.56-.33,1.12-.06,2.51-.14,11.85,29.92,4.44,14.3,8.96,30.07,9.11,31.85.11,1.3.24,2.78-35.08,12.95-17.01,4.89-34.6,9.57-36.06,9.94ZM13.89,23.27c6.69,21.62,17.54,55.21,20.02,59.28,12.54-3.25,64.8-17.54,69.01-20.91-.98-5.35-15.75-55.18-19.08-59.53-.21.05-.49.12-.85.21-9.28,2.39-61.3,18.53-69.1,20.95Z"/>
      <path class="cls-1" d="m2.22,50.7l-1.89-.77s10.36-25.36,11.33-27.72l1.89.78c-.98,2.36-11.33,27.72-11.33,27.72Z"/>
      <path class="cls-1" d="m73.71,29.13l-1.89-.78c.11-.26,10.72-25.97,11.31-27.67l1.93.67c-.61,1.75-10.91,26.71-11.35,27.77Z"/>
      <path class="cls-1" d="m23.24,111.76l-1.91-.72c.36-.96,8.82-23.5,11.41-27.88l1.76,1.04c-2.5,4.23-11.17,27.33-11.26,27.56Z"/>
      <rect class="cls-1" x="83.35" y="74.7" width="29.95" height="2.05" transform="translate(-8.98 138.09) rotate(-67.77)"/>
    </g>
  </g>
</svg>